<svg width="24" height="24" viewBox="0 0 24 24" fill="none" xmlns="http://www.w3.org/2000/svg">
<path d="M14.1297 11.3401C14.5197 9.70008 13.0897 8.27003 11.4497 8.66003C10.6797 8.85003 10.0497 9.48005 9.85974 10.2501C9.46974 11.8901 10.8997 13.32 12.5397 12.93C13.3197 12.74 13.9497 12.1101 14.1297 11.3401Z" stroke="#3A3A3A" stroke-width="1.5" stroke-linecap="round" stroke-linejoin="round"/>
<path d="M18.0099 17.19C19.7199 15.59 20.7899 13.32 20.7899 10.79C20.7899 5.92998 16.85 2 12 2C7.14995 2 3.20996 5.93998 3.20996 10.79C3.20996 13.33 4.28996 15.62 6.01996 17.22" stroke="#3A3A3A" stroke-width="1.5" stroke-linecap="round" stroke-linejoin="round"/>
<path d="M7.99977 14.55C7.07977 13.57 6.50977 12.25 6.50977 10.79C6.50977 7.75998 8.96977 5.29999 11.9998 5.29999C15.0298 5.29999 17.4898 7.75998 17.4898 10.79C17.4898 12.25 16.9198 13.56 15.9998 14.55" stroke="#3A3A3A" stroke-width="1.5" stroke-linecap="round" stroke-linejoin="round"/>
<path d="M10.2997 16.6603L8.85973 18.4503C7.71973 19.8803 8.72973 21.9903 10.5597 21.9903H13.4297C15.2597 21.9903 16.2797 19.8703 15.1297 18.4503L13.6897 16.6603C12.8297 15.5703 11.1697 15.5703 10.2997 16.6603Z" stroke="#3A3A3A" stroke-width="1.5" stroke-linecap="round" stroke-linejoin="round"/>
</svg>
