<svg width="22" height="22" viewBox="0 0 22 22" fill="none" xmlns="http://www.w3.org/2000/svg">
<path fill-rule="evenodd" clip-rule="evenodd" d="M2.09467 2.09467C3.42914 0.760201 5.42603 0.25 8 0.25H14C16.574 0.25 18.5709 0.760201 19.9053 2.09467C21.2398 3.42914 21.75 5.42603 21.75 8V14C21.75 16.574 21.2398 18.5709 19.9053 19.9053C18.5709 21.2398 16.574 21.75 14 21.75H8C5.42603 21.75 3.42914 21.2398 2.09467 19.9053C0.760201 18.5709 0.25 16.574 0.25 14V8C0.25 5.42603 0.760201 3.42914 2.09467 2.09467ZM3.15533 3.15533C2.2398 4.07086 1.75 5.57397 1.75 8V14C1.75 16.426 2.2398 17.9291 3.15533 18.8447C4.07086 19.7602 5.57397 20.25 8 20.25H14C16.426 20.25 17.9291 19.7602 18.8447 18.8447C19.7602 17.9291 20.25 16.426 20.25 14V8C20.25 5.57397 19.7602 4.07086 18.8447 3.15533C17.9291 2.2398 16.426 1.75 14 1.75H8C5.57397 1.75 4.07086 2.2398 3.15533 3.15533Z" fill="#3A3A3A"/>
<path fill-rule="evenodd" clip-rule="evenodd" d="M7 5.5C6.31421 5.5 5.75 6.06421 5.75 6.75V11.0517C6.12542 10.8589 6.55044 10.75 7 10.75H15C15.4496 10.75 15.8746 10.8589 16.25 11.0517V6.75C16.25 6.06421 15.6858 5.5 15 5.5H7ZM17.75 13.5V6.75C17.75 5.23579 16.5142 4 15 4H7C5.48579 4 4.25 5.23579 4.25 6.75V13.5C4.25 13.9142 4.58579 14.25 5 14.25C5.41421 14.25 5.75 13.9142 5.75 13.5C5.75 12.8142 6.31421 12.25 7 12.25H15C15.6858 12.25 16.25 12.8142 16.25 13.5C16.25 13.9142 16.5858 14.25 17 14.25C17.4142 14.25 17.75 13.9142 17.75 13.5Z" fill="#3A3A3A"/>
<path fill-rule="evenodd" clip-rule="evenodd" d="M16.25 14.75C16.25 14.3358 16.5858 14 17 14H18C18.4142 14 18.75 14.3358 18.75 14.75C18.75 15.1642 18.4142 15.5 18 15.5H17C16.5858 15.5 16.25 15.1642 16.25 14.75Z" fill="#3A3A3A"/>
<path fill-rule="evenodd" clip-rule="evenodd" d="M3.25 14.75C3.25 14.3358 3.58579 14 4 14H5C5.41421 14 5.75 14.3358 5.75 14.75C5.75 15.1642 5.41421 15.5 5 15.5H4C3.58579 15.5 3.25 15.1642 3.25 14.75Z" fill="#3A3A3A"/>
<path fill-rule="evenodd" clip-rule="evenodd" d="M4.25 10C4.25 8.48579 5.48579 7.25 7 7.25H15C16.5142 7.25 17.75 8.48579 17.75 10V13C17.75 13.4142 17.4142 13.75 17 13.75C16.5858 13.75 16.25 13.4142 16.25 13V10C16.25 9.31421 15.6858 8.75 15 8.75H7C6.31421 8.75 5.75 9.31421 5.75 10V13C5.75 13.4142 5.41421 13.75 5 13.75C4.58579 13.75 4.25 13.4142 4.25 13V10Z" fill="#3A3A3A"/>
<path fill-rule="evenodd" clip-rule="evenodd" d="M7 12.25C6.31421 12.25 5.75 12.8142 5.75 13.5V14H8.5C8.91421 14 9.25 14.3358 9.25 14.75C9.25 15.7158 10.0342 16.5 11 16.5C11.9658 16.5 12.75 15.7158 12.75 14.75C12.75 14.3358 13.0858 14 13.5 14H16.25V13.5C16.25 12.8142 15.6858 12.25 15 12.25H7ZM4.25 13.5C4.25 11.9858 5.48579 10.75 7 10.75H15C16.5142 10.75 17.75 11.9858 17.75 13.5V14.75C17.75 15.1642 17.4142 15.5 17 15.5H14.1629C13.8241 16.9329 12.5361 18 11 18C9.4639 18 8.17586 16.9329 7.83706 15.5H5C4.58579 15.5 4.25 15.1642 4.25 14.75V13.5Z" fill="#3A3A3A"/>
</svg>
