<svg width="24" height="24" viewBox="0 0 24 24" fill="none" xmlns="http://www.w3.org/2000/svg">
<path d="M22 15V9C22 4 20 2 15 2H9C4 2 2 4 2 9V15C2 20 4 22 9 22H15C20 22 22 20 22 15Z" stroke="#3A3A3A" stroke-width="1.5" stroke-linecap="round" stroke-linejoin="round"/>
<path d="M9.62 17.3C10.7908 17.3 11.74 16.3508 11.74 15.18C11.74 14.0091 10.7908 13.06 9.62 13.06C8.44915 13.06 7.5 14.0091 7.5 15.18C7.5 16.3508 8.44915 17.3 9.62 17.3Z" stroke="#3A3A3A" stroke-width="1.5" stroke-linecap="round" stroke-linejoin="round"/>
<path d="M11.74 15.18V7.77002" stroke="#3A3A3A" stroke-width="1.5" stroke-linecap="round" stroke-linejoin="round"/>
<path d="M13.13 6.77004L15.47 7.55C16.04 7.74 16.5 8.38 16.5 8.98V9.59999C16.5 10.41 15.87 10.86 15.11 10.6L12.77 9.82002C12.2 9.63002 11.74 8.99003 11.74 8.39003V7.77004C11.74 6.97004 12.36 6.51004 13.13 6.77004Z" stroke="#3A3A3A" stroke-width="1.5" stroke-linecap="round" stroke-linejoin="round"/>
</svg>
