<svg width="24" height="24" viewBox="0 0 24 24" fill="none" xmlns="http://www.w3.org/2000/svg">
<path d="M6.10004 15.6L11.7 5.99999C11.9 5.69999 12.3 5.69999 12.5 5.99999L14 7.99999C14.4 8.59999 14.5 9.39999 14.1 9.99999L10.8 15.3C10.5 15.8 9.90004 16.2 9.30004 16.2H6.40004C6.10004 16.3 5.90004 15.9 6.10004 15.6Z" stroke="#3A3A3A" stroke-width="1.5" stroke-miterlimit="10" stroke-linecap="round" stroke-linejoin="round"/>
<path d="M15.1992 12.3999L13.2992 15.5999C13.0992 15.8999 13.2992 16.2999 13.6992 16.2999H17.4992C17.8992 16.2999 18.0992 15.8999 17.8992 15.5999L15.9992 12.3999C15.7992 12.0999 15.3992 12.0999 15.1992 12.3999Z" stroke="#3A3A3A" stroke-width="1.5" stroke-miterlimit="10" stroke-linecap="round" stroke-linejoin="round"/>
<path d="M12 22C17.5228 22 22 17.5228 22 12C22 6.47715 17.5228 2 12 2C6.47715 2 2 6.47715 2 12C2 17.5228 6.47715 22 12 22Z" stroke="#3A3A3A" stroke-width="1.5" stroke-miterlimit="10"/>
</svg>
