<svg width="24" height="24" viewBox="0 0 24 24" fill="none" xmlns="http://www.w3.org/2000/svg">
<path d="M15.9601 10.83H12.9001L12.1401 13.12H14.4301C15.2701 13.12 15.9601 13.8 15.9601 14.65C15.9601 15.49 15.2801 16.18 14.4301 16.18H12.1401" stroke="#3A3A3A" stroke-width="1.5" stroke-linecap="round" stroke-linejoin="round"/>
<path d="M9.54004 16.17V10.83L8.04004 12.5" stroke="#3A3A3A" stroke-width="1.5" stroke-linecap="round" stroke-linejoin="round"/>
<path d="M10.02 4.46997L12 2" stroke="#3A3A3A" stroke-width="1.5" stroke-linecap="round" stroke-linejoin="round"/>
<path d="M4.90985 7.79974C3.79985 9.27974 3.10986 11.1097 3.10986 13.1097C3.10986 18.0197 7.08988 21.9998 11.9999 21.9998C16.9099 21.9998 20.8899 18.0197 20.8899 13.1097C20.8899 8.19974 16.9099 4.21973 11.9999 4.21973C11.3199 4.21973 10.6599 4.30978 10.0199 4.45978" stroke="#3A3A3A" stroke-width="1.5" stroke-linecap="round" stroke-linejoin="round"/>
</svg>
