<svg width="24" height="24" viewBox="0 0 24 24" fill="none" xmlns="http://www.w3.org/2000/svg">
<path d="M23 15.9697C23 19.8397 19.87 22.9697 16 22.9697L17.05 21.2197" stroke="#3A3A3A" stroke-width="1.5" stroke-linecap="round" stroke-linejoin="round"/>
<path d="M1 7.96973C1 4.09973 4.13 0.969727 8 0.969727L6.95 2.71973" stroke="#3A3A3A" stroke-width="1.5" stroke-linecap="round" stroke-linejoin="round"/>
<path d="M6.61938 13.0702H9.42939C10.0494 13.0702 10.5594 13.6302 10.5594 14.2002C10.5594 14.8202 10.0594 15.3302 9.42939 15.3302H6.61938V13.0702Z" stroke="#3A3A3A" stroke-width="1.5" stroke-miterlimit="10" stroke-linecap="round" stroke-linejoin="round"/>
<path d="M6.61938 15.3302H9.83939C10.5494 15.3302 11.1294 15.8302 11.1294 16.4602C11.1294 17.0802 10.5494 17.5902 9.83939 17.5902H6.61938V15.3302Z" stroke="#3A3A3A" stroke-width="1.5" stroke-miterlimit="10" stroke-linecap="round" stroke-linejoin="round"/>
<path d="M8.42017 17.5801V18.7001" stroke="#3A3A3A" stroke-width="1.5" stroke-miterlimit="10" stroke-linecap="round" stroke-linejoin="round"/>
<path d="M8.42017 11.9502V13.0702" stroke="#3A3A3A" stroke-width="1.5" stroke-miterlimit="10" stroke-linecap="round" stroke-linejoin="round"/>
<path d="M14.85 15.33C14.85 18.74 12.09 21.5 8.68001 21.5C5.27001 21.5 2.51001 18.74 2.51001 15.33C2.51001 11.92 5.27001 9.15997 8.68001 9.15997C8.84001 9.15997 8.99001 9.16999 9.16001 9.17999C12.19 9.40999 14.61 11.83 14.84 14.86C14.84 15.01 14.85 15.16 14.85 15.33Z" stroke="#3A3A3A" stroke-width="1.5" stroke-miterlimit="10" stroke-linecap="round" stroke-linejoin="round"/>
<path d="M21.5004 8.66998C21.5004 12.08 18.7404 14.84 15.3304 14.84H14.8404C14.6104 11.81 12.1904 9.38997 9.1604 9.15997V8.66998C9.1604 5.25998 11.9204 2.5 15.3304 2.5C18.7404 2.5 21.5004 5.25998 21.5004 8.66998Z" stroke="#3A3A3A" stroke-width="1.5" stroke-miterlimit="10" stroke-linecap="round" stroke-linejoin="round"/>
</svg>
