<svg width="22" height="22" viewBox="0 0 22 22" fill="none" xmlns="http://www.w3.org/2000/svg">
<path d="M14.9697 8C14.9697 11.87 11.8397 15 7.96973 15C7.64973 15 7.33973 14.98 7.03973 14.93C3.60973 14.48 0.969727 11.55 0.969727 8C0.969727 4.13 4.09973 1 7.96973 1C11.5197 1 14.4497 3.64 14.8997 7.07C14.9497 7.37 14.9697 7.68 14.9697 8Z" stroke="#3A3A3A" stroke-width="1.5" stroke-linecap="round" stroke-linejoin="round"/>
<path d="M20.9698 14C20.9698 17.87 17.8398 21 13.9698 21C10.4198 21 7.48979 18.36 7.03979 14.93C7.33979 14.98 7.6498 15 7.9698 15C11.8398 15 14.9698 11.87 14.9698 8.00001C14.9698 7.68001 14.9498 7.37001 14.8998 7.07001C18.3298 7.52001 20.9698 10.45 20.9698 14Z" stroke="#3A3A3A" stroke-width="1.5" stroke-linecap="round" stroke-linejoin="round"/>
<path d="M13.1196 13.12L14.4296 14.41" stroke="#3A3A3A" stroke-width="1.5" stroke-linecap="round" stroke-linejoin="round"/>
<path d="M15.9697 11L14.9697 10" stroke="#3A3A3A" stroke-width="1.5" stroke-linecap="round" stroke-linejoin="round"/>
<path d="M10.9697 16L9.96973 15" stroke="#3A3A3A" stroke-width="1.5" stroke-linecap="round" stroke-linejoin="round"/>
</svg>
