<svg width="24" height="24" viewBox="0 0 24 24" fill="none" xmlns="http://www.w3.org/2000/svg">
<path d="M15.5909 12.26C18.4242 12.26 20.7209 9.96323 20.7209 7.13C20.7209 4.29678 18.4242 2 15.5909 2C12.7577 2 10.4609 4.29678 10.4609 7.13C10.4609 9.96323 12.7577 12.26 15.5909 12.26Z" stroke="#3A3A3A" stroke-width="1.5" stroke-miterlimit="10"/>
<path d="M6.35928 19.4403C8.06032 19.4403 9.4393 18.0613 9.4393 16.3603C9.4393 14.6592 8.06032 13.2803 6.35928 13.2803C4.65825 13.2803 3.2793 14.6592 3.2793 16.3603C3.2793 18.0613 4.65825 19.4403 6.35928 19.4403Z" stroke="#3A3A3A" stroke-width="1.5" stroke-miterlimit="10"/>
<path d="M16.6205 22C18.0344 22 19.1805 20.8539 19.1805 19.44C19.1805 18.0262 18.0344 16.88 16.6205 16.88C15.2067 16.88 14.0605 18.0262 14.0605 19.44C14.0605 20.8539 15.2067 22 16.6205 22Z" stroke="#3A3A3A" stroke-width="1.5" stroke-miterlimit="10"/>
</svg>
