<svg width="24" height="24" viewBox="0 0 24 24" fill="none" xmlns="http://www.w3.org/2000/svg">
<path d="M9.40994 15.95L7.01992 13.5601C6.21992 12.7601 6.21992 11.96 7.01992 11.17L11.0099 7.17999L15.3999 11.57C15.6199 11.79 15.6199 12.15 15.3999 12.37L11.8099 15.96C11.0099 16.75 10.2099 16.75 9.40994 15.95Z" stroke="#3A3A3A" stroke-width="1.5" stroke-miterlimit="10" stroke-linecap="round" stroke-linejoin="round"/>
<path d="M10.21 6.38L11.01 7.17999" stroke="#3A3A3A" stroke-width="1.5" stroke-miterlimit="10" stroke-linecap="round" stroke-linejoin="round"/>
<path d="M6.45996 12.33L15.49 11.94" stroke="#3A3A3A" stroke-width="1.5" stroke-miterlimit="10" stroke-linecap="round" stroke-linejoin="round"/>
<path d="M16.4699 14.17C16.4699 14.17 15.3699 15.37 15.3699 16.1C15.3699 16.71 15.8699 17.2 16.4699 17.2C17.0799 17.2 17.5699 16.7 17.5699 16.1C17.5799 15.36 16.4699 14.17 16.4699 14.17Z" stroke="#3A3A3A" stroke-width="1.5" stroke-linecap="round" stroke-linejoin="round"/>
<path d="M12 22C17.5228 22 22 17.5228 22 12C22 6.47715 17.5228 2 12 2C6.47715 2 2 6.47715 2 12C2 17.5228 6.47715 22 12 22Z" stroke="#3A3A3A" stroke-width="1.5" stroke-linecap="round" stroke-linejoin="round"/>
</svg>
