<svg width="24" height="24" viewBox="0 0 24 24" fill="none" xmlns="http://www.w3.org/2000/svg">
<path d="M12.5007 22.0003H4.0807C2.9207 22.0003 1.9707 21.0703 1.9707 19.9303V5.09035C1.9707 2.47035 3.9207 1.28035 6.3107 2.45035L10.7507 4.63035C11.7107 5.10035 12.5007 6.35035 12.5007 7.41035V22.0003Z" stroke="#3A3A3A" stroke-width="1.5" stroke-linecap="round" stroke-linejoin="round"/>
<path d="M21.97 15.0602V18.8402C21.97 21.0002 20.97 22.0002 18.81 22.0002H12.5V10.4202L12.97 10.5202L17.47 11.5302L19.5 11.9802C20.82 12.2702 21.9 12.9502 21.96 14.8702C21.97 14.9302 21.97 14.9902 21.97 15.0602Z" stroke="#3A3A3A" stroke-width="1.5" stroke-linecap="round" stroke-linejoin="round"/>
<path d="M5.5 9.00012H8.97" stroke="#3A3A3A" stroke-width="1.5" stroke-linecap="round" stroke-linejoin="round"/>
<path d="M5.5 13.0001H8.97" stroke="#3A3A3A" stroke-width="1.5" stroke-linecap="round" stroke-linejoin="round"/>
<path d="M17.4707 11.53V14.75C17.4707 15.99 16.4607 17 15.2207 17C13.9807 17 12.9707 15.99 12.9707 14.75V10.52L17.4707 11.53Z" stroke="#3A3A3A" stroke-width="1.5" stroke-linecap="round" stroke-linejoin="round"/>
<path d="M21.9607 14.8703C21.9007 16.0503 20.9207 17.0003 19.7207 17.0003C18.4807 17.0003 17.4707 15.9903 17.4707 14.7503V11.5303L19.5007 11.9803C20.8207 12.2703 21.9007 12.9503 21.9607 14.8703Z" stroke="#3A3A3A" stroke-width="1.5" stroke-linecap="round" stroke-linejoin="round"/>
</svg>
