<svg width="22" height="20" viewBox="0 0 22 20" fill="none" xmlns="http://www.w3.org/2000/svg">
<path fill-rule="evenodd" clip-rule="evenodd" d="M0.25 6.50488C0.25 6.09067 0.585786 5.75488 1 5.75488H21C21.4142 5.75488 21.75 6.09067 21.75 6.50488C21.75 6.9191 21.4142 7.25488 21 7.25488H1C0.585786 7.25488 0.25 6.9191 0.25 6.50488Z" fill="#3A3A3A"/>
<path fill-rule="evenodd" clip-rule="evenodd" d="M4.25 14.5049C4.25 14.0907 4.58579 13.7549 5 13.7549H7C7.41421 13.7549 7.75 14.0907 7.75 14.5049C7.75 14.9191 7.41421 15.2549 7 15.2549H5C4.58579 15.2549 4.25 14.9191 4.25 14.5049Z" fill="#3A3A3A"/>
<path fill-rule="evenodd" clip-rule="evenodd" d="M8.75 14.5049C8.75 14.0907 9.08579 13.7549 9.5 13.7549H13.5C13.9142 13.7549 14.25 14.0907 14.25 14.5049C14.25 14.9191 13.9142 15.2549 13.5 15.2549H9.5C9.08579 15.2549 8.75 14.9191 8.75 14.5049Z" fill="#3A3A3A"/>
<path fill-rule="evenodd" clip-rule="evenodd" d="M2.41607 2.91696C1.99101 3.33723 1.75 4.13606 1.75 5.89488V14.1149C1.75 15.8741 1.99115 16.6722 2.41556 17.0911C2.84272 17.5126 3.65679 17.7499 5.43789 17.7449L5.44 17.7449L16.56 17.7449C18.341 17.7449 19.1559 17.506 19.5839 17.0828C20.009 16.6625 20.25 15.8637 20.25 14.1049V5.89488C20.25 4.13599 20.0089 3.33764 19.5832 2.91745C19.1539 2.49384 18.3363 2.25488 16.55 2.25488H5.44C3.659 2.25488 2.84409 2.49376 2.41607 2.91696ZM1.36143 1.85031C2.26591 0.956008 3.671 0.754883 5.44 0.754883H16.55C18.3237 0.754883 19.7311 0.955926 20.6368 1.84982C21.5461 2.74713 21.75 4.14378 21.75 5.89488V14.1049C21.75 15.8561 21.546 17.2522 20.6386 18.1495C19.7341 19.0438 18.329 19.2449 16.56 19.2449H5.44074C3.67249 19.2498 2.26704 19.0519 1.36194 18.1587C0.453853 17.2626 0.25 15.8657 0.25 14.1149V5.89488C0.25 4.14371 0.453993 2.74753 1.36143 1.85031Z" fill="#3A3A3A"/>
</svg>
