<svg width="22" height="22" viewBox="0 0 22 22" fill="none" xmlns="http://www.w3.org/2000/svg">
<path fill-rule="evenodd" clip-rule="evenodd" d="M15.41 2.39887C15.7029 2.69176 15.7029 3.16664 15.41 3.45953L3.46002 15.4095C3.16712 15.7024 2.69225 15.7024 2.39936 15.4095C2.10646 15.1166 2.10646 14.6418 2.39936 14.3489L14.3494 2.39887C14.6423 2.10598 15.1171 2.10598 15.41 2.39887Z" fill="#3A3A3A"/>
<path fill-rule="evenodd" clip-rule="evenodd" d="M11.8316 15.5487C12.1245 15.8416 12.1245 16.3164 11.8316 16.6093L10.6316 17.8093C10.3388 18.1022 9.86388 18.1022 9.57099 17.8093C9.2781 17.5164 9.27809 17.0416 9.57099 16.7487L10.771 15.5487C11.0639 15.2558 11.5388 15.2558 11.8316 15.5487Z" fill="#3A3A3A"/>
<path fill-rule="evenodd" clip-rule="evenodd" d="M15.7133 11.6684C16.0062 11.9613 16.0062 12.4362 15.7133 12.7291L13.3233 15.1191C13.0304 15.412 12.5555 15.412 12.2626 15.1191C11.9697 14.8262 11.9697 14.3513 12.2626 14.0584L14.6526 11.6684C14.9455 11.3755 15.4204 11.3755 15.7133 11.6684Z" fill="#3A3A3A"/>
<path fill-rule="evenodd" clip-rule="evenodd" d="M11.8935 1.75149C11.4357 1.75437 10.8358 2.06512 9.7716 3.12933L3.1316 9.76933C2.06155 10.8394 1.75217 11.4385 1.75001 11.8938C1.74787 12.3455 2.04756 12.9346 3.1016 13.9887L8.0116 18.8987C9.06392 19.951 9.65576 20.2494 10.109 20.2465C10.5668 20.2436 11.1667 19.9329 12.2309 18.8687L18.8709 12.2287C19.9351 11.1645 20.2459 10.5646 20.2488 10.1068C20.2516 9.65349 19.9533 9.06166 18.9009 8.00933L13.9909 3.09933C12.9386 2.04701 12.3468 1.74863 11.8935 1.75149ZM11.884 0.251516C13.0158 0.244375 14.0039 0.990995 15.0516 2.03867L19.9616 6.94867C21.0093 7.99635 21.7559 8.98451 21.7488 10.1162C21.7416 11.2434 20.9874 12.2335 19.9316 13.2893L13.2916 19.9293C12.2358 20.9851 11.2457 21.7394 10.1185 21.7465C8.98678 21.7536 7.99861 21.007 6.95094 19.9593L2.04094 15.0493C0.994981 14.0034 0.244669 13.0175 0.250029 11.8867C0.255371 10.7595 1.01099 9.76862 2.07094 8.70867L8.71094 2.06867C9.76673 1.01288 10.7568 0.258627 11.884 0.251516Z" fill="#3A3A3A"/>
<path fill-rule="evenodd" clip-rule="evenodd" d="M0.25 20.9985C0.25 20.5843 0.585786 20.2485 1 20.2485H21C21.4142 20.2485 21.75 20.5843 21.75 20.9985C21.75 21.4127 21.4142 21.7485 21 21.7485H1C0.585786 21.7485 0.25 21.4127 0.25 20.9985Z" fill="#3A3A3A"/>
</svg>
