<svg width="22" height="20" viewBox="0 0 22 20" fill="none" xmlns="http://www.w3.org/2000/svg">
<path fill-rule="evenodd" clip-rule="evenodd" d="M0.246094 6.5C0.246094 6.08579 0.58188 5.75 0.996094 5.75H10.4961C10.9103 5.75 11.2461 6.08579 11.2461 6.5C11.2461 6.91421 10.9103 7.25 10.4961 7.25H0.996094C0.58188 7.25 0.246094 6.91421 0.246094 6.5Z" fill="#3A3A3A"/>
<path fill-rule="evenodd" clip-rule="evenodd" d="M4.24609 14.5C4.24609 14.0858 4.58188 13.75 4.99609 13.75H6.99609C7.41031 13.75 7.74609 14.0858 7.74609 14.5C7.74609 14.9142 7.41031 15.25 6.99609 15.25H4.99609C4.58188 15.25 4.24609 14.9142 4.24609 14.5Z" fill="#3A3A3A"/>
<path fill-rule="evenodd" clip-rule="evenodd" d="M8.74609 14.5C8.74609 14.0858 9.08188 13.75 9.49609 13.75H13.4961C13.9103 13.75 14.2461 14.0858 14.2461 14.5C14.2461 14.9142 13.9103 15.25 13.4961 15.25H9.49609C9.08188 15.25 8.74609 14.9142 8.74609 14.5Z" fill="#3A3A3A"/>
<path fill-rule="evenodd" clip-rule="evenodd" d="M2.41216 2.91207C1.9871 3.33235 1.74609 4.13117 1.74609 5.89V14.11C1.74609 15.8688 1.9871 16.6676 2.41216 17.0879C2.84018 17.5111 3.6551 17.75 5.43609 17.75H16.5561C18.3371 17.75 19.152 17.5111 19.58 17.0879C20.0051 16.6676 20.2461 15.8688 20.2461 14.11V10.03C20.2461 9.61579 20.5819 9.28 20.9961 9.28C21.4103 9.28 21.7461 9.61579 21.7461 10.03V14.11C21.7461 15.8612 21.5421 17.2574 20.6347 18.1546C19.7302 19.0489 18.3251 19.25 16.5561 19.25H5.43609C3.66709 19.25 2.26201 19.0489 1.35752 18.1546C0.450087 17.2574 0.246094 15.8612 0.246094 14.11V5.89C0.246094 4.13883 0.450087 2.74265 1.35752 1.84543C2.26201 0.951125 3.66709 0.75 5.43609 0.75H13.4961C13.9103 0.75 14.2461 1.08579 14.2461 1.5C14.2461 1.91421 13.9103 2.25 13.4961 2.25H5.43609C3.6551 2.25 2.84018 2.48887 2.41216 2.91207Z" fill="#3A3A3A"/>
<path fill-rule="evenodd" clip-rule="evenodd" d="M19.0544 0.792066C19.7373 0.727559 20.3675 1.04058 20.9365 1.60966C21.5024 2.17554 21.8119 2.8043 21.7451 3.48567C21.6822 4.12764 21.299 4.62789 20.9365 4.99032L17.2265 8.70032C17.0809 8.84593 16.9007 8.9588 16.7441 9.03706C16.5868 9.11573 16.3895 9.19138 16.1875 9.22169L16.1808 9.22269L14.7582 9.42303C14.3027 9.48555 13.8408 9.36028 13.5084 9.02782C13.1759 8.69536 13.0507 8.23348 13.1132 7.77801L13.1135 7.77539L13.3145 6.34873C13.3448 6.14667 13.4205 5.94941 13.4991 5.79208C13.5774 5.63555 13.6903 5.45527 13.8359 5.30966L17.5459 1.59966C17.9083 1.23726 18.4095 0.852985 19.0544 0.792066ZM19.1955 2.28542C19.0729 2.297 18.8841 2.38272 18.6065 2.66032L14.8991 6.36775C14.8979 6.36922 14.8924 6.37582 14.8836 6.38883C14.8705 6.4081 14.8555 6.43356 14.8408 6.4629C14.8261 6.49221 14.8145 6.5201 14.8065 6.54322C14.8005 6.56059 14.7983 6.5704 14.7978 6.57256L14.6066 7.92957L15.9636 7.73844C15.9658 7.73794 15.9756 7.73565 15.993 7.72966C16.0161 7.72167 16.044 7.71007 16.0733 7.69542C16.1026 7.68075 16.1281 7.66567 16.1474 7.6526C16.1604 7.64377 16.167 7.6383 16.1685 7.63709L19.8759 3.92966C20.1535 3.65209 20.2402 3.46234 20.2523 3.33931C20.2605 3.25568 20.25 3.04445 19.8759 2.67032C19.495 2.28941 19.2801 2.27743 19.1955 2.28542Z" fill="#3A3A3A"/>
<path fill-rule="evenodd" clip-rule="evenodd" d="M17.3417 1.93839C17.7403 1.82553 18.1549 2.05712 18.2677 2.45566C18.5173 3.3369 19.2019 4.01797 20.0662 4.25719C20.4654 4.36768 20.6994 4.78088 20.5889 5.18008C20.4784 5.57928 20.0652 5.81333 19.666 5.70284C18.2903 5.32205 17.2149 4.24313 16.8245 2.86437C16.7116 2.46582 16.9432 2.05125 17.3417 1.93839Z" fill="#3A3A3A"/>
</svg>
