<svg width="22" height="20" viewBox="0 0 22 20" fill="none" xmlns="http://www.w3.org/2000/svg">
<path fill-rule="evenodd" clip-rule="evenodd" d="M0.25 6.5C0.25 6.08579 0.585786 5.75 1 5.75H12.5C12.9142 5.75 13.25 6.08579 13.25 6.5C13.25 6.91421 12.9142 7.25 12.5 7.25H1C0.585786 7.25 0.25 6.91421 0.25 6.5Z" fill="#3A3A3A"/>
<path fill-rule="evenodd" clip-rule="evenodd" d="M4.25 14.5C4.25 14.0858 4.58579 13.75 5 13.75H7C7.41421 13.75 7.75 14.0858 7.75 14.5C7.75 14.9142 7.41421 15.25 7 15.25H5C4.58579 15.25 4.25 14.9142 4.25 14.5Z" fill="#3A3A3A"/>
<path fill-rule="evenodd" clip-rule="evenodd" d="M8.75 14.5C8.75 14.0858 9.08579 13.75 9.5 13.75H13.5C13.9142 13.75 14.25 14.0858 14.25 14.5C14.25 14.9142 13.9142 15.25 13.5 15.25H9.5C9.08579 15.25 8.75 14.9142 8.75 14.5Z" fill="#3A3A3A"/>
<path fill-rule="evenodd" clip-rule="evenodd" d="M2.41607 2.91207C1.99101 3.33235 1.75 4.13117 1.75 5.89V14.11C1.75 15.8688 1.99101 16.6676 2.41607 17.0879C2.84409 17.5111 3.659 17.75 5.44 17.75H16.56C18.341 17.75 19.1559 17.5111 19.5839 17.0879C20.009 16.6676 20.25 15.8688 20.25 14.11V9.03C20.25 8.61579 20.5858 8.28 21 8.28C21.4142 8.28 21.75 8.61579 21.75 9.03V14.11C21.75 15.8612 21.546 17.2574 20.6386 18.1546C19.7341 19.0489 18.329 19.25 16.56 19.25H5.44C3.671 19.25 2.26591 19.0489 1.36143 18.1546C0.453993 17.2574 0.25 15.8612 0.25 14.11V5.89C0.25 4.13883 0.453993 2.74265 1.36143 1.84543C2.26591 0.951125 3.671 0.75 5.44 0.75H12.5C12.9142 0.75 13.25 1.08579 13.25 1.5C13.25 1.91421 12.9142 2.25 12.5 2.25H5.44C3.659 2.25 2.84409 2.48887 2.41607 2.91207Z" fill="#3A3A3A"/>
<path fill-rule="evenodd" clip-rule="evenodd" d="M21.5303 0.96967C21.8232 1.26256 21.8232 1.73744 21.5303 2.03033L17.5303 6.03033C17.2374 6.32322 16.7626 6.32322 16.4697 6.03033L14.9697 4.53033C14.6768 4.23744 14.6768 3.76256 14.9697 3.46967C15.2626 3.17678 15.7374 3.17678 16.0303 3.46967L17 4.43934L20.4697 0.96967C20.7626 0.676777 21.2374 0.676777 21.5303 0.96967Z" fill="#3A3A3A"/>
</svg>
