<svg width="22" height="22" viewBox="0 0 22 22" fill="none" xmlns="http://www.w3.org/2000/svg">
<path fill-rule="evenodd" clip-rule="evenodd" d="M0.25 7.5C0.25 7.08579 0.585786 6.75 1 6.75H14.24C14.6542 6.75 14.99 7.08579 14.99 7.5C14.99 7.91421 14.6542 8.25 14.24 8.25H1C0.585786 8.25 0.25 7.91421 0.25 7.5Z" fill="#3A3A3A"/>
<path fill-rule="evenodd" clip-rule="evenodd" d="M4.25 15.5C4.25 15.0858 4.58579 14.75 5 14.75H6.29C6.70421 14.75 7.04 15.0858 7.04 15.5C7.04 15.9142 6.70421 16.25 6.29 16.25H5C4.58579 16.25 4.25 15.9142 4.25 15.5Z" fill="#3A3A3A"/>
<path fill-rule="evenodd" clip-rule="evenodd" d="M9.25 15.5C9.25 15.0858 9.58579 14.75 10 14.75H13.5C13.9142 14.75 14.25 15.0858 14.25 15.5C14.25 15.9142 13.9142 16.25 13.5 16.25H10C9.58579 16.25 9.25 15.9142 9.25 15.5Z" fill="#3A3A3A"/>
<path fill-rule="evenodd" clip-rule="evenodd" d="M21 5.14001C21.4142 5.14001 21.75 5.4758 21.75 5.89001V15.11C21.75 16.8597 21.5489 18.2565 20.6428 19.1541C19.7393 20.0491 18.3333 20.25 16.56 20.25H6.97998C6.56577 20.25 6.22998 19.9142 6.22998 19.5C6.22998 19.0858 6.56577 18.75 6.97998 18.75H16.56C18.3467 18.75 19.1607 18.5109 19.5872 18.0884C20.011 17.6685 20.25 16.8703 20.25 15.11V5.89001C20.25 5.4758 20.5858 5.14001 21 5.14001Z" fill="#3A3A3A"/>
<path fill-rule="evenodd" clip-rule="evenodd" d="M1.36143 2.84543C2.26591 1.95113 3.671 1.75 5.44 1.75H16.56C17.5914 1.75 18.4761 1.81983 19.1991 2.02974C19.5969 2.14523 19.8257 2.56132 19.7103 2.95911C19.5948 3.3569 19.1787 3.58575 18.7809 3.47026C18.2639 3.32017 17.5486 3.25 16.56 3.25H5.44C3.659 3.25 2.84409 3.48887 2.41607 3.91207C1.99101 4.33235 1.75 5.13117 1.75 6.89V15.1C1.75 16.2505 1.84951 17.0068 2.05543 17.5167C2.24003 17.9738 2.51421 18.2468 2.98489 18.4322C3.37028 18.584 3.55963 19.0195 3.40781 19.4049C3.25599 19.7903 2.82049 19.9796 2.43511 19.8278C1.58579 19.4932 1.00497 18.9212 0.664569 18.0783C0.345489 17.2882 0.25 16.2895 0.25 15.1V6.89C0.25 5.13883 0.453993 3.74265 1.36143 2.84543Z" fill="#3A3A3A"/>
<path fill-rule="evenodd" clip-rule="evenodd" d="M21.5303 0.46967C21.8232 0.762563 21.8232 1.23744 21.5303 1.53033L1.53033 21.5303C1.23744 21.8232 0.762563 21.8232 0.46967 21.5303C0.176777 21.2374 0.176777 20.7626 0.46967 20.4697L20.4697 0.46967C20.7626 0.176777 21.2374 0.176777 21.5303 0.46967Z" fill="#3A3A3A"/>
</svg>
