<svg width="22" height="20" viewBox="0 0 22 20" fill="none" xmlns="http://www.w3.org/2000/svg">
<path fill-rule="evenodd" clip-rule="evenodd" d="M0.25 6.5C0.25 6.08579 0.585786 5.75 1 5.75H12.5C12.9142 5.75 13.25 6.08579 13.25 6.5C13.25 6.91421 12.9142 7.25 12.5 7.25H1C0.585786 7.25 0.25 6.91421 0.25 6.5Z" fill="#3A3A3A"/>
<path fill-rule="evenodd" clip-rule="evenodd" d="M4.25 14.5C4.25 14.0858 4.58579 13.75 5 13.75H7C7.41421 13.75 7.75 14.0858 7.75 14.5C7.75 14.9142 7.41421 15.25 7 15.25H5C4.58579 15.25 4.25 14.9142 4.25 14.5Z" fill="#3A3A3A"/>
<path fill-rule="evenodd" clip-rule="evenodd" d="M8.75 14.5C8.75 14.0858 9.08579 13.75 9.5 13.75H13.5C13.9142 13.75 14.25 14.0858 14.25 14.5C14.25 14.9142 13.9142 15.25 13.5 15.25H9.5C9.08579 15.25 8.75 14.9142 8.75 14.5Z" fill="#3A3A3A"/>
<path fill-rule="evenodd" clip-rule="evenodd" d="M2.41607 2.91207C1.99101 3.33235 1.75 4.13117 1.75 5.89V14.11C1.75 15.8688 1.99101 16.6676 2.41607 17.0879C2.84409 17.5111 3.659 17.75 5.44 17.75H16.56C18.341 17.75 19.1559 17.5111 19.5839 17.0879C20.009 16.6676 20.25 15.8688 20.25 14.11V10.03C20.25 9.61579 20.5858 9.28 21 9.28C21.4142 9.28 21.75 9.61579 21.75 10.03V14.11C21.75 15.8612 21.546 17.2574 20.6386 18.1546C19.7341 19.0489 18.329 19.25 16.56 19.25H5.44C3.671 19.25 2.26591 19.0489 1.36143 18.1546C0.453993 17.2574 0.25 15.8612 0.25 14.11V5.89C0.25 4.13883 0.453993 2.74265 1.36143 1.84543C2.26591 0.951125 3.671 0.75 5.44 0.75H12.5C12.9142 0.75 13.25 1.08579 13.25 1.5C13.25 1.91421 12.9142 2.25 12.5 2.25H5.44C3.659 2.25 2.84409 2.48887 2.41607 2.91207Z" fill="#3A3A3A"/>
<path fill-rule="evenodd" clip-rule="evenodd" d="M20.7189 1.77924C21.0118 2.07213 21.0118 2.54701 20.7189 2.8399L16.8389 6.7199C16.546 7.01279 16.0712 7.01279 15.7783 6.7199C15.4854 6.42701 15.4854 5.95213 15.7783 5.65924L19.6583 1.77924C19.9512 1.48635 20.426 1.48635 20.7189 1.77924Z" fill="#3A3A3A"/>
<path fill-rule="evenodd" clip-rule="evenodd" d="M15.7783 1.77924C16.0712 1.48635 16.546 1.48635 16.8389 1.77924L20.7189 5.65924C21.0118 5.95213 21.0118 6.42701 20.7189 6.7199C20.426 7.01279 19.9512 7.01279 19.6583 6.7199L15.7783 2.8399C15.4854 2.54701 15.4854 2.07213 15.7783 1.77924Z" fill="#3A3A3A"/>
</svg>
