<svg width="24" height="24" viewBox="0 0 24 24" fill="none" xmlns="http://www.w3.org/2000/svg">
<path d="M16.2996 15.3001C15.2996 16.6001 13.6996 17.5001 11.9996 17.5001C8.99961 17.5001 6.59961 15.1001 6.59961 12.1001C6.59961 9.1001 8.99961 6.6001 11.9996 6.6001C13.1996 6.6001 14.3996 7.0001 15.2996 7.7001" stroke="#3A3A3A" stroke-width="1.5" stroke-miterlimit="10" stroke-linecap="round" stroke-linejoin="round"/>
<path d="M17.3992 11.4C18.062 11.4 18.5992 10.8627 18.5992 10.2C18.5992 9.53726 18.062 9 17.3992 9C16.7365 9 16.1992 9.53726 16.1992 10.2C16.1992 10.8627 16.7365 11.4 17.3992 11.4Z" stroke="#3A3A3A" stroke-width="1.5" stroke-miterlimit="10" stroke-linecap="round" stroke-linejoin="round"/>
<path d="M12 22C17.5228 22 22 17.5228 22 12C22 6.47715 17.5228 2 12 2C6.47715 2 2 6.47715 2 12C2 17.5228 6.47715 22 12 22Z" stroke="#3A3A3A" stroke-width="1.5" stroke-miterlimit="10" stroke-linecap="round" stroke-linejoin="round"/>
</svg>
