<svg width="22" height="22" viewBox="0 0 22 22" fill="none" xmlns="http://www.w3.org/2000/svg">
<path fill-rule="evenodd" clip-rule="evenodd" d="M4.57007 11.2902C4.57007 10.246 5.41587 9.40027 6.46005 9.40027H9.11005V10.1503H9.86005V16.4102C9.86005 16.8244 9.52426 17.1602 9.11005 17.1602H5.32007C4.90585 17.1602 4.57007 16.8244 4.57007 16.4102V11.2902ZM8.36005 10.9003H6.46005C6.24424 10.9003 6.07007 11.0745 6.07007 11.2902V15.6602H8.36005V10.9003Z" fill="#3A3A3A"/>
<path fill-rule="evenodd" clip-rule="evenodd" d="M8.35132 6.73999C8.35132 5.6958 9.19706 4.84998 10.2413 4.84998H11.7613C12.8141 4.84998 13.6413 5.70443 13.6413 6.73999V16.4C13.6413 16.8142 13.3055 17.15 12.8913 17.15H9.10132C8.6871 17.15 8.35132 16.8142 8.35132 16.4V6.73999ZM10.2413 6.34998C10.0255 6.34998 9.85132 6.52418 9.85132 6.73999V15.65H12.1413V6.73999C12.1413 6.51555 11.9685 6.34998 11.7613 6.34998H10.2413Z" fill="#3A3A3A"/>
<path fill-rule="evenodd" clip-rule="evenodd" d="M12.1482 11.85C12.1482 11.4358 12.484 11.1 12.8982 11.1H15.5482C16.5889 11.1 17.4218 11.9497 17.4381 12.9781L17.4383 12.99H17.4382V16.4C17.4382 16.8142 17.1024 17.15 16.6882 17.15H12.8982C12.484 17.15 12.1482 16.8142 12.1482 16.4V11.85ZM13.6482 12.6V15.65H15.9382V12.9974C15.9322 12.768 15.7462 12.6 15.5482 12.6H13.6482Z" fill="#3A3A3A"/>
<path fill-rule="evenodd" clip-rule="evenodd" d="M2.09467 2.09467C3.42914 0.760201 5.42603 0.25 8 0.25H14C16.574 0.25 18.5709 0.760201 19.9053 2.09467C21.2398 3.42914 21.75 5.42603 21.75 8V14C21.75 16.574 21.2398 18.5709 19.9053 19.9053C18.5709 21.2398 16.574 21.75 14 21.75H8C5.42603 21.75 3.42914 21.2398 2.09467 19.9053C0.760201 18.5709 0.25 16.574 0.25 14V8C0.25 5.42603 0.760201 3.42914 2.09467 2.09467ZM3.15533 3.15533C2.2398 4.07086 1.75 5.57397 1.75 8V14C1.75 16.426 2.2398 17.9291 3.15533 18.8447C4.07086 19.7602 5.57397 20.25 8 20.25H14C16.426 20.25 17.9291 19.7602 18.8447 18.8447C19.7602 17.9291 20.25 16.426 20.25 14V8C20.25 5.57397 19.7602 4.07086 18.8447 3.15533C17.9291 2.2398 16.426 1.75 14 1.75H8C5.57397 1.75 4.07086 2.2398 3.15533 3.15533Z" fill="#3A3A3A"/>
</svg>
