<svg width="24" height="24" viewBox="0 0 24 24" fill="none" xmlns="http://www.w3.org/2000/svg">
<path d="M14.3008 10.1C14.6008 11.2 14.1008 12.2 13.3008 12.7V14.7C13.3008 15.4 12.7008 15.9 12.1008 15.9C11.4008 15.9 10.9008 15.3 10.9008 14.7V12.7C10.2008 12.3 9.80078 11.5 9.80078 10.7C9.80078 9.20002 11.2008 8.00002 12.8008 8.40002C13.4008 8.70002 14.1008 9.30002 14.3008 10.1Z" stroke="#3A3A3A" stroke-width="1.5" stroke-miterlimit="10"/>
<path d="M21.6 9C20.3 5 16.5 2 12 2C6.5 2 2 6.5 2 12C2 17.5 6.5 22 12 22C16.5 22 20.3 19.1 21.5 15" stroke="#3A3A3A" stroke-width="1.5" stroke-miterlimit="10" stroke-linecap="round" stroke-linejoin="round"/>
</svg>
