<svg width="24" height="24" viewBox="0 0 24 24" fill="none" xmlns="http://www.w3.org/2000/svg">
<path d="M12.9704 17.61L10.8604 15.5" stroke="#3A3A3A" stroke-width="1.5" stroke-miterlimit="10" stroke-linecap="round" stroke-linejoin="round"/>
<path d="M12.9501 15.52L10.8301 17.64" stroke="#3A3A3A" stroke-width="1.5" stroke-miterlimit="10" stroke-linecap="round" stroke-linejoin="round"/>
<path d="M5.54027 11.1196C0.860273 11.4496 0.860273 18.2596 5.54027 18.5896H7.46027" stroke="#3A3A3A" stroke-width="1.5" stroke-miterlimit="10" stroke-linecap="round" stroke-linejoin="round"/>
<path d="M5.59003 11.1197C2.38003 2.18965 15.92 -1.38034 17.47 7.99966C21.8 8.54966 23.55 14.3197 20.27 17.1897C19.27 18.0997 17.98 18.5997 16.63 18.5897H16.54" stroke="#3A3A3A" stroke-width="1.5" stroke-miterlimit="10" stroke-linecap="round" stroke-linejoin="round"/>
<path d="M17 16.53C17 17.27 16.84 17.97 16.54 18.59C16.46 18.77 16.37 18.94 16.27 19.1C15.41 20.55 13.82 21.53 12 21.53C10.18 21.53 8.59 20.55 7.73 19.1C7.63 18.94 7.54 18.77 7.46 18.59C7.16 17.97 7 17.27 7 16.53C7 13.77 9.24 11.53 12 11.53C14.76 11.53 17 13.77 17 16.53Z" stroke="#3A3A3A" stroke-width="1.5" stroke-miterlimit="10" stroke-linecap="round" stroke-linejoin="round"/>
</svg>
