<svg width="24" height="24" viewBox="0 0 24 24" fill="none" xmlns="http://www.w3.org/2000/svg">
<path d="M20.2695 18.6797C19.2795 19.5897 17.9795 20.0897 16.6295 20.0797H5.53945C0.869454 19.7397 0.859454 12.9397 5.53945 12.5997H5.58945C2.88945 5.05966 12.1195 1.33966 15.9995 6.02966V6.03966C16.6995 6.89966 17.2295 8.03966 17.4695 9.48966C18.7995 9.65966 19.8795 10.3097 20.6495 11.2297C22.3995 13.2997 22.5495 16.6797 20.2695 18.6797Z" stroke="#3A3A3A" stroke-width="1.5" stroke-miterlimit="10" stroke-linecap="round" stroke-linejoin="round"/>
<path d="M7.25984 13.01C6.73984 12.75 6.16984 12.61 5.58984 12.6" stroke="#3A3A3A" stroke-width="1.5" stroke-miterlimit="10" stroke-linecap="round" stroke-linejoin="round"/>
<path d="M15.8496 9.91977C16.3696 9.65977 16.9396 9.51977 17.5196 9.50977" stroke="#3A3A3A" stroke-width="1.5" stroke-miterlimit="10" stroke-linecap="round" stroke-linejoin="round"/>
<path d="M21.97 8.5C21.97 9.6 21.46 10.59 20.65 11.23C19.88 10.31 18.8 9.66 17.47 9.49C17.23 8.04 16.7 6.9 16 6.04V6.03C16.63 5.39 17.51 5 18.47 5C20.4 5 21.97 6.57 21.97 8.5Z" stroke="#3A3A3A" stroke-width="1.5" stroke-miterlimit="10" stroke-linecap="round" stroke-linejoin="round"/>
</svg>
