<svg width="22" height="22" viewBox="0 0 22 22" fill="none" xmlns="http://www.w3.org/2000/svg">
<path fill-rule="evenodd" clip-rule="evenodd" d="M8.16 6.95C7.97061 6.95 7.75 7.12685 7.75 7.42C7.75 7.67196 7.80322 7.73846 7.80864 7.74524C7.80873 7.74536 7.80858 7.74516 7.80864 7.74524C7.82018 7.75987 7.86385 7.80683 8.04919 7.8726L10.4551 8.71468C10.7443 8.81926 11.0965 8.98832 11.3621 9.3281C11.6349 9.67709 11.74 10.1059 11.74 10.58C11.74 11.6268 10.9206 12.55 9.83 12.55H8.33C7.15054 12.55 6.25 11.5481 6.25 10.4C6.25 9.98578 6.58579 9.65 7 9.65C7.41421 9.65 7.75 9.98578 7.75 10.4C7.75 10.7919 8.04946 11.05 8.33 11.05H9.83C10.0194 11.05 10.24 10.8731 10.24 10.58C10.24 10.3276 10.1866 10.2598 10.1806 10.2522C10.1688 10.2371 10.1263 10.1913 9.94826 10.1265L7.54961 9.28697C7.25596 9.18297 6.89956 9.0148 6.63113 8.67446C6.355 8.32437 6.25 7.89385 6.25 7.42C6.25 6.37314 7.06939 5.45 8.16 5.45H9.67014C10.8391 5.46579 11.75 6.43875 11.75 7.6C11.75 8.01421 11.4142 8.35 11 8.35C10.5858 8.35 10.25 8.01421 10.25 7.6C10.25 7.22287 9.96336 6.95642 9.65386 6.95H8.16Z" fill="#3A3A3A"/>
<path fill-rule="evenodd" clip-rule="evenodd" d="M9 11.1C9.41421 11.1 9.75 11.4358 9.75 11.85V12.59C9.75 13.0042 9.41421 13.34 9 13.34C8.58579 13.34 8.25 13.0042 8.25 12.59V11.85C8.25 11.4358 8.58579 11.1 9 11.1Z" fill="#3A3A3A"/>
<path fill-rule="evenodd" clip-rule="evenodd" d="M9 4.66C9.41421 4.66 9.75 4.99579 9.75 5.41V6.19C9.75 6.60422 9.41421 6.94 9 6.94C8.58579 6.94 8.25 6.60422 8.25 6.19V5.41C8.25 4.99579 8.58579 4.66 9 4.66Z" fill="#3A3A3A"/>
<path fill-rule="evenodd" clip-rule="evenodd" d="M8.99 1.75C4.99146 1.75 1.75 4.99146 1.75 8.99C1.75 12.9885 4.99146 16.23 8.99 16.23C12.9885 16.23 16.23 12.9885 16.23 8.99C16.23 4.99146 12.9885 1.75 8.99 1.75ZM0.25 8.99C0.25 4.16303 4.16303 0.25 8.99 0.25C13.817 0.25 17.73 4.16303 17.73 8.99C17.73 13.817 13.817 17.73 8.99 17.73C4.16303 17.73 0.25 13.817 0.25 8.99Z" fill="#3A3A3A"/>
<path fill-rule="evenodd" clip-rule="evenodd" d="M18.3014 11.5618C18.5434 11.2256 19.0121 11.1493 19.3483 11.3913C20.7844 12.4254 21.73 14.1172 21.73 16.03C21.73 19.1742 19.1743 21.73 16.03 21.73C14.0948 21.73 12.4016 20.772 11.3681 19.3136C11.1286 18.9757 11.2084 18.5076 11.5464 18.2681C11.8844 18.0286 12.3525 18.1084 12.592 18.4463C13.3585 19.528 14.6053 20.23 16.03 20.23C18.3458 20.23 20.23 18.3458 20.23 16.03C20.23 14.6228 19.5357 13.3746 18.4718 12.6086C18.1357 12.3666 18.0594 11.8979 18.3014 11.5618Z" fill="#3A3A3A"/>
</svg>
