<svg width="24" height="24" viewBox="0 0 24 24" fill="none" xmlns="http://www.w3.org/2000/svg">
<path d="M12 22C6.48 22 2 17.52 2 12C2 6.48 6.48 2 12 2C17.52 2 22 6.48 22 12C22 17.52 17.52 22 12 22Z" stroke="#3A3A3A" stroke-width="1.5" stroke-linecap="round" stroke-linejoin="round"/>
<path d="M10.8801 14.15C10.3701 14.59 9.71011 14.87 8.99011 14.87C7.41011 14.87 6.12012 13.59 6.12012 12C6.12012 10.41 7.40011 9.13 8.99011 9.13C9.72011 9.13 10.3801 9.39998 10.8801 9.84998" stroke="#3A3A3A" stroke-width="1.5" stroke-linecap="round" stroke-linejoin="round"/>
<path d="M17.8801 14.15C17.3701 14.59 16.7101 14.87 15.9901 14.87C14.4101 14.87 13.1201 13.59 13.1201 12C13.1201 10.41 14.4001 9.13 15.9901 9.13C16.7201 9.13 17.3801 9.39998 17.8801 9.84998" stroke="#3A3A3A" stroke-width="1.5" stroke-linecap="round" stroke-linejoin="round"/>
</svg>
