<svg width="24" height="24" viewBox="0 0 24 24" fill="none" xmlns="http://www.w3.org/2000/svg">
<path d="M16.6992 18.98H7.29922C6.87922 18.98 6.40922 18.65 6.26922 18.25L2.12922 6.66999C1.53922 5.00999 2.22922 4.49999 3.64922 5.51999L7.54922 8.30999C8.19922 8.75999 8.93922 8.52999 9.21922 7.79999L10.9792 3.10999C11.5392 1.60999 12.4692 1.60999 13.0292 3.10999L14.7892 7.79999C15.0692 8.52999 15.8092 8.75999 16.4492 8.30999L20.1092 5.69999C21.6692 4.57999 22.4192 5.14999 21.7792 6.95999L17.7392 18.27C17.5892 18.65 17.1192 18.98 16.6992 18.98Z" stroke="#3A3A3A" stroke-width="1.5" stroke-linecap="round" stroke-linejoin="round"/>
<path d="M6.5 22H17.5" stroke="#3A3A3A" stroke-width="1.5" stroke-linecap="round" stroke-linejoin="round"/>
<path d="M9.5 14H14.5" stroke="#3A3A3A" stroke-width="1.5" stroke-linecap="round" stroke-linejoin="round"/>
</svg>
