<svg width="24" height="24" viewBox="0 0 24 24" fill="none" xmlns="http://www.w3.org/2000/svg">
<path d="M11.9992 18.0999C11.2992 18.0999 10.6992 17.4999 10.6992 16.7999V7.1999C10.6992 6.4999 11.2992 5.8999 11.9992 5.8999C12.6992 5.8999 13.2992 6.4999 13.2992 7.1999V16.8999C13.2992 17.5999 12.6992 18.0999 11.9992 18.0999Z" stroke="#3A3A3A" stroke-width="1.5" stroke-miterlimit="10"/>
<path d="M6.69996 8.90001C6.99996 8.30001 7.79996 8.10001 8.49996 8.40001L16.9 13.2C17.5 13.6 17.7 14.4 17.4 15C17 15.6 16.2 15.8 15.6 15.5L7.19996 10.7C6.49996 10.4 6.29996 9.60001 6.69996 8.90001Z" stroke="#3A3A3A" stroke-width="1.5" stroke-miterlimit="10"/>
<path d="M6.69971 15.1C6.29971 14.5 6.59971 13.7 7.19971 13.3L15.5997 8.5C16.1997 8.1 16.9997 8.4 17.3997 9C17.7997 9.6 17.4997 10.4 16.8997 10.8L8.49971 15.6C7.79971 15.9 6.99971 15.7 6.69971 15.1Z" stroke="#3A3A3A" stroke-width="1.5" stroke-miterlimit="10"/>
<path d="M12 22C17.5228 22 22 17.5228 22 12C22 6.47715 17.5228 2 12 2C6.47715 2 2 6.47715 2 12C2 17.5228 6.47715 22 12 22Z" stroke="#3A3A3A" stroke-width="1.5" stroke-miterlimit="10"/>
</svg>
