<svg width="24" height="24" viewBox="0 0 24 24" fill="none" xmlns="http://www.w3.org/2000/svg">
<path d="M15.7199 9.69002C17.7799 11.75 17.7799 15.08 15.7199 17.13C13.6599 19.19 10.3299 19.19 8.27986 17.13C6.21986 15.07 6.21986 11.74 8.27986 9.69002C10.3299 7.63002 13.6699 7.63002 15.7199 9.69002Z" stroke="#3A3A3A" stroke-width="1.5093" stroke-linecap="round" stroke-linejoin="round"/>
<path d="M11.9999 13.41L10.4099 15" stroke="#3A3A3A" stroke-width="1.5093" stroke-linecap="round" stroke-linejoin="round"/>
<path d="M19.0701 6.34003C19.2201 6.49003 19.2201 6.74003 19.0701 6.90003C18.9201 7.05003 18.6701 7.05003 18.5101 6.90003C18.3501 6.75003 18.3601 6.50003 18.5101 6.34003C18.6601 6.18003 18.9201 6.18003 19.0701 6.34003Z" stroke="#3A3A3A" stroke-miterlimit="10"/>
<path d="M19.0701 6.34003C19.2201 6.49003 19.2201 6.74003 19.0701 6.90003C18.9201 7.05003 18.6701 7.05003 18.5101 6.90003C18.3501 6.75003 18.3601 6.50003 18.5101 6.34003C18.6601 6.18003 18.9201 6.18003 19.0701 6.34003Z" stroke="#3A3A3A" stroke-width="1.5" stroke-linecap="round" stroke-linejoin="round"/>
<path d="M5.48988 19.92C5.63988 20.07 5.63988 20.32 5.48988 20.48C5.33988 20.64 5.08988 20.63 4.92988 20.48C4.77988 20.33 4.77988 20.08 4.92988 19.92C5.07988 19.76 5.33988 19.76 5.48988 19.92Z" stroke="#3A3A3A" stroke-miterlimit="10"/>
<path d="M5.48988 19.92C5.63988 20.07 5.63988 20.32 5.48988 20.48C5.33988 20.64 5.08988 20.63 4.92988 20.48C4.77988 20.33 4.77988 20.08 4.92988 19.92C5.07988 19.76 5.33988 19.76 5.48988 19.92Z" stroke="#3A3A3A" stroke-width="1.5" stroke-linecap="round" stroke-linejoin="round"/>
<path d="M21.8799 13.1298C22.0299 13.2798 22.0299 13.5298 21.8799 13.6898C21.7299 13.8398 21.4799 13.8398 21.3199 13.6898C21.1599 13.5398 21.1699 13.2898 21.3199 13.1298C21.4699 12.9698 21.7299 12.9698 21.8799 13.1298Z" stroke="#3A3A3A" stroke-miterlimit="10"/>
<path d="M21.8799 13.1298C22.0299 13.2798 22.0299 13.5298 21.8799 13.6898C21.7299 13.8398 21.4799 13.8398 21.3199 13.6898C21.1599 13.5398 21.1699 13.2898 21.3199 13.1298C21.4699 12.9698 21.7299 12.9698 21.8799 13.1298Z" stroke="#3A3A3A" stroke-width="1.5" stroke-linecap="round" stroke-linejoin="round"/>
<path d="M2.67009 13.1298C2.82009 13.2798 2.82009 13.5298 2.67009 13.6898C2.52009 13.8498 2.27006 13.8398 2.11006 13.6898C1.96006 13.5398 1.96006 13.2898 2.11006 13.1298C2.27006 12.9698 2.52009 12.9698 2.67009 13.1298Z" stroke="#3A3A3A" stroke-miterlimit="10"/>
<path d="M2.67009 13.1298C2.82009 13.2798 2.82009 13.5298 2.67009 13.6898C2.52009 13.8498 2.27006 13.8398 2.11006 13.6898C1.96006 13.5398 1.96006 13.2898 2.11006 13.1298C2.27006 12.9698 2.52009 12.9698 2.67009 13.1298Z" stroke="#3A3A3A" stroke-width="1.5" stroke-linecap="round" stroke-linejoin="round"/>
<path d="M19.0701 19.92C19.2201 20.07 19.2201 20.32 19.0701 20.48C18.9201 20.63 18.6701 20.63 18.5101 20.48C18.3501 20.33 18.3601 20.08 18.5101 19.92C18.6701 19.76 18.9201 19.76 19.0701 19.92Z" stroke="#3A3A3A" stroke-miterlimit="10"/>
<path d="M19.0701 19.92C19.2201 20.07 19.2201 20.32 19.0701 20.48C18.9201 20.63 18.6701 20.63 18.5101 20.48C18.3501 20.33 18.3601 20.08 18.5101 19.92C18.6701 19.76 18.9201 19.76 19.0701 19.92Z" stroke="#3A3A3A" stroke-width="1.5" stroke-linecap="round" stroke-linejoin="round"/>
<path d="M5.48988 6.34003C5.63988 6.49003 5.63988 6.74003 5.48988 6.90003C5.33988 7.06003 5.08988 7.05003 4.92988 6.90003C4.77988 6.75003 4.77988 6.50003 4.92988 6.34003C5.07988 6.18003 5.33988 6.18003 5.48988 6.34003Z" stroke="#3A3A3A" stroke-miterlimit="10"/>
<path d="M5.48988 6.34003C5.63988 6.49003 5.63988 6.74003 5.48988 6.90003C5.33988 7.06003 5.08988 7.05003 4.92988 6.90003C4.77988 6.75003 4.77988 6.50003 4.92988 6.34003C5.07988 6.18003 5.33988 6.18003 5.48988 6.34003Z" stroke="#3A3A3A" stroke-width="1.5" stroke-linecap="round" stroke-linejoin="round"/>
<path d="M12.28 3.52003C12.43 3.67003 12.43 3.92003 12.28 4.08003C12.13 4.24003 11.88 4.23003 11.72 4.08003C11.56 3.93003 11.57 3.68003 11.72 3.52003C11.87 3.36003 12.13 3.37003 12.28 3.52003Z" stroke="#3A3A3A" stroke-miterlimit="10"/>
<path d="M12.28 3.52003C12.43 3.67003 12.43 3.92003 12.28 4.08003C12.13 4.24003 11.88 4.23003 11.72 4.08003C11.56 3.93003 11.57 3.68003 11.72 3.52003C11.87 3.36003 12.13 3.37003 12.28 3.52003Z" stroke="#3A3A3A" stroke-width="1.5" stroke-linecap="round" stroke-linejoin="round"/>
</svg>
