<svg width="22" height="22" viewBox="0 0 22 22" fill="none" xmlns="http://www.w3.org/2000/svg">
<path fill-rule="evenodd" clip-rule="evenodd" d="M11 1.75C5.89137 1.75 1.75 5.89137 1.75 11C1.75 16.1086 5.89137 20.25 11 20.25C16.1086 20.25 20.25 16.1086 20.25 11C20.25 5.89137 16.1086 1.75 11 1.75ZM0.25 11C0.25 5.06294 5.06294 0.25 11 0.25C16.9371 0.25 21.75 5.06294 21.75 11C21.75 16.9371 16.9371 21.75 11 21.75C5.06294 21.75 0.25 16.9371 0.25 11Z" fill="#3A3A3A"/>
<path fill-rule="evenodd" clip-rule="evenodd" d="M14.5303 7.46967C14.8232 7.76256 14.8232 8.23744 14.5303 8.53033L8.53033 14.5303C8.23744 14.8232 7.76256 14.8232 7.46967 14.5303C7.17678 14.2374 7.17678 13.7626 7.46967 13.4697L13.4697 7.46967C13.7626 7.17678 14.2374 7.17678 14.5303 7.46967Z" fill="#3A3A3A"/>
<path fill-rule="evenodd" clip-rule="evenodd" d="M12.4946 13.5C12.4946 12.9477 12.9423 12.5 13.4946 12.5H13.5036C14.0559 12.5 14.5036 12.9477 14.5036 13.5C14.5036 14.0523 14.0559 14.5 13.5036 14.5H13.4946C12.9423 14.5 12.4946 14.0523 12.4946 13.5Z" fill="#3A3A3A"/>
<path fill-rule="evenodd" clip-rule="evenodd" d="M7.49463 8.5C7.49463 7.94772 7.94234 7.5 8.49463 7.5H8.50361C9.0559 7.5 9.50361 7.94772 9.50361 8.5C9.50361 9.05228 9.0559 9.5 8.50361 9.5H8.49463C7.94234 9.5 7.49463 9.05228 7.49463 8.5Z" fill="#3A3A3A"/>
</svg>
