<svg width="24" height="24" viewBox="0 0 24 24" fill="none" xmlns="http://www.w3.org/2000/svg">
<path d="M14.5512 2H9.45117C7.65117 2 7.25118 2.90001 7.02118 4.01001L6.20117 7.92999H17.8012L16.9812 4.01001C16.7512 2.90001 16.3512 2 14.5512 2Z" stroke="#3A3A3A" stroke-width="1.5" stroke-linecap="round" stroke-linejoin="round"/>
<path d="M19.2405 14.32C19.3205 15.17 18.6405 15.9 17.7705 15.9H16.4105C15.6305 15.9 15.5205 15.57 15.3805 15.15L15.2305 14.72C15.0305 14.13 14.9005 13.73 13.8505 13.73H10.1405C9.10054 13.73 8.94054 14.18 8.76054 14.72L8.61054 15.15C8.47054 15.56 8.36054 15.9 7.58054 15.9H6.22054C5.35054 15.9 4.67054 15.17 4.75054 14.32L5.16055 9.90002C5.26055 8.81002 5.47054 7.91998 7.37054 7.91998H16.6205C18.5205 7.91998 18.7305 8.81002 18.8305 9.90002L19.2405 14.32Z" stroke="#3A3A3A" stroke-width="1.5" stroke-linecap="round" stroke-linejoin="round"/>
<path d="M6.2007 5.75H5.4707" stroke="#3A3A3A" stroke-width="1.5" stroke-linecap="round" stroke-linejoin="round"/>
<path d="M18.5308 5.75H17.8008" stroke="#3A3A3A" stroke-width="1.5" stroke-linecap="round" stroke-linejoin="round"/>
<path d="M7.65039 10.83H9.8204" stroke="#3A3A3A" stroke-width="1.5" stroke-linecap="round" stroke-linejoin="round"/>
<path d="M14.1797 10.8301H16.3497" stroke="#3A3A3A" stroke-width="1.5" stroke-linecap="round" stroke-linejoin="round"/>
<path d="M12 17V18" stroke="#3A3A3A" stroke-width="1.5" stroke-linecap="round" stroke-linejoin="round"/>
<path d="M12 21V22" stroke="#3A3A3A" stroke-width="1.5" stroke-linecap="round" stroke-linejoin="round"/>
<path d="M3 18L2 22" stroke="#3A3A3A" stroke-width="1.5" stroke-linecap="round" stroke-linejoin="round"/>
<path d="M21 18L22 22" stroke="#3A3A3A" stroke-width="1.5" stroke-linecap="round" stroke-linejoin="round"/>
</svg>
