<svg width="24" height="24" viewBox="0 0 24 24" fill="none" xmlns="http://www.w3.org/2000/svg">
<path d="M8.50014 5.10001L11.2001 7.80001C11.6001 8.20001 12.4001 8.20001 12.8001 7.80001L15.5001 5.10001C16.2001 4.40001 15.7001 3.10001 14.7001 3.10001H9.30014C8.30014 3.20001 7.80014 4.40001 8.50014 5.10001Z" stroke="#3A3A3A" stroke-width="1.5" stroke-miterlimit="10" stroke-linecap="round" stroke-linejoin="round"/>
<path d="M8.50014 18.9L11.2001 16.2C11.6001 15.8 12.4001 15.8 12.8001 16.2L15.5001 18.9C16.2001 19.6 15.7001 20.9 14.7001 20.9H9.30014C8.30014 20.8 7.80014 19.6 8.50014 18.9Z" stroke="#3A3A3A" stroke-width="1.5" stroke-miterlimit="10" stroke-linecap="round" stroke-linejoin="round"/>
<path d="M2.19961 11.5001L4.39961 8.00012C4.69961 7.40012 5.49961 7.30012 5.99961 7.80012L9.49961 11.3001C9.89961 11.7001 9.89961 12.3001 9.49961 12.7001L5.99961 16.2001C5.49961 16.7001 4.79961 16.6001 4.39961 16.0001L2.19961 12.5001C1.89961 12.2001 1.89961 11.8001 2.19961 11.5001Z" stroke="#3A3A3A" stroke-width="1.5" stroke-miterlimit="10" stroke-linecap="round" stroke-linejoin="round"/>
<path d="M21.7992 11.5L19.5992 8.00004C19.2992 7.50004 18.4992 7.40004 17.9992 7.80004L14.4992 11.3C14.0992 11.7 14.0992 12.3 14.4992 12.7L17.9992 16.2C18.4992 16.7 19.1992 16.6 19.5992 16L21.7992 12.5C22.0992 12.2 22.0992 11.8 21.7992 11.5Z" stroke="#3A3A3A" stroke-width="1.5" stroke-miterlimit="10" stroke-linecap="round" stroke-linejoin="round"/>
</svg>
