<svg width="24" height="23" viewBox="0 0 24 23" fill="none" xmlns="http://www.w3.org/2000/svg">
<path fill-rule="evenodd" clip-rule="evenodd" d="M6.25999 7.50013C4.60421 7.50013 3.25 8.85435 3.25 10.5101V13.5859C3.79266 13.3696 4.38335 13.2501 5 13.2501C7.62421 13.2501 9.75 15.3759 9.75 18.0001C9.75 18.8078 9.54483 19.5788 9.17688 20.2501H17.74C19.3958 20.2501 20.75 18.8959 20.75 17.2401V16.8001H19.6C18.1905 16.8001 16.8223 15.7694 16.693 14.2468C16.6122 13.3846 16.9405 12.5792 17.5093 12.0201C18.0209 11.4983 18.7224 11.2001 19.48 11.2001H20.75V10.5101C20.75 8.85435 19.3958 7.50013 17.74 7.50013H6.25999ZM1.75 10.5101C1.75 8.02593 3.77578 6.00013 6.25999 6.00013H17.74C20.2242 6.00013 22.25 8.02593 22.25 10.5101V11.9501C22.25 12.3644 21.9142 12.7001 21.5 12.7001H19.48C19.1209 12.7001 18.8052 12.8394 18.5773 13.0733L18.5639 13.0868C18.2978 13.3465 18.1492 13.7163 18.1866 14.109L18.1875 14.1178L18.1874 14.1178C18.2403 14.7528 18.8509 15.3001 19.6 15.3001H21.5C21.9142 15.3001 22.25 15.6359 22.25 16.0501V17.2401C22.25 19.7243 20.2242 21.7501 17.74 21.7501H7.63C7.31467 21.7501 7.03302 21.5529 6.92521 21.2566C6.81739 20.9602 6.90644 20.6281 7.14805 20.4255C7.39099 20.2217 7.60515 19.9685 7.77216 19.6822L7.78162 19.6665C8.07948 19.1834 8.25 18.6095 8.25 18.0001C8.25 16.2043 6.79579 14.7501 5 14.7501C4.23847 14.7501 3.53157 15.017 2.96748 15.4666C2.74223 15.6462 2.43403 15.6808 2.17451 15.5558C1.91499 15.4308 1.75 15.1682 1.75 14.8801V10.5101Z" fill="#3A3A3A"/>
<path fill-rule="evenodd" clip-rule="evenodd" d="M14.1 2.95016C14.1 2.14264 13.293 1.58825 12.5458 1.87144L4.60542 4.87159C3.78865 5.1808 3.25 5.96061 3.25 6.84017V11.4101C3.25 11.8243 2.91421 12.1601 2.5 12.1601C2.08579 12.1601 1.75 11.8243 1.75 11.4101V6.84017C1.75 5.33985 2.67153 3.99954 4.07458 3.46866L12.0142 0.468815C13.747 -0.187995 15.6 1.09768 15.6 2.95016V6.75014C15.6 7.16436 15.2642 7.50014 14.85 7.50014C14.4358 7.50014 14.1 7.16436 14.1 6.75014V2.95016Z" fill="#3A3A3A"/>
<path fill-rule="evenodd" clip-rule="evenodd" d="M19.4788 12.7003C19.1198 12.7003 18.804 12.8395 18.5762 13.0735L18.5627 13.087C18.2967 13.3467 18.1481 13.7165 18.1855 14.1092L18.1863 14.118L18.1863 14.118C18.2392 14.753 18.8497 15.3003 19.5988 15.3003H21.5416C21.7033 15.2899 21.8088 15.1635 21.8088 15.0303V12.9703C21.8088 12.8372 21.7033 12.7108 21.5416 12.7003H19.4788ZM17.5081 12.0203C18.0198 11.4985 18.7212 11.2003 19.4788 11.2003H21.5588C21.5678 11.2003 21.5767 11.2005 21.5856 11.2008C22.5386 11.2348 23.3088 12.006 23.3088 12.9703V15.0303C23.3088 15.9946 22.5386 16.7658 21.5856 16.7998C21.5767 16.8001 21.5678 16.8003 21.5588 16.8003H19.5988C18.1893 16.8003 16.8212 15.7696 16.6918 14.247C16.6111 13.3848 16.9393 12.5794 17.5081 12.0203Z" fill="#3A3A3A"/>
<path fill-rule="evenodd" clip-rule="evenodd" d="M6.25 11.0001C6.25 10.5859 6.58579 10.2501 7 10.2501H14C14.4142 10.2501 14.75 10.5859 14.75 11.0001C14.75 11.4143 14.4142 11.7501 14 11.7501H7C6.58579 11.7501 6.25 11.4143 6.25 11.0001Z" fill="#3A3A3A"/>
<path fill-rule="evenodd" clip-rule="evenodd" d="M5 14.7501C4.23847 14.7501 3.53157 15.017 2.96748 15.4666L2.96618 15.4677L2.96618 15.4676C2.221 16.0589 1.75 16.9747 1.75 18.0001C1.75 18.6095 1.92052 19.1834 2.21838 19.6665L2.22467 19.6767L2.22459 19.6767C2.7844 20.6178 3.81412 21.2501 5 21.2501C5.82269 21.2501 6.56449 20.9501 7.12828 20.4427C7.13477 20.4368 7.14136 20.4311 7.14805 20.4255C7.39099 20.2217 7.60515 19.9685 7.77216 19.6822L7.78162 19.6665C8.07948 19.1834 8.25 18.6095 8.25 18.0001C8.25 16.2043 6.79579 14.7501 5 14.7501ZM2.03317 14.2931C2.84898 13.6431 3.88183 13.2501 5 13.2501C7.62421 13.2501 9.75 15.3759 9.75 18.0001C9.75 18.8875 9.50232 19.7307 9.06317 20.446C8.81312 20.8726 8.49253 21.2536 8.12204 21.5663C7.28705 22.3136 6.19269 22.7501 5 22.7501C3.26803 22.7501 1.75937 21.8247 0.938481 20.4487C0.498304 19.7328 0.25 18.8886 0.25 18.0001C0.25 16.5059 0.938723 15.1619 2.03317 14.2931Z" fill="#3A3A3A"/>
<path fill-rule="evenodd" clip-rule="evenodd" d="M7.11201 16.5104C7.39326 16.8145 7.37474 17.289 7.07064 17.5703L4.94064 19.5402C4.6449 19.8138 4.18591 19.8048 3.90107 19.52L2.91108 18.53C2.61818 18.2371 2.61818 17.7622 2.91108 17.4693C3.20397 17.1764 3.67884 17.1764 3.97174 17.4693L4.45169 17.9493L6.05216 16.469C6.35625 16.1878 6.83077 16.2063 7.11201 16.5104Z" fill="#3A3A3A"/>
</svg>
