<svg width="23" height="23" viewBox="0 0 23 23" fill="none" xmlns="http://www.w3.org/2000/svg">
<path fill-rule="evenodd" clip-rule="evenodd" d="M5.25999 7.50013C3.60421 7.50013 2.25 8.85435 2.25 10.5101V12.2401C2.25 12.6543 1.91421 12.9901 1.5 12.9901C1.08579 12.9901 0.75 12.6543 0.75 12.2401V10.5101C0.75 8.02593 2.77578 6.00013 5.25999 6.00013H16.74C19.2242 6.00013 21.25 8.02593 21.25 10.5101V11.9501C21.25 12.3644 20.9142 12.7001 20.5 12.7001H18.48C18.1209 12.7001 17.8052 12.8394 17.5773 13.0733L17.5639 13.0868C17.2978 13.3465 17.1492 13.7163 17.1866 14.109L17.1875 14.1178L17.1874 14.1178C17.2403 14.7528 17.8509 15.3001 18.6 15.3001H20.5C20.9142 15.3001 21.25 15.6359 21.25 16.0501V17.2401C21.25 19.7243 19.2242 21.7501 16.74 21.7501H11.26C10.8458 21.7501 10.51 21.4143 10.51 21.0001C10.51 20.5859 10.8458 20.2501 11.26 20.2501H16.74C18.3958 20.2501 19.75 18.8959 19.75 17.2401V16.8001H18.6C17.1905 16.8001 15.8223 15.7694 15.693 14.2468C15.6122 13.3846 15.9405 12.5792 16.5093 12.0201C17.0209 11.4983 17.7224 11.2001 18.48 11.2001H19.75V10.5101C19.75 8.85435 18.3958 7.50013 16.74 7.50013H5.25999Z" fill="#3A3A3A"/>
<path fill-rule="evenodd" clip-rule="evenodd" d="M13.1 2.95016C13.1 2.14264 12.293 1.58825 11.5458 1.87144L3.60542 4.87159C2.78865 5.1808 2.25 5.96061 2.25 6.84017V11.4101C2.25 11.8243 1.91421 12.1601 1.5 12.1601C1.08579 12.1601 0.75 11.8243 0.75 11.4101V6.84017C0.75 5.33985 1.67153 3.99954 3.07458 3.46866L11.0142 0.468815C12.747 -0.187995 14.6 1.09768 14.6 2.95016V6.75014C14.6 7.16436 14.2642 7.50014 13.85 7.50014C13.4358 7.50014 13.1 7.16436 13.1 6.75014V2.95016Z" fill="#3A3A3A"/>
<path fill-rule="evenodd" clip-rule="evenodd" d="M18.4788 12.7003C18.1198 12.7003 17.804 12.8395 17.5762 13.0735L17.5627 13.087C17.2967 13.3467 17.1481 13.7165 17.1855 14.1092L17.1863 14.118L17.1863 14.118C17.2392 14.753 17.8497 15.3003 18.5988 15.3003H20.5416C20.7033 15.2899 20.8088 15.1635 20.8088 15.0303V12.9703C20.8088 12.8372 20.7033 12.7108 20.5416 12.7003H18.4788ZM16.5081 12.0203C17.0198 11.4985 17.7212 11.2003 18.4788 11.2003H20.5588C20.5678 11.2003 20.5767 11.2005 20.5856 11.2008C21.5386 11.2348 22.3088 12.006 22.3088 12.9703V15.0303C22.3088 15.9946 21.5386 16.7658 20.5856 16.7998C20.5767 16.8001 20.5678 16.8003 20.5588 16.8003H18.5988C17.1893 16.8003 15.8212 15.7696 15.6918 14.247C15.6111 13.3848 15.9393 12.5794 16.5081 12.0203Z" fill="#3A3A3A"/>
<path fill-rule="evenodd" clip-rule="evenodd" d="M5.25 11.0001C5.25 10.5859 5.58579 10.2501 6 10.2501H13C13.4142 10.2501 13.75 10.5859 13.75 11.0001C13.75 11.4143 13.4142 11.7501 13 11.7501H6C5.58579 11.7501 5.25 11.4143 5.25 11.0001Z" fill="#3A3A3A"/>
<path fill-rule="evenodd" clip-rule="evenodd" d="M1.25 15.5001C1.25 15.0859 1.58579 14.7501 2 14.7501H7.34C8.39418 14.7501 9.25 15.6059 9.25 16.6601V17.9401C9.25 18.3543 8.91421 18.6901 8.5 18.6901C8.08579 18.6901 7.75 18.3543 7.75 17.9401V16.6601C7.75 16.4343 7.56581 16.2501 7.34 16.2501H2C1.58579 16.2501 1.25 15.9143 1.25 15.5001Z" fill="#3A3A3A"/>
<path fill-rule="evenodd" clip-rule="evenodd" d="M3.75034 13.7501C4.04323 14.043 4.04322 14.5179 3.75032 14.8107L3.06067 15.5004L3.75032 16.19C4.04322 16.4829 4.04323 16.9578 3.75034 17.2507C3.45745 17.5436 2.98257 17.5436 2.68968 17.2507L1.46968 16.0307C1.32902 15.8901 1.25 15.6993 1.25 15.5004C1.25 15.3015 1.32902 15.1107 1.46968 14.97L2.68968 13.7501C2.98257 13.4572 3.45745 13.4572 3.75034 13.7501Z" fill="#3A3A3A"/>
<path fill-rule="evenodd" clip-rule="evenodd" d="M2 17.5904C2.41421 17.5904 2.75 17.9262 2.75 18.3404V19.6204C2.75 19.8462 2.93424 20.0304 3.16 20.0304H8.5C8.91421 20.0304 9.25 20.3662 9.25 20.7804C9.25 21.1946 8.91421 21.5304 8.5 21.5304H3.16C2.10576 21.5304 1.25 20.6746 1.25 19.6204V18.3404C1.25 17.9262 1.58579 17.5904 2 17.5904Z" fill="#3A3A3A"/>
<path fill-rule="evenodd" clip-rule="evenodd" d="M6.75093 19.0303C7.04382 18.7375 7.5187 18.7375 7.81159 19.0304L9.03159 20.2504C9.17224 20.391 9.25125 20.5818 9.25125 20.7807C9.25125 20.9796 9.17223 21.1704 9.03157 21.311L7.81157 22.531C7.51868 22.8239 7.0438 22.8239 6.75091 22.531C6.45802 22.2381 6.45803 21.7632 6.75093 21.4703L7.44059 20.7807L6.75091 20.091C6.45802 19.7981 6.45803 19.3232 6.75093 19.0303Z" fill="#3A3A3A"/>
</svg>
