<svg width="24" height="23" viewBox="0 0 24 23" fill="none" xmlns="http://www.w3.org/2000/svg">
<path fill-rule="evenodd" clip-rule="evenodd" d="M6.25999 7.49998C4.60421 7.49998 3.25 8.8542 3.25 10.51V13.5857C3.79266 13.3695 4.38335 13.25 5 13.25C7.62421 13.25 9.75 15.3758 9.75 18C9.75 18.8164 9.54324 19.5822 9.18199 20.25H17.74C19.3958 20.25 20.75 18.8958 20.75 17.24V16.8H19.6C18.1905 16.8 16.8223 15.7693 16.693 14.2467C16.6122 13.3845 16.9405 12.579 17.5093 12.0199C18.0209 11.4981 18.7224 11.2 19.48 11.2H20.75V10.51C20.75 8.8542 19.3958 7.49998 17.74 7.49998H6.25999ZM1.75 10.51C1.75 8.02578 3.77578 5.99998 6.25999 5.99998H17.74C20.2242 5.99998 22.25 8.02578 22.25 10.51V11.95C22.25 12.3642 21.9142 12.7 21.5 12.7H19.48C19.1209 12.7 18.8052 12.8392 18.5773 13.0732L18.5639 13.0867C18.2978 13.3464 18.1492 13.7162 18.1866 14.1089L18.1875 14.1177L18.1874 14.1177C18.2403 14.7527 18.8509 15.3 19.6 15.3H21.5C21.9142 15.3 22.25 15.6358 22.25 16.05V17.24C22.25 19.7242 20.2242 21.75 17.74 21.75H7.64C7.32789 21.75 7.04841 21.5567 6.93826 21.2647C6.82811 20.9727 6.91032 20.6429 7.14468 20.4368C7.82115 19.8419 8.25 18.9735 8.25 18C8.25 16.2042 6.79579 14.75 5 14.75C4.23847 14.75 3.53157 15.0168 2.96748 15.4665C2.74223 15.646 2.43403 15.6807 2.17451 15.5557C1.91499 15.4307 1.75 15.1681 1.75 14.88V10.51Z" fill="#3A3A3A"/>
<path fill-rule="evenodd" clip-rule="evenodd" d="M12.5427 1.87244C12.5421 1.87267 12.5415 1.8729 12.5409 1.87313L4.60542 4.87142C3.78865 5.18063 3.25 5.96044 3.25 6.84V10.51C3.25 10.9242 2.91421 11.26 2.5 11.26C2.08579 11.26 1.75 10.9242 1.75 10.51V6.84C1.75 5.33968 2.67153 3.99937 4.07458 3.46849L12.0191 0.46677C13.7425 -0.172551 15.6 1.09052 15.6 2.94999V6.74997C15.6 7.16419 15.2642 7.49997 14.85 7.49997C14.4358 7.49997 14.1 7.16419 14.1 6.74997V2.94999C14.1 2.1501 13.2988 1.59336 12.5427 1.87244Z" fill="#3A3A3A"/>
<path fill-rule="evenodd" clip-rule="evenodd" d="M19.4788 12.7002C19.1198 12.7002 18.804 12.8394 18.5762 13.0734L18.5627 13.0868C18.2967 13.3466 18.1481 13.7163 18.1855 14.1091L18.1863 14.1179L18.1863 14.1179C18.2392 14.7529 18.8497 15.3002 19.5988 15.3002H21.5416C21.7033 15.2897 21.8088 15.1633 21.8088 15.0302V12.9701C21.8088 12.837 21.7033 12.7106 21.5416 12.7002H19.4788ZM17.5081 12.0201C18.0198 11.4983 18.7212 11.2002 19.4788 11.2002H21.5588C21.5678 11.2002 21.5767 11.2003 21.5856 11.2007C22.5386 11.2347 23.3088 12.0059 23.3088 12.9701V15.0302C23.3088 15.9945 22.5386 16.7656 21.5856 16.7997C21.5767 16.8 21.5678 16.8002 21.5588 16.8002H19.5988C18.1893 16.8002 16.8212 15.7695 16.6918 14.2469C16.6111 13.3847 16.9393 12.5792 17.5081 12.0201Z" fill="#3A3A3A"/>
<path fill-rule="evenodd" clip-rule="evenodd" d="M6.25 11C6.25 10.5858 6.58579 10.25 7 10.25H14C14.4142 10.25 14.75 10.5858 14.75 11C14.75 11.4142 14.4142 11.75 14 11.75H7C6.58579 11.75 6.25 11.4142 6.25 11Z" fill="#3A3A3A"/>
<path fill-rule="evenodd" clip-rule="evenodd" d="M5 14.75C4.23847 14.75 3.53157 15.0168 2.96748 15.4665L2.96618 15.4675L2.96618 15.4675C2.221 16.0588 1.75 16.9745 1.75 18C1.75 19.7958 3.20421 21.25 5 21.25C5.81667 21.25 6.5636 20.9438 7.1457 20.4359C7.82158 19.841 8.25 18.973 8.25 18C8.25 16.2042 6.79579 14.75 5 14.75ZM2.03317 14.293C2.84898 13.6429 3.88183 13.25 5 13.25C7.62421 13.25 9.75 15.3758 9.75 18C9.75 19.4265 9.11885 20.6981 8.13532 21.5632L8.13332 21.5649L8.13331 21.5649C7.29556 22.2965 6.20287 22.75 5 22.75C2.37579 22.75 0.25 20.6242 0.25 18C0.25 16.5057 0.938723 15.1617 2.03317 14.293Z" fill="#3A3A3A"/>
<path fill-rule="evenodd" clip-rule="evenodd" d="M5.25011 16C5.66433 16 6.00011 16.3358 6.00011 16.75V18.25C6.00011 18.5134 5.86189 18.7576 5.63599 18.8931L4.38599 19.6431C4.0308 19.8562 3.5701 19.741 3.35699 19.3859C3.14388 19.0307 3.25906 18.57 3.61424 18.3569L4.50011 17.8253V16.75C4.50011 16.3358 4.8359 16 5.25011 16Z" fill="#3A3A3A"/>
</svg>
