<svg width="24" height="24" viewBox="0 0 24 24" fill="none" xmlns="http://www.w3.org/2000/svg">
<path d="M10.8008 3.3998L7.2008 7.6998C7.1008 7.8998 7.0008 8.1998 6.9008 8.3998L5.2008 16.9998C5.1008 17.5998 5.4008 18.2998 5.9008 18.5998L11.2008 21.5998C11.6008 21.7998 12.3008 21.7998 12.7008 21.5998L18.0008 18.5998C18.5008 18.2998 18.8008 17.5998 18.7008 16.9998L17.0008 8.3998C17.0008 8.1998 16.8008 7.8998 16.7008 7.6998L13.1008 3.3998C12.5008 2.5998 11.5008 2.5998 10.8008 3.3998Z" stroke="#3A3A3A" stroke-width="1.5" stroke-miterlimit="10" stroke-linecap="round" stroke-linejoin="round"/>
<path d="M16.7992 8.5L12.4992 20.7C12.2992 21.1 11.6992 21.1 11.5992 20.7L7.19922 8.5" stroke="#3A3A3A" stroke-width="1.5" stroke-miterlimit="10" stroke-linecap="round" stroke-linejoin="round"/>
</svg>
