<svg width="24" height="24" viewBox="0 0 24 24" fill="none" xmlns="http://www.w3.org/2000/svg">
<path d="M6.89967 9.1L11.6997 7C11.8997 6.9 12.0997 6.9 12.3997 7L17.1997 9.1C17.5997 9.3 17.9997 8.8 17.6997 8.4L12.6997 2.3C12.3997 1.9 11.7997 1.9 11.4997 2.3L6.49967 8.4C6.09967 8.8 6.49967 9.3 6.89967 9.1Z" stroke="#3A3A3A" stroke-width="1.5" stroke-miterlimit="10" stroke-linecap="round" stroke-linejoin="round"/>
<path d="M6.89967 14.9L11.6997 17C11.8997 17.1 12.0997 17.1 12.3997 17L17.1997 14.9C17.5997 14.7 17.9997 15.2 17.6997 15.6L12.6997 21.7C12.3997 22.1 11.7997 22.1 11.4997 21.7L6.49967 15.6C6.09967 15.2 6.49967 14.7 6.89967 14.9Z" stroke="#3A3A3A" stroke-width="1.5" stroke-miterlimit="10" stroke-linecap="round" stroke-linejoin="round"/>
<path d="M12.0008 9.3999L6.80078 11.9999L12.0008 14.5999L17.2008 11.9999L12.0008 9.3999Z" stroke="#3A3A3A" stroke-width="1.5" stroke-miterlimit="10" stroke-linecap="round" stroke-linejoin="round"/>
</svg>
