<svg width="24" height="24" viewBox="0 0 24 24" fill="none" xmlns="http://www.w3.org/2000/svg">
<path d="M22 13V9C22 4 20 2 15 2H9C4 2 2 4 2 9V15C2 20 4 22 9 22H13" stroke="#3A3A3A" stroke-width="1.5" stroke-linecap="round" stroke-linejoin="round"/>
<path d="M7.33008 14.49L9.71008 11.4C10.0501 10.96 10.6801 10.88 11.1201 11.22L12.9501 12.66C13.3901 13 14.0201 12.92 14.3601 12.49L16.6701 9.51001" stroke="#3A3A3A" stroke-width="1.5" stroke-linecap="round" stroke-linejoin="round"/>
<path d="M19.4792 15.8199L19.7592 16.3899C19.8992 16.6699 20.2492 16.9299 20.5592 16.9899L20.9392 17.0499C22.0792 17.2399 22.3492 18.0799 21.5292 18.9099L21.1792 19.2599C20.9492 19.4999 20.8192 19.9599 20.8892 20.2799L20.9392 20.4899C21.2492 21.8699 20.5192 22.3999 19.3192 21.6799L19.0592 21.5299C18.7492 21.3499 18.2492 21.3499 17.9392 21.5299L17.6792 21.6799C16.4692 22.4099 15.7392 21.8699 16.0592 20.4899L16.1092 20.2799C16.1792 19.9599 16.0492 19.4999 15.8192 19.2599L15.4692 18.9099C14.6492 18.0799 14.9192 17.2399 16.0592 17.0499L16.4392 16.9899C16.7392 16.9399 17.0992 16.6699 17.2392 16.3899L17.5192 15.8199C18.0592 14.7299 18.9392 14.7299 19.4792 15.8199Z" stroke="#3A3A3A" stroke-width="1.5" stroke-linecap="round" stroke-linejoin="round"/>
</svg>
