<svg width="24" height="24" viewBox="0 0 24 24" fill="none" xmlns="http://www.w3.org/2000/svg">
<path d="M13.4105 20.7898L12.0005 21.6998C10.6905 22.5098 8.87054 21.5998 8.87054 19.9798V14.6298C8.87054 13.9198 8.47055 13.0098 8.06055 12.5098L4.22052 8.46976C3.71052 7.95976 3.31055 7.05977 3.31055 6.44977V4.12976C3.31055 2.91976 4.22057 2.00977 5.33057 2.00977H18.6705C19.7805 2.00977 20.6906 2.91975 20.6906 4.02975V6.24976C20.6906 7.05976 20.1805 8.06976 19.6805 8.56976" stroke="#3A3A3A" stroke-width="1.5" stroke-miterlimit="10" stroke-linecap="round" stroke-linejoin="round"/>
<path d="M17.0799 11.89L13.5399 15.43C13.3999 15.57 13.2699 15.83 13.2399 16.02L13.0499 17.37C12.9799 17.86 13.3199 18.2 13.8099 18.13L15.1599 17.94C15.3499 17.91 15.6199 17.78 15.7499 17.64L19.2899 14.1C19.8999 13.49 20.1899 12.78 19.2899 11.88C18.3999 10.99 17.6899 11.28 17.0799 11.89Z" stroke="#3A3A3A" stroke-width="1.5" stroke-miterlimit="10" stroke-linecap="round" stroke-linejoin="round"/>
<path d="M16.5801 12.39C16.8801 13.47 17.72 14.31 18.8 14.61" stroke="#3A3A3A" stroke-width="1.5" stroke-miterlimit="10" stroke-linecap="round" stroke-linejoin="round"/>
</svg>
