<svg width="24" height="24" viewBox="0 0 24 24" fill="none" xmlns="http://www.w3.org/2000/svg">
<path d="M14.3206 19.0698C14.3206 19.6798 13.9205 20.4798 13.4105 20.7898L12.0005 21.6998C10.6905 22.5098 8.87054 21.5998 8.87054 19.9798V14.6298C8.87054 13.9198 8.47055 13.0098 8.06055 12.5098L4.22052 8.46976C3.71052 7.95976 3.31055 7.05977 3.31055 6.44977V4.12976C3.31055 2.91976 4.22057 2.00977 5.33057 2.00977H18.6705C19.7805 2.00977 20.6906 2.91975 20.6906 4.02975V6.24976C20.6906 7.05976 20.1805 8.06976 19.6805 8.56976" stroke="#3A3A3A" stroke-width="1.5" stroke-miterlimit="10" stroke-linecap="round" stroke-linejoin="round"/>
<path d="M16.0692 16.52C17.8365 16.52 19.2692 15.0873 19.2692 13.32C19.2692 11.5527 17.8365 10.12 16.0692 10.12C14.3018 10.12 12.8691 11.5527 12.8691 13.32C12.8691 15.0873 14.3018 16.52 16.0692 16.52Z" stroke="#3A3A3A" stroke-width="1.5" stroke-linecap="round" stroke-linejoin="round"/>
<path d="M19.8691 17.12L18.8691 16.12" stroke="#3A3A3A" stroke-width="1.5" stroke-linecap="round" stroke-linejoin="round"/>
</svg>
