<svg width="24" height="24" viewBox="0 0 24 24" fill="none" xmlns="http://www.w3.org/2000/svg">
<path d="M13.4105 20.7897L12.0005 21.6998C10.6905 22.5098 8.87055 21.5997 8.87055 19.9797V14.6298C8.87055 13.9198 8.47055 13.0098 8.06055 12.5098L4.22055 8.46973C3.71055 7.95973 3.31055 7.05977 3.31055 6.44977V4.12976C3.31055 2.91976 4.22055 2.00977 5.33055 2.00977H18.6705C19.7805 2.00977 20.6905 2.91979 20.6905 4.02979V6.24976C20.6905 7.05976 20.1805 8.06976 19.6805 8.56976" stroke="#3A3A3A" stroke-width="1.5" stroke-miterlimit="10" stroke-linecap="round" stroke-linejoin="round"/>
<path d="M21.6309 14.75C21.6309 15.64 21.3809 16.48 20.9409 17.2C20.1209 18.58 18.6109 19.5 16.8809 19.5C15.1509 19.5 13.6409 18.57 12.8209 17.2C12.3809 16.49 12.1309 15.64 12.1309 14.75C12.1309 12.13 14.2609 10 16.8809 10C19.5009 10 21.6309 12.13 21.6309 14.75Z" stroke="#3A3A3A" stroke-width="1.5" stroke-miterlimit="10" stroke-linecap="round" stroke-linejoin="round"/>
<path d="M18.1487 15.99L15.6387 13.48" stroke="#3A3A3A" stroke-width="1.5" stroke-miterlimit="10" stroke-linecap="round" stroke-linejoin="round"/>
<path d="M18.1291 13.5098L15.6191 16.0198" stroke="#3A3A3A" stroke-width="1.5" stroke-miterlimit="10" stroke-linecap="round" stroke-linejoin="round"/>
<path d="M20.6905 4.02002V6.23999C20.6905 7.04999 20.1805 8.06001 19.6805 8.57001L17.9205 10.12C17.5905 10.04 17.2405 10 16.8805 10C14.2605 10 12.1305 12.13 12.1305 14.75C12.1305 15.64 12.3805 16.48 12.8205 17.2C13.1905 17.82 13.7005 18.35 14.3205 18.73V19.07C14.3205 19.68 13.9205 20.49 13.4105 20.79L12.0005 21.7C10.6905 22.51 8.87055 21.6 8.87055 19.98V14.63C8.87055 13.92 8.46055 13.01 8.06055 12.51L4.22055 8.46997C3.72055 7.95997 3.31055 7.05001 3.31055 6.45001V4.12C3.31055 2.91 4.22055 2 5.33055 2H18.6705C19.7805 2 20.6905 2.91002 20.6905 4.02002Z" stroke="#3A3A3A" stroke-width="1.5" stroke-miterlimit="10" stroke-linecap="round" stroke-linejoin="round"/>
</svg>
