<svg width="24" height="24" viewBox="0 0 24 24" fill="none" xmlns="http://www.w3.org/2000/svg">
<path d="M8.68055 12.72H10.4205V16.77C10.4205 17.37 11.1605 17.65 11.5605 17.2L15.8205 12.36C16.1905 11.94 15.8905 11.28 15.3305 11.28H13.5905V7.22995C13.5905 6.62995 12.8505 6.34995 12.4505 6.79995L8.19055 11.64C7.82055 12.06 8.12055 12.72 8.68055 12.72Z" stroke="#3A3A3A" stroke-width="1.5" stroke-miterlimit="10" stroke-linecap="round" stroke-linejoin="round"/>
<path d="M11.9707 22C17.4936 22 21.9707 17.5228 21.9707 12C21.9707 6.47715 17.4936 2 11.9707 2C6.44786 2 1.9707 6.47715 1.9707 12C1.9707 17.5228 6.44786 22 11.9707 22Z" stroke="#3A3A3A" stroke-width="1.5" stroke-miterlimit="10" stroke-linecap="round" stroke-linejoin="round"/>
</svg>
