<svg width="24" height="24" viewBox="0 0 24 24" fill="none" xmlns="http://www.w3.org/2000/svg">
<path d="M21.4998 5.35C21.4998 6.26 21.0698 7.07 20.4098 7.59C19.9298 7.97 19.3198 8.2 18.6498 8.2C17.0698 8.2 15.7998 6.93 15.7998 5.35C15.7998 4.68 16.0298 4.08 16.4098 3.59H16.4198C16.9298 2.93 17.7398 2.5 18.6498 2.5C20.2298 2.5 21.4998 3.77 21.4998 5.35Z" stroke="#3A3A3A" stroke-width="1.5" stroke-linecap="round" stroke-linejoin="round"/>
<path d="M8.2 5.35C8.2 6.93 6.93 8.2 5.35 8.2C4.68 8.2 4.08 7.97 3.59 7.59C2.93 7.07 2.5 6.26 2.5 5.35C2.5 3.77 3.77 2.5 5.35 2.5C6.26 2.5 7.07 2.93 7.59 3.59C7.97 4.08 8.2 4.68 8.2 5.35Z" stroke="#3A3A3A" stroke-width="1.5" stroke-linecap="round" stroke-linejoin="round"/>
<path d="M21.4998 18.65C21.4998 20.23 20.2298 21.5 18.6498 21.5C17.7398 21.5 16.9298 21.07 16.4198 20.41H16.4098C16.0298 19.93 15.7998 19.32 15.7998 18.65C15.7998 17.07 17.0698 15.8 18.6498 15.8C19.3198 15.8 19.9198 16.03 20.4098 16.41V16.42C21.0698 16.93 21.4998 17.74 21.4998 18.65Z" stroke="#3A3A3A" stroke-width="1.5" stroke-linecap="round" stroke-linejoin="round"/>
<path d="M8.2 18.65C8.2 19.32 7.97 19.92 7.59 20.41C7.07 21.08 6.26 21.5 5.35 21.5C3.77 21.5 2.5 20.23 2.5 18.65C2.5 17.74 2.93 16.93 3.59 16.42V16.41C4.07 16.03 4.68 15.8 5.35 15.8C6.93 15.8 8.2 17.07 8.2 18.65Z" stroke="#3A3A3A" stroke-width="1.5" stroke-linecap="round" stroke-linejoin="round"/>
<path d="M21.5 12C21.5 13.6 21.11 15.09 20.41 16.41C19.93 16.03 19.32 15.8 18.65 15.8C17.07 15.8 15.8 17.07 15.8 18.65C15.8 19.32 16.03 19.92 16.41 20.41C15.09 21.11 13.6 21.5 12 21.5C10.41 21.5 8.91 21.11 7.59 20.41C7.97 19.93 8.2 19.32 8.2 18.65C8.2 17.07 6.93 15.8 5.35 15.8C4.68 15.8 4.08 16.03 3.59 16.41C2.89 15.09 2.5 13.6 2.5 12C2.5 10.41 2.89 8.91 3.59 7.59C4.08 7.97 4.68 8.2 5.35 8.2C6.93 8.2 8.2 6.93 8.2 5.35C8.2 4.68 7.97 4.08 7.59 3.59C8.91 2.89 10.41 2.5 12 2.5C13.6 2.5 15.09 2.89 16.41 3.59C16.03 4.07 15.8 4.68 15.8 5.35C15.8 6.93 17.07 8.2 18.65 8.2C19.32 8.2 19.92 7.97 20.41 7.59C21.11 8.91 21.5 10.41 21.5 12Z" stroke="#3A3A3A" stroke-width="1.5" stroke-linecap="round" stroke-linejoin="round"/>
</svg>
