<svg width="24" height="24" viewBox="0 0 24 24" fill="none" xmlns="http://www.w3.org/2000/svg">
<path d="M15.9601 10.83H12.9001L12.1401 13.12H14.4301C15.2701 13.12 15.9601 13.8 15.9601 14.65C15.9601 15.49 15.2801 16.18 14.4301 16.18H12.1401" stroke="#3A3A3A" stroke-width="1.5" stroke-linecap="round" stroke-linejoin="round"/>
<path d="M9.54004 16.17V10.83L8.04004 12.5" stroke="#3A3A3A" stroke-width="1.5" stroke-linecap="round" stroke-linejoin="round"/>
<path d="M13.98 4.46997L12 2" stroke="#3A3A3A" stroke-width="1.5" stroke-linecap="round" stroke-linejoin="round"/>
<path d="M19.0899 7.79974C20.1999 9.27974 20.8899 11.1097 20.8899 13.1097C20.8899 18.0197 16.9099 21.9998 11.9999 21.9998C7.08988 21.9998 3.10986 18.0197 3.10986 13.1097C3.10986 8.19974 7.08988 4.21973 11.9999 4.21973C12.6799 4.21973 13.3399 4.30978 13.9799 4.45978" stroke="#3A3A3A" stroke-width="1.5" stroke-linecap="round" stroke-linejoin="round"/>
</svg>
