<svg width="24" height="24" viewBox="0 0 24 24" fill="none" xmlns="http://www.w3.org/2000/svg">
<path d="M17.3801 10.38V13.61C17.3801 16.3 16.3001 17.38 13.6101 17.38H10.3801C7.69011 17.38 6.61011 16.3 6.61011 13.61V10.38C6.61011 7.69 7.69011 6.60999 10.3801 6.60999H13.6101C16.3101 6.61999 17.3801 7.69 17.3801 10.38Z" stroke="#3A3A3A" stroke-width="1.5" stroke-linecap="round" stroke-linejoin="round"/>
<path d="M22 5.76999V9C22 11.69 20.92 12.77 18.23 12.77H17.38V10.39C17.38 7.70001 16.3 6.62 13.61 6.62H11.23V5.76999C11.23 3.07999 12.31 2 15 2H18.23C20.92 2 22 3.07999 22 5.76999Z" stroke="#3A3A3A" stroke-width="1.5" stroke-linecap="round" stroke-linejoin="round"/>
<path d="M2 18.23V15C2 12.31 3.08 11.23 5.77 11.23H6.62V13.61C6.62 16.3 7.7 17.38 10.39 17.38H12.77V18.23C12.77 20.92 11.69 22 9 22H5.77C3.08 22 2 20.92 2 18.23Z" stroke="#3A3A3A" stroke-width="1.5" stroke-linecap="round" stroke-linejoin="round"/>
</svg>
