<svg width="24" height="24" viewBox="0 0 24 24" fill="none" xmlns="http://www.w3.org/2000/svg">
<path d="M2 8.34V15.66C2 17.16 3.62999 18.1 4.92999 17.35L8.10001 15.53L11.27 13.7C11.47 13.58 11.63 13.45 11.76 13.29V10.73C11.63 10.57 11.47 10.44 11.27 10.32L8.10001 8.48999L4.92999 6.67002C3.62999 5.90002 2 6.84 2 8.34Z" stroke="#3A3A3A" stroke-width="1.5" stroke-linecap="round" stroke-linejoin="round"/>
<path d="M11.76 8.34V15.66C11.76 17.16 13.39 18.1 14.69 17.35L17.86 15.53L21.03 13.7C22.33 12.95 22.33 11.08 21.03 10.32L17.86 8.48999L14.69 6.67002C13.39 5.90002 11.76 6.84 11.76 8.34Z" stroke="#3A3A3A" stroke-width="1.5" stroke-linecap="round" stroke-linejoin="round"/>
</svg>
