<svg width="24" height="24" viewBox="0 0 24 24" fill="none" xmlns="http://www.w3.org/2000/svg">
<path d="M3.37 20.1C2.43 18.97 2 17.31 2 15V9C2 4 4 2 9 2H15C17.19 2 18.8 2.38 19.92 3.23" stroke="#3A3A3A" stroke-width="1.5" stroke-linecap="round" stroke-linejoin="round"/>
<path d="M21.97 7.98999C21.99 8.30999 22 8.64999 22 8.99999V15C22 20 20 22 15 22H8.99996C8.25996 22 7.57996 21.96 6.95996 21.86" stroke="#3A3A3A" stroke-width="1.5" stroke-linecap="round" stroke-linejoin="round"/>
<path d="M8 10C9.10457 10 10 9.10457 10 8C10 6.89543 9.10457 6 8 6C6.89543 6 6 6.89543 6 8C6 9.10457 6.89543 10 8 10Z" stroke="#3A3A3A" stroke-width="1.5" stroke-linecap="round" stroke-linejoin="round"/>
<path d="M22 2L2 22" stroke="#3A3A3A" stroke-width="1.5" stroke-linecap="round" stroke-linejoin="round"/>
<path d="M11.4299 16.45C11.7299 16.75 12.2199 16.75 12.5199 16.45L17.5499 11.41C18.3299 10.63 19.5899 10.63 20.3699 11.41L21.9999 13.05" stroke="#3A3A3A" stroke-width="1.5" stroke-linecap="round" stroke-linejoin="round"/>
</svg>
