<svg width="24" height="24" viewBox="0 0 24 24" fill="none" xmlns="http://www.w3.org/2000/svg">
<path d="M22 11V9C22 4 20 2 15 2H9C4 2 2 4 2 9V15C2 20 4 22 9 22H10" stroke="#3A3A3A" stroke-width="1.5" stroke-linecap="round" stroke-linejoin="round"/>
<path d="M2.02979 8.5H21.9998" stroke="#3A3A3A" stroke-width="1.5" stroke-linecap="round" stroke-linejoin="round"/>
<path d="M2.02979 15.5H11.9998" stroke="#3A3A3A" stroke-width="1.5" stroke-linecap="round" stroke-linejoin="round"/>
<path d="M8.50977 21.9897V2.00977" stroke="#3A3A3A" stroke-width="1.5" stroke-linecap="round" stroke-linejoin="round"/>
<path d="M15.5098 11.9897V2.00977" stroke="#3A3A3A" stroke-width="1.5" stroke-linecap="round" stroke-linejoin="round"/>
<path d="M18.8 19.7L16.9 21.6C16.38 22.12 15.52 22.12 14.99 21.6L13.41 20.01C12.89 19.49 12.89 18.63 13.41 18.1L15.31 16.21L18.8 19.7Z" stroke="#3A3A3A" stroke-width="1.5" stroke-linecap="round" stroke-linejoin="round"/>
<path d="M21.6098 16.9L18.7998 19.7099L15.2998 16.2099L18.1098 13.39C18.6298 12.87 19.4998 12.87 20.0198 13.39L21.5998 14.98C22.1298 15.51 22.1298 16.38 21.6098 16.9Z" stroke="#3A3A3A" stroke-width="1.5" stroke-linecap="round" stroke-linejoin="round"/>
</svg>
