<svg width="24" height="24" viewBox="0 0 24 24" fill="none" xmlns="http://www.w3.org/2000/svg">
<path d="M22 11V9C22 4 20 2 15 2H9C4 2 2 4 2 9V15C2 20 4 22 9 22H10" stroke="#3A3A3A" stroke-width="1.5" stroke-linecap="round" stroke-linejoin="round"/>
<path d="M2.03027 8.5H22.0002" stroke="#3A3A3A" stroke-width="1.5" stroke-linecap="round" stroke-linejoin="round"/>
<path d="M2.03027 15.5H12.0002" stroke="#3A3A3A" stroke-width="1.5" stroke-linecap="round" stroke-linejoin="round"/>
<path d="M8.50977 21.9897V2.00977" stroke="#3A3A3A" stroke-width="1.5" stroke-linecap="round" stroke-linejoin="round"/>
<path d="M15.5098 11.9897V2.00977" stroke="#3A3A3A" stroke-width="1.5" stroke-linecap="round" stroke-linejoin="round"/>
<path d="M18.7299 14.6701L14.5799 18.82C14.4199 18.98 14.2699 19.29 14.2299 19.51L13.9999 21.1C13.9199 21.67 14.3199 22.08 14.8899 21.99L16.4799 21.76C16.6999 21.73 17.0099 21.5701 17.1699 21.4101L21.3199 17.26C22.0299 16.55 22.3699 15.7101 21.3199 14.6601C20.2799 13.6201 19.4499 13.9501 18.7299 14.6701Z" stroke="#3A3A3A" stroke-width="1.5" stroke-miterlimit="10" stroke-linecap="round" stroke-linejoin="round"/>
<path d="M18.1396 15.2598C18.4896 16.5198 19.4796 17.4997 20.7396 17.8597" stroke="#3A3A3A" stroke-width="1.5" stroke-miterlimit="10" stroke-linecap="round" stroke-linejoin="round"/>
</svg>
