<svg width="24" height="24" viewBox="0 0 24 24" fill="none" xmlns="http://www.w3.org/2000/svg">
<path d="M7.01012 18L3.00012 13.99C1.66012 12.65 1.66012 11.32 3.00012 9.97998L9.68012 3.29999L17.0301 10.65C17.4001 11.02 17.4001 11.62 17.0301 11.99L11.0101 18.01C9.69012 19.33 8.35012 19.33 7.01012 18Z" stroke="#3A3A3A" stroke-width="1.5" stroke-miterlimit="10" stroke-linecap="round" stroke-linejoin="round"/>
<path d="M8.3501 1.95001L9.6901 3.28998" stroke="#3A3A3A" stroke-width="1.5" stroke-miterlimit="10" stroke-linecap="round" stroke-linejoin="round"/>
<path d="M2.07007 11.9197L17.1901 11.2598" stroke="#3A3A3A" stroke-width="1.5" stroke-miterlimit="10" stroke-linecap="round" stroke-linejoin="round"/>
<path d="M3 22H16" stroke="#3A3A3A" stroke-width="1.5" stroke-miterlimit="10" stroke-linecap="round" stroke-linejoin="round"/>
<path d="M18.85 15C18.85 15 17 17.01 17 18.24C17 19.26 17.83 20.09 18.85 20.09C19.87 20.09 20.7 19.26 20.7 18.24C20.7 17.01 18.85 15 18.85 15Z" stroke="#3A3A3A" stroke-width="1.5" stroke-linecap="round" stroke-linejoin="round"/>
</svg>
