<svg width="24" height="24" viewBox="0 0 24 24" fill="none" xmlns="http://www.w3.org/2000/svg">
<path d="M22.0004 17.1999C22.0004 19.8499 19.8504 21.9999 17.2004 21.9999C15.7804 21.9999 14.5104 21.3799 13.6304 20.3999C12.8704 19.5499 12.4004 18.4299 12.4004 17.1999C12.4004 14.5499 14.5504 12.3999 17.2004 12.3999C18.5704 12.3999 19.8104 12.9799 20.6904 13.9099C20.6804 13.9099 20.6804 13.9099 20.6904 13.9199C21.5004 14.7799 22.0004 15.9299 22.0004 17.1999Z" stroke="#3A3A3A" stroke-width="1.5" stroke-miterlimit="10" stroke-linecap="round" stroke-linejoin="round"/>
<path d="M18.4802 18.54L15.9502 16" stroke="#3A3A3A" stroke-width="1.5" stroke-miterlimit="10" stroke-linecap="round" stroke-linejoin="round"/>
<path d="M18.45 16.0303L15.9199 18.5703" stroke="#3A3A3A" stroke-width="1.5" stroke-miterlimit="10" stroke-linecap="round" stroke-linejoin="round"/>
<path d="M22 8.69C22 10.66 21.49 12.4 20.69 13.91C19.81 12.98 18.57 12.4 17.2 12.4C14.55 12.4 12.4 14.55 12.4 17.2C12.4 18.43 12.87 19.55 13.63 20.4C13.26 20.57 12.92 20.71 12.62 20.81C12.28 20.93 11.72 20.93 11.38 20.81C8.48 19.82 2 15.69 2 8.69C2 5.6 4.49 3.09998 7.56 3.09998C9.37 3.09998 10.99 3.98002 12 5.33002C13.01 3.98002 14.63 3.09998 16.44 3.09998C19.51 3.09998 22 5.6 22 8.69Z" stroke="#3A3A3A" stroke-width="1.5" stroke-linecap="round" stroke-linejoin="round"/>
</svg>
