<svg width="24" height="24" viewBox="0 0 24 24" fill="none" xmlns="http://www.w3.org/2000/svg">
<path d="M6.10999 17.5C3.89999 15.43 2 12.48 2 8.67999C2 5.58999 4.49 3.09003 7.56 3.09003C9.38 3.09003 10.99 3.97002 12 5.33002C13.01 3.97002 14.63 3.09003 16.44 3.09003C17.59 3.09003 18.66 3.43999 19.55 4.04999" stroke="#3A3A3A" stroke-width="1.5" stroke-linecap="round" stroke-linejoin="round"/>
<path d="M21.7395 7.00018C21.9095 7.53018 21.9995 8.10019 21.9995 8.69019C21.9995 15.6902 15.5195 19.8202 12.6195 20.8202C12.2795 20.9402 11.7195 20.9402 11.3795 20.8202C10.7295 20.6002 9.90953 20.2202 9.01953 19.6902" stroke="#3A3A3A" stroke-width="1.5" stroke-linecap="round" stroke-linejoin="round"/>
<path d="M22 2L2 22" stroke="#3A3A3A" stroke-width="1.5" stroke-linecap="round" stroke-linejoin="round"/>
</svg>
