<svg width="24" height="24" viewBox="0 0 24 24" fill="none" xmlns="http://www.w3.org/2000/svg">
<path d="M7.7998 10.2V14.4" stroke="#3A3A3A" stroke-width="1.5" stroke-linecap="round" stroke-linejoin="round"/>
<path d="M7.95001 9.89999C9.02697 9.89999 9.90002 9.02697 9.90002 7.95001C9.90002 6.87306 9.02697 6 7.95001 6C6.87306 6 6 6.87306 6 7.95001C6 9.02697 6.87306 9.89999 7.95001 9.89999Z" stroke="#3A3A3A" stroke-width="1.5" stroke-linecap="round" stroke-linejoin="round"/>
<path d="M7.79999 18C8.7941 18 9.59998 17.1941 9.59998 16.2C9.59998 15.2059 8.7941 14.4 7.79999 14.4C6.80588 14.4 6 15.2059 6 16.2C6 17.1941 6.80588 18 7.79999 18Z" stroke="#3A3A3A" stroke-width="1.5" stroke-linecap="round" stroke-linejoin="round"/>
<path d="M16.2004 17.9999C17.1945 17.9999 18.0004 17.194 18.0004 16.1999C18.0004 15.2058 17.1945 14.3999 16.2004 14.3999C15.2063 14.3999 14.4004 15.2058 14.4004 16.1999C14.4004 17.194 15.2063 17.9999 16.2004 17.9999Z" stroke="#3A3A3A" stroke-width="1.5" stroke-linecap="round" stroke-linejoin="round"/>
<path d="M7.87988 10.2C8.14988 11.25 9.10987 12.03 10.2399 12.02L12.2999 12.01C13.8699 12 15.2099 13.01 15.6999 14.42" stroke="#3A3A3A" stroke-width="1.5" stroke-linecap="round" stroke-linejoin="round"/>
<path d="M9 22H15C20 22 22 20 22 15V9C22 4 20 2 15 2H9C4 2 2 4 2 9V15C2 20 4 22 9 22Z" stroke="#3A3A3A" stroke-width="1.5" stroke-linecap="round" stroke-linejoin="round"/>
</svg>
