<svg width="24" height="24" viewBox="0 0 24 24" fill="none" xmlns="http://www.w3.org/2000/svg">
<path d="M10.0693 2.81997L3.1393 8.37002C2.3593 8.99002 1.85929 10.3 2.02929 11.28L3.35927 19.24C3.59927 20.66 4.95928 21.8101 6.39928 21.8101H17.5993C19.0293 21.8101 20.3993 20.65 20.6393 19.24L21.9693 11.28C22.1293 10.3 21.6293 8.99002 20.8593 8.37002L13.9293 2.82998C12.8593 1.96998 11.1293 1.96997 10.0693 2.81997Z" stroke="#3A3A3A" stroke-width="1.5" stroke-linecap="round" stroke-linejoin="round"/>
<path d="M9.88086 14.38C11.1509 13.17 12.8508 13.17 14.1208 14.38" stroke="#3A3A3A" stroke-width="1.5" stroke-linecap="round" stroke-linejoin="round"/>
<path d="M16.24 12.2601C15.7 11.7301 15.1 11.3201 14.48 11.0201C12.89 10.2601 11.11 10.2601 9.51001 11.0201C8.89001 11.3201 8.3 11.7301 7.75 12.2601" stroke="#3A3A3A" stroke-width="1.5" stroke-linecap="round" stroke-linejoin="round"/>
<path d="M11.9955 17H12.0045" stroke="#3A3A3A" stroke-width="2" stroke-linecap="round" stroke-linejoin="round"/>
</svg>
