<svg width="24" height="24" viewBox="0 0 24 24" fill="none" xmlns="http://www.w3.org/2000/svg">
<path d="M16.2009 10C16.2009 10 16.0009 11 13.0009 15C10.1009 18.8 14.3009 21.6 14.8009 22H14.9009C15.5009 21.5 23.1009 16.7 16.2009 10Z" stroke="#3A3A3A" stroke-width="1.5" stroke-miterlimit="10" stroke-linecap="round" stroke-linejoin="round"/>
<path d="M13.8008 7.79982C13.8008 5.49982 12.9008 3.39982 12.0008 2.19982C11.7008 1.89982 11.2008 1.99982 11.1008 2.39982C10.7008 3.89982 9.50078 7.09982 6.60078 10.8998C2.90078 15.6998 6.30078 20.8998 9.80078 21.8998C11.7008 22.3998 9.30078 20.8998 9.00078 17.7998C8.70078 13.8998 13.8008 10.9998 13.8008 7.79982Z" stroke="#3A3A3A" stroke-width="1.5" stroke-miterlimit="10" stroke-linecap="round" stroke-linejoin="round"/>
</svg>
