<svg width="24" height="24" viewBox="0 0 24 24" fill="none" xmlns="http://www.w3.org/2000/svg">
<path d="M9 8.99999V16.9C9 18.4 7.4 19.4 6 18.6L3.5 17.2C3.2 17.1 3 16.8 3 16.4V7.59999C3 7.19999 3.2 6.89999 3.5 6.69999L11.5 2.29999C11.8 2.09999 12.2 2.09999 12.5 2.29999L20.5 6.69999C20.8 6.89999 21 7.19999 21 7.59999V16.4C21 16.8 20.8 17.1 20.5 17.3L12.5 21.7C12.2 21.9 11.8 21.9 11.5 21.7L10 21" stroke="#3A3A3A" stroke-width="1.5" stroke-miterlimit="10" stroke-linecap="round" stroke-linejoin="round"/>
<path d="M17.0008 10.8C17.0008 9.8 16.2008 9 15.3008 9H13.5008C12.5008 9 11.8008 9.8 11.8008 10.7C11.8008 11.7 12.6008 12.4 13.5008 12.4H15.3008C16.3008 12.4 17.0008 13.2 17.0008 14.1C17.0008 15.1 16.2008 15.8 15.3008 15.8H13.5008C12.5008 15.8 11.8008 15 11.8008 14.1" stroke="#3A3A3A" stroke-width="1.5" stroke-miterlimit="10" stroke-linecap="round" stroke-linejoin="round"/>
</svg>
