<svg width="24" height="24" viewBox="0 0 24 24" fill="none" xmlns="http://www.w3.org/2000/svg">
<path d="M20.0297 2.47998L4.17969 18.33" stroke="#3A3A3A" stroke-width="1.5" stroke-linecap="round" stroke-linejoin="round"/>
<path d="M5.25008 13C4.83008 12.03 4.58008 10.98 4.58008 9.89999C4.58008 4.98999 8.80008 1.11999 13.6001 2.16999C15.0601 2.48999 16.3601 3.26999 17.3601 4.34999" stroke="#3A3A3A" stroke-width="1.5" stroke-linecap="round" stroke-linejoin="round"/>
<path d="M19.0599 7.29999C20.2799 11.18 18.3099 15.08 15.5199 16.87V18.03C15.5199 18.32 15.6199 18.99 14.6199 18.99H9.41991C8.38991 18.99 8.51991 18.56 8.51991 18.03V16.87C8.03991 16.57 7.58991 16.2 7.15991 15.77" stroke="#3A3A3A" stroke-width="1.5" stroke-linecap="round" stroke-linejoin="round"/>
<path d="M8.5 22C10.79 21.35 13.21 21.35 15.5 22" stroke="#3A3A3A" stroke-width="1.5" stroke-linecap="round" stroke-linejoin="round"/>
</svg>
