<svg width="24" height="24" viewBox="0 0 24 24" fill="none" xmlns="http://www.w3.org/2000/svg">
<path d="M4.91992 20.28L6.68993 21.65C6.91993 21.88 7.42992 21.99 7.77992 21.99H9.94992C10.6399 21.99 11.3799 21.48 11.5499 20.79L12.9199 16.62C13.2099 15.82 12.6899 15.13 11.8299 15.13H9.53992C9.19992 15.13 8.90992 14.8399 8.96992 14.4399L9.25993 12.61C9.36993 12.1 9.02992 11.52 8.51992 11.35C8.05992 11.18 7.48993 11.41 7.25993 11.75L4.91992 15.24" stroke="#3A3A3A" stroke-width="1.5" stroke-miterlimit="10"/>
<path d="M2 20.28V14.6801C2 13.8801 2.34 13.59 3.14 13.59H3.71C4.51 13.59 4.85 13.8801 4.85 14.6801V20.28C4.85 21.08 4.51 21.37 3.71 21.37H3.14C2.34 21.37 2 21.09 2 20.28Z" stroke="#3A3A3A" stroke-width="1.5" stroke-linecap="round" stroke-linejoin="round"/>
<path d="M19.0798 3.71973L17.3098 2.34973C17.0798 2.11973 16.5698 2.00977 16.2198 2.00977H14.0498C13.3598 2.00977 12.6198 2.51972 12.4498 3.20972L11.0798 7.37976C10.7898 8.17976 11.3098 8.86975 12.1698 8.86975H14.4598C14.7998 8.86975 15.0898 9.15981 15.0298 9.55981L14.7398 11.3898C14.6298 11.8998 14.9698 12.4798 15.4798 12.6498C15.9398 12.8198 16.5098 12.5898 16.7398 12.2498L19.0798 8.75977" stroke="#3A3A3A" stroke-width="1.5" stroke-miterlimit="10"/>
<path d="M21.9994 3.71985V9.31982C21.9994 10.1198 21.6594 10.4099 20.8594 10.4099H20.2894C19.4894 10.4099 19.1494 10.1198 19.1494 9.31982V3.71985C19.1494 2.91985 19.4894 2.62988 20.2894 2.62988H20.8594C21.6594 2.62988 21.9994 2.90985 21.9994 3.71985Z" stroke="#3A3A3A" stroke-width="1.5" stroke-linecap="round" stroke-linejoin="round"/>
</svg>
