<svg width="24" height="24" viewBox="0 0 24 24" fill="none" xmlns="http://www.w3.org/2000/svg">
<path d="M9.65039 13.8L11.2604 15.05C11.4704 15.26 11.9404 15.3599 12.2504 15.3599H14.2304C14.8504 15.3599 15.5304 14.89 15.6904 14.27L16.9404 10.4799C17.2004 9.74994 16.7304 9.12996 15.9504 9.12996H13.8704C13.5604 9.12996 13.3004 8.86996 13.3504 8.50996L13.6104 6.84993C13.7104 6.37993 13.4004 5.85992 12.9304 5.70992C12.5104 5.54992 11.9904 5.7599 11.7904 6.0699L9.6604 9.23995" stroke="#3A3A3A" stroke-width="1.5" stroke-miterlimit="10"/>
<path d="M7 13.8V8.70996C7 7.97996 7.30999 7.71997 8.03999 7.71997H8.56C9.29 7.71997 9.60001 7.97996 9.60001 8.70996V13.8C9.60001 14.53 9.29 14.79 8.56 14.79H8.03999C7.30999 14.79 7 14.53 7 13.8Z" stroke="#3A3A3A" stroke-width="1.5" stroke-linecap="round" stroke-linejoin="round"/>
<path d="M18 18.8597H17.24C16.44 18.8597 15.68 19.1697 15.12 19.7297L13.41 21.4198C12.63 22.1898 11.36 22.1898 10.58 21.4198L8.87 19.7297C8.31 19.1697 7.54 18.8597 6.75 18.8597H6C4.34 18.8597 3 17.5298 3 15.8898V4.97974C3 3.33974 4.34 2.00977 6 2.00977H18C19.66 2.00977 21 3.33974 21 4.97974V15.8898C21 17.5198 19.66 18.8597 18 18.8597Z" stroke="#3A3A3A" stroke-width="1.5" stroke-miterlimit="10" stroke-linecap="round" stroke-linejoin="round"/>
</svg>
