<svg xmlns="http://www.w3.org/2000/svg" version="1.1" xmlns:xlink="http://www.w3.org/1999/xlink" xmlns:svgjs="http://svgjs.dev/svgjs" width="1000" height="361" viewBox="0 0 1000 361"><g transform="matrix(1,0,0,1,-0.6060379041866213,0.31570219933769295)"><svg viewBox="0 0 396 143" data-background-color="#ffffff" preserveAspectRatio="xMidYMid meet" height="361" width="1000" xmlns="http://www.w3.org/2000/svg" xmlns:xlink="http://www.w3.org/1999/xlink"><g id="tight-bounds" transform="matrix(1,0,0,1,0.23999101005790635,-0.1250565498761489)"><svg viewBox="0 0 395.52 143.25011309975233" height="143.25011309975233" width="395.52"><g><svg viewBox="0 0 634.403398336348 229.76931270871026" height="143.25011309975233" width="395.52"><g><rect width="9.49399233980806" height="167.08984028383048" x="204.5360229080372" y="31.339736212439888" fill="#8bc53f" opacity="1" stroke-width="0" stroke="transparent" fill-opacity="1" class="rect-o-0" data-fill-palette-color="primary" rx="1%" id="o-0" data-palette-color="#8bc53f"></rect></g><g transform="matrix(1,0,0,1,238.88339833634802,31.755382581305128)"><svg viewBox="0 0 395.52 166.2585475461" height="166.2585475461" width="395.52"><g><svg viewBox="0 0 395.52 166.2585475461" height="166.2585475461" width="395.52"><g><svg viewBox="0 0 395.52 105.27704251386322" height="105.27704251386322" width="395.52"><g transform="matrix(1,0,0,1,0,0)"><svg width="395.52" viewBox="2.0999999046325684 -35.75 135.239990234375 36" height="105.27704251386322" data-palette-color="#8bc53f"><g class="undefined-text-0" data-fill-palette-color="primary" id="text-0"><path d="M18.7 0.25L18.7 0.25Q15.15 0.25 12.1-1.28 9.05-2.8 6.8-5.4 4.55-8 3.33-11.2 2.1-14.4 2.1-17.8L2.1-17.8Q2.1-21.4 3.33-24.63 4.55-27.85 6.75-30.35 8.95-32.85 11.95-34.3 14.95-35.75 18.5-35.75L18.5-35.75Q23.75-35.75 27.05-33.6 30.35-31.45 32.05-28L32.05-28 29.35-26.2Q27.65-29.5 24.8-31.05 21.95-32.6 18.45-32.6L18.45-32.6Q15.5-32.6 13.13-31.35 10.75-30.1 9.05-28 7.35-25.9 6.48-23.25 5.6-20.6 5.6-17.75L5.6-17.75Q5.6-14.75 6.6-12.08 7.6-9.4 9.45-7.33 11.3-5.25 13.73-4.08 16.15-2.9 18.95-2.9L18.95-2.9Q22.2-2.9 25.1-4.53 28-6.15 30.65-9.55L30.65-9.55 30.65-5.85Q25.6 0.25 18.7 0.25ZM30.1 0L30.1-14.75 22.2-14.75 22.2-17.45 33.05-17.45 33.05 0 30.1 0ZM43.75 0L40.25 0 40.25-35.5 55.25-35.5Q57.55-35.5 59.45-34.55 61.35-33.6 62.77-31.98 64.2-30.35 64.97-28.38 65.75-26.4 65.75-24.35L65.75-24.35Q65.75-21.8 64.77-19.55 63.8-17.3 62.02-15.75 60.25-14.2 57.85-13.7L57.85-13.7 66.55 0 62.6 0 54.25-13.1 43.75-13.1 43.75 0ZM43.75-32.4L43.75-16.2 55.35-16.2Q57.45-16.2 59-17.35 60.55-18.5 61.4-20.38 62.25-22.25 62.25-24.35L62.25-24.35Q62.25-26.5 61.27-28.33 60.3-30.15 58.67-31.28 57.05-32.4 55.05-32.4L55.05-32.4 43.75-32.4ZM87.35 0.25L87.35 0.25Q83.15 0.25 80.25-1.25 77.35-2.75 75.65-5.28 73.95-7.8 73.17-11 72.4-14.2 72.4-17.6L72.4-17.6 72.4-35.5 75.85-35.5 75.85-17.6Q75.85-14.85 76.42-12.2 77-9.55 78.3-7.45 79.6-5.35 81.8-4.13 84-2.9 87.3-2.9L87.3-2.9Q90.7-2.9 92.92-4.17 95.15-5.45 96.42-7.55 97.7-9.65 98.25-12.28 98.8-14.9 98.8-17.6L98.8-17.6 98.8-35.5 102.3-35.5 102.3-17.6Q102.3-14.05 101.5-10.8 100.7-7.55 98.92-5.1 97.15-2.65 94.3-1.2 91.45 0.25 87.35 0.25ZM137.34-9.15L137.34-9.15Q137.34-6.5 135.99-4.42 134.64-2.35 132.37-1.18 130.09 0 127.39 0L127.39 0 110.64 0 110.64-35.5 127.74-35.5Q130.24-35.5 132.07-34.18 133.89-32.85 134.87-30.78 135.84-28.7 135.84-26.45L135.84-26.45Q135.84-23.8 134.49-21.55 133.14-19.3 130.74-18.2L130.74-18.2Q133.79-17.3 135.57-14.85 137.34-12.4 137.34-9.15ZM133.84-9.75L133.84-9.75Q133.84-11.55 133.04-13.08 132.24-14.6 130.87-15.55 129.49-16.5 127.74-16.5L127.74-16.5 114.14-16.5 114.14-3.05 127.39-3.05Q129.19-3.05 130.64-4 132.09-4.95 132.97-6.48 133.84-8 133.84-9.75ZM126.64-32.45L114.14-32.45 114.14-19.35 126.34-19.35Q128.09-19.35 129.44-20.28 130.79-21.2 131.59-22.7 132.39-24.2 132.39-25.9L132.39-25.9Q132.39-27.7 131.64-29.18 130.89-30.65 129.59-31.55 128.29-32.45 126.64-32.45L126.64-32.45Z" fill="#8bc53f" data-fill-palette-color="primary"></path></g></svg></g></svg></g><g transform="matrix(1,0,0,1,0,130.130425602366)"><svg viewBox="0 0 232.209792 36.12812194373401" height="36.12812194373401" width="232.209792"><g transform="matrix(1,0,0,1,0,0)"><svg width="232.209792" viewBox="-0.25 -36 234.5800018310547 36.5" height="36.12812194373401" data-palette-color="#8bc53f"><path d="M23.75-34.3L28.8-34.3 16.75-13.25 16.75 0 11.85 0 11.85-13.25-0.25-34.3 5.35-34.3 14.5-18.35 14.7-18.35 23.75-34.3ZM42.95-26.05Q48.3-26.05 51.5-22.75 54.7-19.45 54.7-13.7L54.7-13.7 54.7-11.85Q54.7-6.1 51.55-2.8 48.4 0.5 42.95 0.5L42.95 0.5Q37.5 0.5 34.35-2.8 31.2-6.1 31.2-11.85L31.2-11.85 31.2-13.7Q31.2-19.45 34.4-22.75 37.6-26.05 42.95-26.05L42.95-26.05ZM42.95-22.3Q39.6-22.3 37.75-20 35.9-17.7 35.9-13.25L35.9-13.25 35.9-12.3Q35.9-7.95 37.72-5.6 39.55-3.25 42.95-3.25L42.95-3.25Q46.25-3.25 48.12-5.58 50-7.9 50-12.3L50-12.3 50-13.25Q50-17.6 48.17-19.95 46.35-22.3 42.95-22.3L42.95-22.3ZM82.8-25.55L82.8-5Q82.8-4.1 83.2-3.68 83.59-3.25 84.2-3.25L84.2-3.25Q85.3-3.25 86.45-3.95L86.45-3.95 86.45-0.5Q84.9 0.5 83.3 0.5L83.3 0.5Q80.59 0.5 79.52-0.6 78.45-1.7 78.34-3.7L78.34-3.7Q77-1.7 74.87-0.6 72.75 0.5 70 0.5L70 0.5Q66.14 0.5 63.67-1.78 61.2-4.05 61.2-8.35L61.2-8.35 61.2-25.55 65.89-25.55 65.89-9.2Q65.89-3.25 71.3-3.25L71.3-3.25Q73.05-3.25 74.62-4.2 76.2-5.15 77.15-6.78 78.09-8.4 78.09-10.35L78.09-10.35 78.09-25.55 82.8-25.55ZM103.84-26.05Q107.39-26.05 109.39-23.78 111.39-21.5 111.39-18.05L111.39-18.05 111.24-16.15 107.09-16.15 107.09-17.25Q107.09-18.75 106.34-19.9 105.59-21.05 104.44-21.68 103.29-22.3 102.14-22.3L102.14-22.3Q99.74-22.3 98.39-20.4 97.04-18.5 97.04-15.25L97.04-15.25 97.04 0 92.34 0 92.34-25.55 95.69-25.55 96.39-21.75Q96.69-22.75 97.74-23.75 98.79-24.75 100.37-25.4 101.94-26.05 103.84-26.05L103.84-26.05ZM155.99-26.05Q159.94-26.05 162.14-23.75 164.34-21.45 164.34-17.2L164.34-17.2 164.34 0 159.64 0 159.64-16.35Q159.64-22.3 155.04-22.3L155.04-22.3Q153.44-22.3 152.06-21.35 150.69-20.4 149.86-18.78 149.04-17.15 149.04-15.2L149.04-15.2 149.04 0 144.34 0 144.34-16.35Q144.34-22.3 139.74-22.3L139.74-22.3Q138.14-22.3 136.76-21.35 135.39-20.4 134.56-18.78 133.74-17.15 133.74-15.2L133.74-15.2 133.74 0 129.04 0 129.04-25.55 132.44-25.55 133.09-21.8Q135.99-26.05 141.14-26.05L141.14-26.05Q146.19-26.05 148.14-21.8L148.14-21.8Q149.84-24.2 151.79-25.13 153.74-26.05 155.99-26.05L155.99-26.05ZM182.64-26.05Q185.79-26.05 188.21-24.73 190.64-23.4 191.99-20.95 193.34-18.5 193.34-15.25L193.34-15.25 193.34-11.7 175.49-11.7Q175.59-7.65 177.39-5.45 179.19-3.25 182.74-3.25L182.74-3.25Q185.89-3.25 187.39-5.1 188.89-6.95 188.89-9.5L188.89-9.5 193.34-9.5Q193.34-6.5 191.96-4.25 190.59-2 188.16-0.75 185.74 0.5 182.64 0.5L182.64 0.5 182.44 0.5Q177.04 0.5 173.91-2.98 170.79-6.45 170.79-12.25L170.79-12.25 170.79-13.25Q170.79-17.05 172.19-19.95 173.59-22.85 176.19-24.45 178.79-26.05 182.29-26.05L182.29-26.05 182.64-26.05ZM182.39-22.3Q179.54-22.3 177.76-20.55 175.99-18.8 175.59-15.35L175.59-15.35 188.69-15.35 188.69-15.95Q188.69-18.8 186.96-20.55 185.24-22.3 182.39-22.3L182.39-22.3ZM210.23-26.05Q215.28-26.05 217.76-24.05 220.23-22.05 220.23-18.25L220.23-18.25 220.23-5Q220.23-4.1 220.63-3.68 221.03-3.25 221.63-3.25L221.63-3.25Q222.78-3.25 223.93-3.95L223.93-3.95 223.93-0.5Q222.23 0.5 220.08 0.5L220.08 0.5Q217.93 0.5 216.88-0.73 215.83-1.95 215.73-4.1L215.73-4.1Q212.63 0.5 206.78 0.5L206.78 0.5Q202.58 0.5 200.51-1.33 198.43-3.15 198.43-7.1L198.43-7.1Q198.43-10.2 200.03-11.98 201.63-13.75 205.33-14.55 209.03-15.35 215.53-15.35L215.53-15.35 215.53-17.7Q215.53-20.25 214.03-21.28 212.53-22.3 209.68-22.3L209.68-22.3Q206.98-22.3 205.48-21.25 203.98-20.2 203.98-18.3L203.98-18.3 203.98-17.7 199.38-17.7Q199.28-18.4 199.28-19.35L199.28-19.35Q199.28-21.1 200.68-22.65 202.08-24.2 204.48-25.13 206.88-26.05 209.78-26.05L209.78-26.05 210.23-26.05ZM215.53-11.7Q210.28-11.7 207.61-11.18 204.93-10.65 204.03-9.6 203.13-8.55 203.13-6.7L203.13-6.7Q203.13-3.25 208.38-3.25L208.38-3.25Q210.23-3.25 211.88-4.17 213.53-5.1 214.53-6.8 215.53-8.5 215.53-10.7L215.53-10.7 215.53-11.7ZM229.63-36L234.33-36 234.33 0 229.63 0 229.63-36Z" opacity="1" transform="matrix(1,0,0,1,0,0)" fill="#8bc53f" class="undefined-text-1" data-fill-palette-color="secondary" id="text-1"></path></svg></g></svg></g></svg></g></svg></g><g><svg viewBox="0 0 179.68263981953444 229.76931270871026" height="229.76931270871026" width="179.68263981953444"><g><svg xmlns="http://www.w3.org/2000/svg" xmlns:xlink="http://www.w3.org/1999/xlink" version="1.1" x="0" y="0" viewBox="14.630999565124512 4.7129998207092285 70.73700714111328 90.45500183105469" enable-background="new 0 0 100 100" xml:space="preserve" height="229.76931270871026" width="179.68263981953444" class="icon-icon-0" data-fill-palette-color="accent" id="icon-0"><g fill="#5d9943" data-fill-palette-color="accent"><path d="M73.616 29.424c0-4.441-3.603-8.043-8.041-8.043-2.007 0-3.818 0.759-5.229 1.974-1.406-1.214-3.218-1.974-5.219-1.974-2.029 0-3.86 0.776-5.273 2.014-1.416-1.238-3.246-2.014-5.273-2.014-4.441 0-8.041 3.602-8.041 8.043 0 3.329 2.027 6.19 4.912 7.41v12.557H68.7v-12.56C71.589 35.611 73.616 32.753 73.616 29.424z" fill="#5d9943" data-fill-palette-color="accent"></path><rect x="41.452" y="53.405" width="27.248" height="4.021" fill="#5d9943" data-fill-palette-color="accent"></rect></g><path d="M23.102 4.713c-4.671 0-8.471 3.798-8.471 8.467v62.357c0 4.672 3.805 8.472 8.479 8.472h23.243v11.159l8.492-5.038 8.482 5.038V84.012l17.717 0.003V71.775h4.324V4.718L23.102 4.713zM76.338 79.302l-13.01-0.001v-3.386H46.354v3.386H23.11c-2.078 0-3.771-1.688-3.771-3.764s1.692-3.765 3.771-3.765h53.228V79.302zM80.66 67.067H29.441V9.427H80.66V67.067z" fill="#5d9943" data-fill-palette-color="accent"></path></svg></g></svg></g></svg></g><defs></defs></svg><rect width="395.52" height="143.25011309975233" fill="none" stroke="none" visibility="hidden"></rect></g></svg></g></svg>