<svg width="24" height="24" viewBox="0 0 24 24" fill="none" xmlns="http://www.w3.org/2000/svg">
<path d="M21.9301 6.76001L18.5601 20.29C18.3201 21.3 17.4201 22 16.3801 22H3.24013C1.73013 22 0.650145 20.5199 1.10015 19.0699L5.31014 5.55005C5.60014 4.61005 6.47015 3.95996 7.45015 3.95996H19.7501C20.7001 3.95996 21.4901 4.53997 21.8201 5.33997C22.0101 5.76997 22.0501 6.26001 21.9301 6.76001Z" stroke="#3A3A3A" stroke-width="1.5" stroke-miterlimit="10"/>
<path d="M16 22H20.78C22.07 22 23.08 20.91 22.99 19.62L22 6" stroke="#3A3A3A" stroke-width="1.5" stroke-miterlimit="10" stroke-linecap="round" stroke-linejoin="round"/>
<path d="M9.67969 6.38L10.7197 2.06006" stroke="#3A3A3A" stroke-width="1.5" stroke-miterlimit="10" stroke-linecap="round" stroke-linejoin="round"/>
<path d="M16.3799 6.38977L17.3199 2.0498" stroke="#3A3A3A" stroke-width="1.5" stroke-miterlimit="10" stroke-linecap="round" stroke-linejoin="round"/>
<path d="M7.7002 12H15.7002" stroke="#3A3A3A" stroke-width="1.5" stroke-miterlimit="10" stroke-linecap="round" stroke-linejoin="round"/>
<path d="M6.7002 16H14.7002" stroke="#3A3A3A" stroke-width="1.5" stroke-miterlimit="10" stroke-linecap="round" stroke-linejoin="round"/>
</svg>
