<svg width="24" height="24" viewBox="0 0 24 24" fill="none" xmlns="http://www.w3.org/2000/svg">
<path d="M15.0291 10.7697L20.6891 6.97973C21.2591 6.59973 21.4091 5.81973 21.0291 5.25973L19.2091 2.54971C18.8291 1.97971 18.0491 1.82971 17.4891 2.20971L11.8291 5.99972L15.0291 10.7697Z" stroke="#3A3A3A" stroke-width="1.5" stroke-linecap="round" stroke-linejoin="round"/>
<path d="M12.1732 6.47896L7.39551 9.67883L9.95541 13.501L14.7331 10.3011L12.1732 6.47896Z" stroke="#3A3A3A" stroke-width="1.5" stroke-linecap="round" stroke-linejoin="round"/>
<path d="M5.82955 15.8997L9.77955 13.2597L7.53955 9.91974L3.58955 12.5597C3.12955 12.8697 3.00955 13.4897 3.31955 13.9497L4.44955 15.6297C4.74955 16.0797 5.36955 16.1997 5.82955 15.8997Z" stroke="#3A3A3A" stroke-width="1.5" stroke-linecap="round" stroke-linejoin="round"/>
<path d="M12.0496 12.2002L7.55957 22.0002" stroke="#3A3A3A" stroke-width="1.5" stroke-linecap="round" stroke-linejoin="round"/>
<path d="M12 12.2L16.44 22" stroke="#3A3A3A" stroke-width="1.5" stroke-linecap="round" stroke-linejoin="round"/>
</svg>
