<svg width="22" height="20" viewBox="0 0 22 20" fill="none" xmlns="http://www.w3.org/2000/svg">
<path fill-rule="evenodd" clip-rule="evenodd" d="M2.88534 3.2371C2.20538 3.86848 1.75 4.89295 1.75 6.5V13.5C1.75 15.107 2.20538 16.1315 2.88534 16.7629C3.57535 17.4036 4.61497 17.75 6 17.75H16C17.385 17.75 18.4246 17.4036 19.1147 16.7629C19.7946 16.1315 20.25 15.107 20.25 13.5V6.5C20.25 4.89295 19.7946 3.86848 19.1147 3.2371C18.4246 2.59637 17.385 2.25 16 2.25H6C4.61497 2.25 3.57535 2.59637 2.88534 3.2371ZM1.86466 2.1379C2.92465 1.15363 4.38503 0.75 6 0.75H16C17.615 0.75 19.0754 1.15363 20.1353 2.1379C21.2054 3.13152 21.75 4.60705 21.75 6.5V13.5C21.75 15.393 21.2054 16.8685 20.1353 17.8621C19.0754 18.8464 17.615 19.25 16 19.25H6C4.38503 19.25 2.92465 18.8464 1.86466 17.8621C0.794615 16.8685 0.25 15.393 0.25 13.5V6.5C0.25 4.60705 0.794615 3.13152 1.86466 2.1379Z" fill="#3A3A3A"/>
<path fill-rule="evenodd" clip-rule="evenodd" d="M11 7.75C9.75736 7.75 8.75 8.75736 8.75 10C8.75 11.2426 9.75736 12.25 11 12.25C12.2426 12.25 13.25 11.2426 13.25 10C13.25 8.75736 12.2426 7.75 11 7.75ZM7.25 10C7.25 7.92893 8.92893 6.25 11 6.25C13.0711 6.25 14.75 7.92893 14.75 10C14.75 12.0711 13.0711 13.75 11 13.75C8.92893 13.75 7.25 12.0711 7.25 10Z" fill="#3A3A3A"/>
<path fill-rule="evenodd" clip-rule="evenodd" d="M2.75 6.5C2.75 4.70579 4.20579 3.25 6 3.25H7.5C7.91421 3.25 8.25 3.58579 8.25 4C8.25 4.41421 7.91421 4.75 7.5 4.75H6C5.03421 4.75 4.25 5.53421 4.25 6.5V8C4.25 8.41421 3.91421 8.75 3.5 8.75C3.08579 8.75 2.75 8.41421 2.75 8V6.5Z" fill="#3A3A3A"/>
<path fill-rule="evenodd" clip-rule="evenodd" d="M13.75 4C13.75 3.58579 14.0858 3.25 14.5 3.25H16C17.7942 3.25 19.25 4.70579 19.25 6.5V8C19.25 8.41421 18.9142 8.75 18.5 8.75C18.0858 8.75 17.75 8.41421 17.75 8V6.5C17.75 5.53421 16.9658 4.75 16 4.75H14.5C14.0858 4.75 13.75 4.41421 13.75 4Z" fill="#3A3A3A"/>
<path fill-rule="evenodd" clip-rule="evenodd" d="M3.5 11.25C3.91421 11.25 4.25 11.5858 4.25 12V13.5C4.25 14.4658 5.03421 15.25 6 15.25H7.5C7.91421 15.25 8.25 15.5858 8.25 16C8.25 16.4142 7.91421 16.75 7.5 16.75H6C4.20579 16.75 2.75 15.2942 2.75 13.5V12C2.75 11.5858 3.08579 11.25 3.5 11.25Z" fill="#3A3A3A"/>
<path fill-rule="evenodd" clip-rule="evenodd" d="M18.5 11.25C18.9142 11.25 19.25 11.5858 19.25 12V13.5C19.25 15.2942 17.7942 16.75 16 16.75H14.5C14.0858 16.75 13.75 16.4142 13.75 16C13.75 15.5858 14.0858 15.25 14.5 15.25H16C16.9658 15.25 17.75 14.4658 17.75 13.5V12C17.75 11.5858 18.0858 11.25 18.5 11.25Z" fill="#3A3A3A"/>
</svg>
