<svg width="22" height="22" viewBox="0 0 22 22" fill="none" xmlns="http://www.w3.org/2000/svg">
<path fill-rule="evenodd" clip-rule="evenodd" d="M9.95999 8.24001C9.61294 8.24001 9.26001 8.55439 9.26001 9.02C9.26001 9.37257 9.33567 9.49972 9.37361 9.54804C9.41861 9.60534 9.50864 9.67676 9.74941 9.76268L12.7615 10.8134C13.1139 10.9388 13.5166 11.1357 13.8174 11.5209C14.1248 11.9146 14.25 12.4057 14.25 12.97C14.25 14.1977 13.2998 15.25 12.05 15.25H10.17C8.80474 15.25 7.75 14.1025 7.75 12.75C7.75 12.3358 8.08579 12 8.5 12C8.91421 12 9.25 12.3358 9.25 12.75C9.25 13.3375 9.69529 13.75 10.17 13.75H12.05C12.4002 13.75 12.75 13.4423 12.75 12.97C12.75 12.6243 12.6752 12.4954 12.6351 12.4441C12.5886 12.3845 12.4967 12.3116 12.2606 12.2273L9.2485 11.1766C8.90083 11.0528 8.49626 10.8595 8.1939 10.4745C7.88434 10.0803 7.76001 9.58743 7.76001 9.02C7.76001 7.80562 8.70704 6.74001 9.95999 6.74001H11.84C13.2053 6.74001 14.26 7.88755 14.26 9.24001C14.26 9.65422 13.9242 9.99001 13.51 9.99001C13.0958 9.99001 12.76 9.65422 12.76 9.24001C12.76 8.65246 12.3147 8.24001 11.84 8.24001H9.95999Z" fill="#3A3A3A"/>
<path fill-rule="evenodd" clip-rule="evenodd" d="M11 5.75C11.4142 5.75 11.75 6.08579 11.75 6.5V15.5C11.75 15.9142 11.4142 16.25 11 16.25C10.5858 16.25 10.25 15.9142 10.25 15.5V6.5C10.25 6.08579 10.5858 5.75 11 5.75Z" fill="#3A3A3A"/>
<path fill-rule="evenodd" clip-rule="evenodd" d="M11 1.75C5.89421 1.75 1.75 5.89421 1.75 11C1.75 16.1058 5.89421 20.25 11 20.25C16.1058 20.25 20.25 16.1058 20.25 11C20.25 10.5858 20.5858 10.25 21 10.25C21.4142 10.25 21.75 10.5858 21.75 11C21.75 16.9342 16.9342 21.75 11 21.75C5.06579 21.75 0.25 16.9342 0.25 11C0.25 5.06579 5.06579 0.25 11 0.25C11.4142 0.25 11.75 0.585786 11.75 1C11.75 1.41421 11.4142 1.75 11 1.75Z" fill="#3A3A3A"/>
<path fill-rule="evenodd" clip-rule="evenodd" d="M16.25 1C16.25 0.585786 16.5858 0.25 17 0.25H21C21.4142 0.25 21.75 0.585786 21.75 1V5C21.75 5.41421 21.4142 5.75 21 5.75C20.5858 5.75 20.25 5.41421 20.25 5V1.75H17C16.5858 1.75 16.25 1.41421 16.25 1Z" fill="#3A3A3A"/>
<path fill-rule="evenodd" clip-rule="evenodd" d="M21.5303 0.46967C21.8232 0.762563 21.8232 1.23744 21.5303 1.53033L16.5303 6.53033C16.2374 6.82322 15.7626 6.82322 15.4697 6.53033C15.1768 6.23744 15.1768 5.76256 15.4697 5.46967L20.4697 0.46967C20.7626 0.176777 21.2374 0.176777 21.5303 0.46967Z" fill="#3A3A3A"/>
</svg>
