<svg width="22" height="20" viewBox="0 0 22 20" fill="none" xmlns="http://www.w3.org/2000/svg">
<path fill-rule="evenodd" clip-rule="evenodd" d="M2.88534 3.2371C2.20538 3.86848 1.75 4.89295 1.75 6.5V13.5C1.75 15.107 2.20538 16.1315 2.88534 16.7629C3.57535 17.4036 4.61497 17.75 6 17.75H16C17.385 17.75 18.4246 17.4036 19.1147 16.7629C19.7946 16.1315 20.25 15.107 20.25 13.5V6.5C20.25 4.89295 19.7946 3.86848 19.1147 3.2371C18.4246 2.59637 17.385 2.25 16 2.25H6C4.61497 2.25 3.57535 2.59637 2.88534 3.2371ZM1.86466 2.1379C2.92465 1.15363 4.38503 0.75 6 0.75H16C17.615 0.75 19.0754 1.15363 20.1353 2.1379C21.2054 3.13152 21.75 4.60705 21.75 6.5V13.5C21.75 15.393 21.2054 16.8685 20.1353 17.8621C19.0754 18.8464 17.615 19.25 16 19.25H6C4.38503 19.25 2.92465 18.8464 1.86466 17.8621C0.794615 16.8685 0.25 15.393 0.25 13.5V6.5C0.25 4.60705 0.794615 3.13152 1.86466 2.1379Z" fill="#3A3A3A"/>
<path fill-rule="evenodd" clip-rule="evenodd" d="M11 7.75C9.75736 7.75 8.75 8.75736 8.75 10C8.75 11.2426 9.75736 12.25 11 12.25C12.2426 12.25 13.25 11.2426 13.25 10C13.25 8.75736 12.2426 7.75 11 7.75ZM7.25 10C7.25 7.92893 8.92893 6.25 11 6.25C13.0711 6.25 14.75 7.92893 14.75 10C14.75 12.0711 13.0711 13.75 11 13.75C8.92893 13.75 7.25 12.0711 7.25 10Z" fill="#3A3A3A"/>
<path fill-rule="evenodd" clip-rule="evenodd" d="M6 1.25C6.41421 1.25 6.75 1.58579 6.75 2V3C6.75 4.54155 6.50275 5.80791 5.65533 6.65533C4.80791 7.50275 3.54155 7.75 2 7.75H1C0.585786 7.75 0.25 7.41421 0.25 7C0.25 6.58579 0.585786 6.25 1 6.25H2C3.45845 6.25 4.19209 5.99725 4.59467 5.59467C4.99725 5.19209 5.25 4.45845 5.25 3V2C5.25 1.58579 5.58579 1.25 6 1.25Z" fill="#3A3A3A"/>
<path fill-rule="evenodd" clip-rule="evenodd" d="M16 1.25C16.4142 1.25 16.75 1.58579 16.75 2V3C16.75 4.45845 17.0028 5.19209 17.4053 5.59467C17.8079 5.99725 18.5415 6.25 20 6.25H21C21.4142 6.25 21.75 6.58579 21.75 7C21.75 7.41421 21.4142 7.75 21 7.75H20C18.4585 7.75 17.1921 7.50275 16.3447 6.65533C15.4972 5.80791 15.25 4.54155 15.25 3V2C15.25 1.58579 15.5858 1.25 16 1.25Z" fill="#3A3A3A"/>
<path fill-rule="evenodd" clip-rule="evenodd" d="M0.25 13C0.25 12.5858 0.585786 12.25 1 12.25H2C3.54155 12.25 4.80791 12.4972 5.65533 13.3447C6.50275 14.1921 6.75 15.4585 6.75 17V18C6.75 18.4142 6.41421 18.75 6 18.75C5.58579 18.75 5.25 18.4142 5.25 18V17C5.25 15.5415 4.99725 14.8079 4.59467 14.4053C4.19209 14.0028 3.45845 13.75 2 13.75H1C0.585786 13.75 0.25 13.4142 0.25 13Z" fill="#3A3A3A"/>
<path fill-rule="evenodd" clip-rule="evenodd" d="M16.3447 13.3447C17.1921 12.4972 18.4585 12.25 20 12.25H21C21.4142 12.25 21.75 12.5858 21.75 13C21.75 13.4142 21.4142 13.75 21 13.75H20C18.5415 13.75 17.8079 14.0028 17.4053 14.4053C17.0028 14.8079 16.75 15.5415 16.75 17V18C16.75 18.4142 16.4142 18.75 16 18.75C15.5858 18.75 15.25 18.4142 15.25 18V17C15.25 15.4585 15.4972 14.1921 16.3447 13.3447Z" fill="#3A3A3A"/>
</svg>
