<svg width="24" height="24" viewBox="0 0 24 24" fill="none" xmlns="http://www.w3.org/2000/svg">
<path d="M12.0001 9.32C13.1901 9.32 14.1601 8.35 14.1601 7.16C14.1601 5.97 13.1901 5 12.0001 5C10.8101 5 9.84009 5.97 9.84009 7.16C9.84009 8.35 10.8101 9.32 12.0001 9.32Z" stroke="#3A3A3A" stroke-width="1.5" stroke-linecap="round" stroke-linejoin="round"/>
<path d="M6.79086 18.9997C7.98086 18.9997 8.95086 18.0297 8.95086 16.8397C8.95086 15.6497 7.98086 14.6797 6.79086 14.6797C5.60086 14.6797 4.63086 15.6497 4.63086 16.8397C4.63086 18.0297 5.59086 18.9997 6.79086 18.9997Z" stroke="#3A3A3A" stroke-width="1.5" stroke-linecap="round" stroke-linejoin="round"/>
<path d="M17.2108 18.9997C18.4008 18.9997 19.3708 18.0297 19.3708 16.8397C19.3708 15.6497 18.4008 14.6797 17.2108 14.6797C16.0208 14.6797 15.0508 15.6497 15.0508 16.8397C15.0508 18.0297 16.0208 18.9997 17.2108 18.9997Z" stroke="#3A3A3A" stroke-width="1.5" stroke-linecap="round" stroke-linejoin="round"/>
</svg>
