<svg width="24" height="24" viewBox="0 0 24 24" fill="none" xmlns="http://www.w3.org/2000/svg">
<path d="M12.35 21H8.64999C3.89999 21 2 19.1 2 14.35V8.65002C2 3.90002 3.89999 2 8.64999 2H14.35C19.1 2 21 3.90002 21 8.65002V12.35" stroke="#3A3A3A" stroke-width="1.5" stroke-linecap="round" stroke-linejoin="round"/>
<path d="M6.72002 14.42C7.52083 14.42 8.17001 13.7708 8.17001 12.97C8.17001 12.1692 7.52083 11.52 6.72002 11.52C5.9192 11.52 5.27002 12.1692 5.27002 12.97C5.27002 13.7708 5.9192 14.42 6.72002 14.42Z" stroke="#3A3A3A" stroke-width="1.5" stroke-linecap="round" stroke-linejoin="round"/>
<path d="M13.4799 12V6.34001C13.4799 5.13001 12.7199 4.96997 11.9599 5.17997L9.06995 5.96995C8.54995 6.10995 8.17993 6.52999 8.17993 7.12999V8.14V8.81999V12.97" stroke="#3A3A3A" stroke-width="1.5" stroke-linecap="round" stroke-linejoin="round"/>
<path d="M12.0301 13.45C12.8309 13.45 13.4801 12.8008 13.4801 12C13.4801 11.1992 12.8309 10.55 12.0301 10.55C11.2293 10.55 10.5801 11.1992 10.5801 12C10.5801 12.8008 11.2293 13.45 12.0301 13.45Z" stroke="#3A3A3A" stroke-width="1.5" stroke-linecap="round" stroke-linejoin="round"/>
<path d="M8.16992 8.83002L13.4799 7.38" stroke="#3A3A3A" stroke-width="1.5" stroke-linecap="round" stroke-linejoin="round"/>
<path d="M17.94 21.28C19.7073 21.28 21.14 19.8473 21.14 18.08C21.14 16.3127 19.7073 14.88 17.94 14.88C16.1727 14.88 14.74 16.3127 14.74 18.08C14.74 19.8473 16.1727 21.28 17.94 21.28Z" stroke="#3A3A3A" stroke-width="1.5" stroke-linecap="round" stroke-linejoin="round"/>
<path d="M21.74 21.88L20.74 20.88" stroke="#3A3A3A" stroke-width="1.5" stroke-linecap="round" stroke-linejoin="round"/>
</svg>
