<svg width="24" height="24" viewBox="0 0 24 24" fill="none" xmlns="http://www.w3.org/2000/svg">
<path d="M17 22H7C4 22 2 20.5 2 17V12C2 8.5 4 7 7 7H17C20 7 22 8.5 22 12V17C22 20.5 20 22 17 22Z" stroke="#3A3A3A" stroke-width="1.5" stroke-miterlimit="10" stroke-linecap="round" stroke-linejoin="round"/>
<path d="M6 4.5H18" stroke="#3A3A3A" stroke-width="1.5" stroke-miterlimit="10" stroke-linecap="round" stroke-linejoin="round"/>
<path d="M9 2H15" stroke="#3A3A3A" stroke-width="1.5" stroke-miterlimit="10" stroke-linecap="round" stroke-linejoin="round"/>
<path d="M8.89001 19.11C9.64664 19.11 10.26 18.4966 10.26 17.74C10.26 16.9834 9.64664 16.37 8.89001 16.37C8.13338 16.37 7.52002 16.9834 7.52002 17.74C7.52002 18.4966 8.13338 19.11 8.89001 19.11Z" stroke="#3A3A3A" stroke-width="1.5" stroke-linecap="round" stroke-linejoin="round"/>
<path d="M15.28 16.83V11.48C15.28 10.34 14.57 10.18 13.84 10.38L11.1 11.13C10.6 11.27 10.26 11.66 10.26 12.23V13.18V13.82V17.74" stroke="#3A3A3A" stroke-width="1.5" stroke-linecap="round" stroke-linejoin="round"/>
<path d="M13.91 18.2C14.6667 18.2 15.2801 17.5866 15.2801 16.83C15.2801 16.0734 14.6667 15.46 13.91 15.46C13.1534 15.46 12.54 16.0734 12.54 16.83C12.54 17.5866 13.1534 18.2 13.91 18.2Z" stroke="#3A3A3A" stroke-width="1.5" stroke-linecap="round" stroke-linejoin="round"/>
<path d="M10.26 13.83L15.28 12.46" stroke="#3A3A3A" stroke-width="1.5" stroke-linecap="round" stroke-linejoin="round"/>
</svg>
