<svg width="24" height="24" viewBox="0 0 24 24" fill="none" xmlns="http://www.w3.org/2000/svg">
<path d="M22 15V9C22 4 20 2 15 2H9C4 2 2 4 2 9V15C2 20 4 22 9 22H15C20 22 22 20 22 15Z" stroke="#3A3A3A" stroke-width="1.5" stroke-linecap="round" stroke-linejoin="round"/>
<path d="M7 2.5V21.5" stroke="#3A3A3A" stroke-width="1.5" stroke-linecap="round" stroke-linejoin="round"/>
<path d="M11.47 16.8C12.2929 16.8 12.96 16.1329 12.96 15.31C12.96 14.4871 12.2929 13.82 11.47 13.82C10.6471 13.82 9.97998 14.4871 9.97998 15.31C9.97998 16.1329 10.6471 16.8 11.47 16.8Z" stroke="#3A3A3A" stroke-width="1.5" stroke-linecap="round" stroke-linejoin="round"/>
<path d="M18.43 14.31V8.47996C18.43 7.23996 17.65 7.07 16.86 7.28L13.88 8.09C13.34 8.24 12.96 8.66995 12.96 9.28995V10.33V11.03V15.3" stroke="#3A3A3A" stroke-width="1.5" stroke-linecap="round" stroke-linejoin="round"/>
<path d="M16.9299 15.8C17.7528 15.8 18.4199 15.1329 18.4199 14.31C18.4199 13.4871 17.7528 12.82 16.9299 12.82C16.107 12.82 15.4399 13.4871 15.4399 14.31C15.4399 15.1329 16.107 15.8 16.9299 15.8Z" stroke="#3A3A3A" stroke-width="1.5" stroke-linecap="round" stroke-linejoin="round"/>
<path d="M12.96 11.04L18.43 9.54999" stroke="#3A3A3A" stroke-width="1.5" stroke-linecap="round" stroke-linejoin="round"/>
</svg>
