<svg width="24" height="24" viewBox="0 0 24 24" fill="none" xmlns="http://www.w3.org/2000/svg">
<path d="M6.28016 22C8.00328 22 9.40016 20.6031 9.40016 18.88C9.40016 17.1569 8.00328 15.76 6.28016 15.76C4.55703 15.76 3.16016 17.1569 3.16016 18.88C3.16016 20.6031 4.55703 22 6.28016 22Z" stroke="#3A3A3A" stroke-width="1.5" stroke-linecap="round" stroke-linejoin="round"/>
<path d="M20.8399 16.8V4.59997C20.8399 1.99997 19.2099 1.63997 17.5599 2.08997L11.3199 3.78997C10.1799 4.09997 9.3999 4.99997 9.3999 6.29997V8.46997V9.92997V18.87" stroke="#3A3A3A" stroke-width="1.5" stroke-linecap="round" stroke-linejoin="round"/>
<path d="M17.7201 19.92C19.4432 19.92 20.8401 18.5231 20.8401 16.8C20.8401 15.0769 19.4432 13.68 17.7201 13.68C15.997 13.68 14.6001 15.0769 14.6001 16.8C14.6001 18.5231 15.997 19.92 17.7201 19.92Z" stroke="#3A3A3A" stroke-width="1.5" stroke-linecap="round" stroke-linejoin="round"/>
<path d="M9.3999 9.52002L20.8399 6.40002" stroke="#3A3A3A" stroke-width="1.5" stroke-linecap="round" stroke-linejoin="round"/>
</svg>
