<svg width="24" height="24" viewBox="0 0 24 24" fill="none" xmlns="http://www.w3.org/2000/svg">
<path d="M7.97021 22C10.1794 22 11.9702 20.2091 11.9702 18C11.9702 15.7909 10.1794 14 7.97021 14C5.76108 14 3.97021 15.7909 3.97021 18C3.97021 20.2091 5.76108 22 7.97021 22Z" stroke="#3A3A3A" stroke-width="1.5" stroke-linecap="round" stroke-linejoin="round"/>
<path d="M11.9702 18V4" stroke="#3A3A3A" stroke-width="1.5" stroke-linecap="round" stroke-linejoin="round"/>
<path d="M14.61 2.11L19.03 3.58C20.1 3.94 20.98 5.15 20.98 6.28V7.45C20.98 8.98 19.8 9.83 18.35 9.35L13.93 7.88C12.86 7.52 11.98 6.31 11.98 5.18V4C11.97 2.48 13.16 1.62 14.61 2.11Z" stroke="#3A3A3A" stroke-width="1.5" stroke-linecap="round" stroke-linejoin="round"/>
</svg>
