<svg width="24" height="24" viewBox="0 0 24 24" fill="none" xmlns="http://www.w3.org/2000/svg">
<path d="M2.58008 8.66998C3.20008 6.90998 4.30009 5.37998 5.72009 4.22998" stroke="#3A3A3A" stroke-width="1.5" stroke-linecap="round" stroke-linejoin="round"/>
<path d="M2 12C2 13.17 2.20999 14.29 2.57999 15.33" stroke="#3A3A3A" stroke-width="1.5" stroke-linecap="round" stroke-linejoin="round"/>
<path d="M9.09009 21.5703C10.0101 21.8503 10.9901 22.0002 12.0001 22.0002C17.5201 22.0002 22.0001 17.5202 22.0001 12.0002C22.0001 11.4002 21.9401 10.8102 21.8401 10.2402" stroke="#3A3A3A" stroke-width="1.5" stroke-linecap="round" stroke-linejoin="round"/>
<path d="M5.71991 19.7502C5.24991 19.3702 4.7999 18.9502 4.3999 18.4902" stroke="#3A3A3A" stroke-width="1.5" stroke-linecap="round" stroke-linejoin="round"/>
<path d="M20.2401 6.34003C18.4401 3.72003 15.4201 2 12.0001 2C10.9901 2 10.0101 2.14999 9.09009 2.42999" stroke="#3A3A3A" stroke-width="1.5" stroke-linecap="round" stroke-linejoin="round"/>
<path d="M8.59 17.11C9.46813 17.11 10.18 16.3982 10.18 15.52C10.18 14.6419 9.46813 13.93 8.59 13.93C7.71186 13.93 7 14.6419 7 15.52C7 16.3982 7.71186 17.11 8.59 17.11Z" stroke="#3A3A3A" stroke-width="1.5" stroke-linecap="round" stroke-linejoin="round"/>
<path d="M15.9999 14.4601V8.25003C15.9999 6.93003 15.1699 6.74 14.3299 6.97L11.1499 7.84006C10.5699 8.00006 10.1699 8.45003 10.1699 9.12003V10.23V10.97V15.5201" stroke="#3A3A3A" stroke-width="1.5" stroke-linecap="round" stroke-linejoin="round"/>
<path d="M14.4101 16.05C15.2882 16.05 16.0001 15.3382 16.0001 14.46C16.0001 13.5819 15.2882 12.87 14.4101 12.87C13.5319 12.87 12.8201 13.5819 12.8201 14.46C12.8201 15.3382 13.5319 16.05 14.4101 16.05Z" stroke="#3A3A3A" stroke-width="1.5" stroke-linecap="round" stroke-linejoin="round"/>
<path d="M10.1799 10.76L15.9999 9.16998" stroke="#3A3A3A" stroke-width="1.5" stroke-linecap="round" stroke-linejoin="round"/>
</svg>
