<svg width="24" height="24" viewBox="0 0 24 24" fill="none" xmlns="http://www.w3.org/2000/svg">
<path d="M22 10V9C22 4 20 2 15 2H9C4 2 2 4 2 9V15C2 20 4 22 9 22H11" stroke="#3A3A3A" stroke-width="1.5" stroke-linecap="round" stroke-linejoin="round"/>
<path d="M15.51 22C16.6146 22 17.51 21.1046 17.51 20C17.51 18.8954 16.6146 18 15.51 18C14.4054 18 13.51 18.8954 13.51 20C13.51 21.1046 14.4054 22 15.51 22Z" stroke="#3A3A3A" stroke-width="1.5" stroke-linecap="round" stroke-linejoin="round"/>
<path d="M17.51 20V13.01" stroke="#3A3A3A" stroke-width="1.5" stroke-linecap="round" stroke-linejoin="round"/>
<path d="M18.82 12.07L21.03 12.81C21.56 12.99 22 13.59 22 14.16V14.75C22 15.51 21.41 15.94 20.69 15.7L18.48 14.96C17.95 14.78 17.51 14.18 17.51 13.61V13.02C17.51 12.25 18.1 11.83 18.82 12.07Z" stroke="#3A3A3A" stroke-width="1.5" stroke-linecap="round" stroke-linejoin="round"/>
</svg>
