<svg width="24" height="24" viewBox="0 0 24 24" fill="none" xmlns="http://www.w3.org/2000/svg">
<path d="M10.7501 22.5H13.2701C14.2301 22.5 14.8501 21.82 14.6701 20.99L14.2601 19.1801H9.76007L9.35008 20.99C9.17008 21.77 9.85007 22.5 10.7501 22.5Z" stroke="#3A3A3A" stroke-width="1.5" stroke-linecap="round" stroke-linejoin="round"/>
<path d="M14.2601 19.1701L15.9901 17.63C16.9601 16.77 17.0001 16.17 16.2301 15.2L13.18 11.33C12.54 10.52 11.4901 10.52 10.8501 11.33L7.80006 15.2C7.03006 16.17 7.03005 16.8 8.04005 17.63L9.77006 19.1701" stroke="#3A3A3A" stroke-width="1.5" stroke-linecap="round" stroke-linejoin="round"/>
<path d="M12.01 11.12V13.65" stroke="#3A3A3A" stroke-width="1.5" stroke-linecap="round" stroke-linejoin="round"/>
<path d="M12.52 5H11.52C10.97 5 10.52 4.55 10.52 4V3C10.52 2.45 10.97 2 11.52 2H12.52C13.07 2 13.52 2.45 13.52 3V4C13.52 4.55 13.07 5 12.52 5Z" stroke="#3A3A3A" stroke-width="1.5" stroke-linecap="round" stroke-linejoin="round"/>
<path d="M3.27002 14.17H4.27002C4.82002 14.17 5.27002 13.72 5.27002 13.17V12.17C5.27002 11.62 4.82002 11.17 4.27002 11.17H3.27002C2.72002 11.17 2.27002 11.62 2.27002 12.17V13.17C2.27002 13.72 2.72002 14.17 3.27002 14.17Z" stroke="#3A3A3A" stroke-width="1.5" stroke-linecap="round" stroke-linejoin="round"/>
<path d="M20.73 14.17H19.73C19.18 14.17 18.73 13.72 18.73 13.17V12.17C18.73 11.62 19.18 11.17 19.73 11.17H20.73C21.28 11.17 21.73 11.62 21.73 12.17V13.17C21.73 13.72 21.28 14.17 20.73 14.17Z" stroke="#3A3A3A" stroke-width="1.5" stroke-linecap="round" stroke-linejoin="round"/>
<path d="M10.52 3.56C6.71 4.01 3.75 7.23998 3.75 11.17" stroke="#3A3A3A" stroke-width="1.5" stroke-linecap="round" stroke-linejoin="round"/>
<path d="M20.25 11.17C20.25 7.24998 17.31 4.03 13.52 3.56" stroke="#3A3A3A" stroke-width="1.5" stroke-linecap="round" stroke-linejoin="round"/>
</svg>
