<svg width="22" height="22" viewBox="0 0 22 22" fill="none" xmlns="http://www.w3.org/2000/svg">
<path fill-rule="evenodd" clip-rule="evenodd" d="M3.15533 3.15533C2.2398 4.07086 1.75 5.57397 1.75 8V14C1.75 16.426 2.2398 17.9291 3.15533 18.8447C4.07086 19.7602 5.57397 20.25 8 20.25H14C16.426 20.25 17.9291 19.7602 18.8447 18.8447C19.7602 17.9291 20.25 16.426 20.25 14V8C20.25 5.57397 19.7602 4.07086 18.8447 3.15533C17.9291 2.2398 16.426 1.75 14 1.75H8C5.57397 1.75 4.07086 2.2398 3.15533 3.15533ZM2.09467 2.09467C3.42914 0.760201 5.42603 0.25 8 0.25H14C16.574 0.25 18.5709 0.760201 19.9053 2.09467C21.2398 3.42914 21.75 5.42603 21.75 8V14C21.75 16.574 21.2398 18.5709 19.9053 19.9053C18.5709 21.2398 16.574 21.75 14 21.75H8C5.42603 21.75 3.42914 21.2398 2.09467 19.9053C0.760201 18.5709 0.25 16.574 0.25 14V8C0.25 5.42603 0.760201 3.42914 2.09467 2.09467Z" fill="#3A3A3A"/>
<path fill-rule="evenodd" clip-rule="evenodd" d="M14.6406 7.19965C14.9335 7.49254 14.9335 7.96742 14.6406 8.26031L8.10064 14.8003C7.80775 15.0932 7.33288 15.0932 7.03998 14.8003C6.74709 14.5074 6.74709 14.0325 7.03998 13.7396L13.58 7.19965C13.8729 6.90676 14.3477 6.90676 14.6406 7.19965Z" fill="#3A3A3A"/>
<path fill-rule="evenodd" clip-rule="evenodd" d="M7.98001 7.66C7.71491 7.66 7.5 7.87492 7.5 8.14001C7.5 8.40509 7.71489 8.62 7.98001 8.62C8.24511 8.62 8.45999 8.40511 8.45999 8.14001C8.45999 7.87489 8.24508 7.66 7.98001 7.66ZM6 8.14001C6 7.04649 6.88649 6.16 7.98001 6.16C9.07356 6.16 9.95999 7.04652 9.95999 8.14001C9.95999 9.23354 9.07353 10.12 7.98001 10.12C6.88651 10.12 6 9.23356 6 8.14001Z" fill="#3A3A3A"/>
<path fill-rule="evenodd" clip-rule="evenodd" d="M14.52 13.38C14.2549 13.38 14.04 13.5949 14.04 13.86C14.04 14.1251 14.2549 14.34 14.52 14.34C14.7851 14.34 15 14.1251 15 13.86C15 13.5949 14.7851 13.38 14.52 13.38ZM12.54 13.86C12.54 12.7665 13.4265 11.88 14.52 11.88C15.6135 11.88 16.5 12.7664 16.5 13.86C16.5 14.9535 15.6135 15.84 14.52 15.84C13.4265 15.84 12.54 14.9535 12.54 13.86Z" fill="#3A3A3A"/>
</svg>
