<svg width="24" height="24" viewBox="0 0 24 24" fill="none" xmlns="http://www.w3.org/2000/svg">
<path d="M22 12C22 13.31 21.75 14.57 21.28 15.72C20.63 15.27 19.84 15 19 15C18.06 15 17.19 15.33 16.5 15.88C15.58 16.61 15 17.74 15 19C15 19.75 15.21 20.46 15.58 21.06C15.62 21.13 15.67 21.2 15.73 21.27C14.58 21.74 13.32 22 12 22C6.48 22 2 17.52 2 12C2 6.48 6.48 2 12 2C17.52 2 22 6.48 22 12Z" stroke="#3A3A3A" stroke-width="1.5" stroke-linecap="round" stroke-linejoin="round"/>
<path d="M9.37988 12V10.61C9.37988 8.89001 10.5999 8.18001 12.0899 9.04001L13.2899 9.73001L14.4899 10.42C15.9799 11.28 15.9799 12.69 14.4899 13.55L13.2899 14.24L12.0899 14.93C10.5999 15.79 9.37988 15.09 9.37988 13.36V12Z" stroke="#3A3A3A" stroke-width="1.5" stroke-miterlimit="10" stroke-linecap="round" stroke-linejoin="round"/>
<path d="M23 19C23 19.75 22.79 20.46 22.42 21.06C22.21 21.42 21.94 21.74 21.63 22C20.93 22.63 20.01 23 19 23C17.54 23 16.27 22.22 15.58 21.06C15.21 20.46 15 19.75 15 19C15 17.74 15.58 16.61 16.5 15.88C17.19 15.33 18.06 15 19 15C21.21 15 23 16.79 23 19Z" stroke="#3A3A3A" stroke-width="1.5" stroke-miterlimit="10" stroke-linecap="round" stroke-linejoin="round"/>
<path d="M20.49 18.98H17.51" stroke="#3A3A3A" stroke-width="1.5" stroke-miterlimit="10" stroke-linecap="round" stroke-linejoin="round"/>
<path d="M19 17.52V20.51" stroke="#3A3A3A" stroke-width="1.5" stroke-miterlimit="10" stroke-linecap="round" stroke-linejoin="round"/>
</svg>
