<svg width="24" height="24" viewBox="0 0 24 24" fill="none" xmlns="http://www.w3.org/2000/svg">
<path d="M2 12.3502H7.79999C9.32999 12.3502 10.38 13.5102 10.38 14.9302V18.1503C10.38 19.5703 9.32999 20.7302 7.79999 20.7302H4.58002C3.16002 20.7302 2 19.5703 2 18.1503V12.3502" stroke="#3A3A3A" stroke-width="1.5" stroke-linecap="round" stroke-linejoin="round"/>
<path d="M2 12.3502C2 6.30022 3.13003 5.30027 6.53003 3.28027" stroke="#3A3A3A" stroke-width="1.5" stroke-linecap="round" stroke-linejoin="round"/>
<path d="M13.6309 12.3502H19.4308C20.9608 12.3502 22.0109 13.5102 22.0109 14.9302V18.1503C22.0109 19.5703 20.9608 20.7302 19.4308 20.7302H16.2109C14.7909 20.7302 13.6309 19.5703 13.6309 18.1503V12.3502" stroke="#3A3A3A" stroke-width="1.5" stroke-linecap="round" stroke-linejoin="round"/>
<path d="M13.6309 12.3502C13.6309 6.30022 14.7608 5.30027 18.1608 3.28027" stroke="#3A3A3A" stroke-width="1.5" stroke-linecap="round" stroke-linejoin="round"/>
</svg>
