<svg width="24" height="24" viewBox="0 0 24 24" fill="none" xmlns="http://www.w3.org/2000/svg">
<path d="M9 22H15C20 22 22 20 22 15V9C22 4 20 2 15 2H9C4 2 2 4 2 9V15C2 20 4 22 9 22Z" stroke="#3A3A3A" stroke-width="1.5" stroke-linecap="round" stroke-linejoin="round"/>
<path d="M7 12.1597H9.68C10.39 12.1597 10.87 12.6997 10.87 13.3497V14.8398C10.87 15.4898 10.39 16.0298 9.68 16.0298H8.19C7.54 16.0298 7 15.4898 7 14.8398V12.1597" stroke="#3A3A3A" stroke-width="1.5" stroke-linecap="round" stroke-linejoin="round"/>
<path d="M7 12.1597C7 9.36973 7.52 8.89973 9.09 7.96973" stroke="#3A3A3A" stroke-width="1.5" stroke-linecap="round" stroke-linejoin="round"/>
<path d="M13.1406 12.1597H15.8206C16.5306 12.1597 17.0106 12.6997 17.0106 13.3497V14.8398C17.0106 15.4898 16.5306 16.0298 15.8206 16.0298H14.3306C13.6806 16.0298 13.1406 15.4898 13.1406 14.8398V12.1597" stroke="#3A3A3A" stroke-width="1.5" stroke-linecap="round" stroke-linejoin="round"/>
<path d="M13.1406 12.1597C13.1406 9.36973 13.6606 8.89973 15.2306 7.96973" stroke="#3A3A3A" stroke-width="1.5" stroke-linecap="round" stroke-linejoin="round"/>
</svg>
