<svg width="24" height="24" viewBox="0 0 24 24" fill="none" xmlns="http://www.w3.org/2000/svg">
<path d="M22.0011 11.65H16.2011C14.6711 11.65 13.6211 10.49 13.6211 9.07001V5.84998C13.6211 4.42998 14.6711 3.27002 16.2011 3.27002H19.4211C20.8411 3.27002 22.0011 4.42998 22.0011 5.84998V11.65Z" stroke="#3A3A3A" stroke-width="1.5" stroke-linecap="round" stroke-linejoin="round"/>
<path d="M22.0007 11.6499C22.0007 17.6999 20.8707 18.6998 17.4707 20.7198" stroke="#3A3A3A" stroke-width="1.5" stroke-linecap="round" stroke-linejoin="round"/>
<path d="M10.3702 11.65H4.57023C3.04023 11.65 1.99023 10.49 1.99023 9.07001V5.84998C1.99023 4.42998 3.04023 3.27002 4.57023 3.27002H7.80023C9.22023 3.27002 10.3802 4.42998 10.3802 5.84998V11.65" stroke="#3A3A3A" stroke-width="1.5" stroke-linecap="round" stroke-linejoin="round"/>
<path d="M10.3698 11.6499C10.3698 17.6999 9.23984 18.6998 5.83984 20.7198" stroke="#3A3A3A" stroke-width="1.5" stroke-linecap="round" stroke-linejoin="round"/>
</svg>
