<svg width="20" height="21" viewBox="0 0 20 21" fill="none" xmlns="http://www.w3.org/2000/svg">
<path fill-rule="evenodd" clip-rule="evenodd" d="M1.89481 1.49637C2.84095 0.485041 4.3285 0.25 6.22 0.25H13.78C15.6715 0.25 17.1591 0.485041 18.1052 1.49637C19.0347 2.48991 19.25 4.03645 19.25 6.04001V10.3C19.25 10.7142 18.9142 11.05 18.5 11.05C18.0858 11.05 17.75 10.7142 17.75 10.3V6.04001C17.75 4.01357 17.4953 3.0401 17.0098 2.52114C16.5409 2.01996 15.6685 1.75 13.78 1.75H6.22C4.3315 1.75 3.45906 2.01996 2.99019 2.52114C2.50468 3.0401 2.25 4.01357 2.25 6.04001V17.3C2.25 17.9046 2.33408 18.3385 2.45025 18.6233C2.56542 18.9057 2.68815 18.9904 2.74794 19.0162C2.80225 19.0396 2.92947 19.0686 3.18132 18.9599C3.44052 18.848 3.78163 18.6077 4.18124 18.1788C4.18701 18.1726 4.19289 18.1665 4.19887 18.1605L4.20198 18.1574C5.3393 16.9598 7.1318 17.0578 8.12075 18.381L9.13053 19.7307C9.37867 20.0624 9.31095 20.5324 8.97929 20.7805C8.64762 21.0287 8.1776 20.9609 7.92947 20.6293L6.91946 19.2793L6.91923 19.279C6.49043 18.7052 5.78886 18.6606 5.28577 19.1944L5.27113 19.2095L5.26989 19.2108C4.78723 19.7271 4.28513 20.1171 3.77589 20.337C3.25617 20.5614 2.68652 20.6229 2.15457 20.3938C1.62811 20.1671 1.27521 19.7143 1.06131 19.1898C0.848419 18.6677 0.75 18.0254 0.75 17.3V6.04001C0.75 4.03645 0.96532 2.48991 1.89481 1.49637Z" fill="#3A3A3A"/>
<path fill-rule="evenodd" clip-rule="evenodd" d="M5.25 6C5.25 5.58579 5.58579 5.25 6 5.25H14C14.4142 5.25 14.75 5.58579 14.75 6C14.75 6.41421 14.4142 6.75 14 6.75H6C5.58579 6.75 5.25 6.41421 5.25 6Z" fill="#3A3A3A"/>
<path fill-rule="evenodd" clip-rule="evenodd" d="M6.25 10C6.25 9.58579 6.58579 9.25 7 9.25H13C13.4142 9.25 13.75 9.58579 13.75 10C13.75 10.4142 13.4142 10.75 13 10.75H7C6.58579 10.75 6.25 10.4142 6.25 10Z" fill="#3A3A3A"/>
<path fill-rule="evenodd" clip-rule="evenodd" d="M17.1344 12.4567C17.7977 12.3886 18.4079 12.6865 18.9514 13.23C19.498 13.7765 19.7995 14.3881 19.7337 15.0529C19.6718 15.678 19.299 16.163 18.9514 16.5106L15.419 20.043C15.2725 20.1966 15.0921 20.3083 14.944 20.3823C14.7882 20.4603 14.5987 20.531 14.4081 20.5611L14.3956 20.5631L13.0471 20.7528C13.0468 20.7528 13.0475 20.7527 13.0471 20.7528C12.6056 20.8156 12.1497 20.6995 11.8207 20.3706C11.4918 20.0417 11.3756 19.5866 11.4385 19.1451C11.4385 19.1448 11.4384 19.1453 11.4385 19.1451L11.6301 17.7833C11.6607 17.5896 11.733 17.4013 11.8106 17.2479C11.8882 17.0946 11.9984 16.9223 12.1408 16.78C12.1408 16.78 12.1408 16.78 12.1408 16.78L15.6807 13.2399C16.0284 12.8923 16.5123 12.5206 17.1344 12.4567ZM17.2877 13.9489C17.1798 13.9599 17.0037 14.0383 16.7414 14.3006L13.2027 17.8393C13.2022 17.8399 13.1967 17.8462 13.1873 17.8598C13.1755 17.877 13.162 17.8995 13.1491 17.9251C13.1361 17.9508 13.1259 17.9749 13.119 17.9948C13.1147 18.0072 13.1127 18.0149 13.1119 18.0179L12.938 19.2533L14.1741 19.0794C14.1773 19.0786 14.1864 19.0763 14.2012 19.0712C14.2226 19.0639 14.2477 19.0535 14.2731 19.0407C14.2988 19.0279 14.3193 19.0155 14.3329 19.006C14.3361 19.0038 14.3384 19.0021 14.3401 19.0008C14.3436 18.9972 14.3472 18.9935 14.3508 18.9899L17.8908 15.45C18.1531 15.1876 18.2304 15.0125 18.241 14.9052C18.2477 14.8375 18.2442 14.644 17.8908 14.2906C17.5443 13.9441 17.3545 13.942 17.2877 13.9489Z" fill="#3A3A3A"/>
<path fill-rule="evenodd" clip-rule="evenodd" d="M15.4984 13.5576C15.8975 13.4468 16.3109 13.6804 16.4218 14.0795C16.6514 14.9061 17.2934 15.548 18.1199 15.7776C18.519 15.8885 18.7527 16.3019 18.6418 16.701C18.5309 17.1001 18.1175 17.3338 17.7184 17.2229C16.385 16.8525 15.3469 15.8145 14.9765 14.481C14.8657 14.0819 15.0993 13.6685 15.4984 13.5576Z" fill="#3A3A3A"/>
</svg>
