<svg width="22" height="22" viewBox="0 0 22 22" fill="none" xmlns="http://www.w3.org/2000/svg">
<path d="M13.6 11.58V14.31C13.6 16.59 12.69 17.5 10.41 17.5H7.69C5.42 17.5 4.5 16.59 4.5 14.31V11.58C4.5 9.30999 5.41 8.39999 7.69 8.39999H10.42C12.69 8.39999 13.6 9.30999 13.6 11.58Z" stroke="#3A3A3A" stroke-width="1.5" stroke-linecap="round" stroke-linejoin="round"/>
<path d="M17.4999 7.68V10.41C17.4999 12.69 16.5899 13.6 14.3099 13.6H13.5999V11.58C13.5999 9.31 12.6899 8.4 10.4099 8.4H8.3999V7.68C8.3999 5.4 9.3099 4.5 11.5899 4.5H14.3199C16.5899 4.5 17.4999 5.41 17.4999 7.68Z" stroke="#3A3A3A" stroke-width="1.5" stroke-linecap="round" stroke-linejoin="round"/>
<path d="M21 14C21 17.87 17.87 21 14 21L15.05 19.25" stroke="#3A3A3A" stroke-width="1.5" stroke-linecap="round" stroke-linejoin="round"/>
<path d="M1 8C1 4.13 4.13 1 8 1L6.95 2.75" stroke="#3A3A3A" stroke-width="1.5" stroke-linecap="round" stroke-linejoin="round"/>
</svg>
