<svg width="24" height="24" viewBox="0 0 24 24" fill="none" xmlns="http://www.w3.org/2000/svg">
<path d="M12 22C17.5228 22 22 17.5228 22 12C22 6.47715 17.5228 2 12 2C6.47715 2 2 6.47715 2 12C2 17.5228 6.47715 22 12 22Z" stroke="#3A3A3A" stroke-width="1.5" stroke-linecap="round" stroke-linejoin="round"/>
<path d="M8.00977 14.51C8.18977 14.81 8.40976 15.09 8.65976 15.34C10.4998 17.18 13.4898 17.18 15.3398 15.34C16.0898 14.59 16.5198 13.64 16.6598 12.67" stroke="#3A3A3A" stroke-width="1.5" stroke-linecap="round" stroke-linejoin="round"/>
<path d="M7.33984 11.33C7.47984 10.35 7.90985 9.40997 8.65985 8.65997C10.4999 6.81997 13.4898 6.81997 15.3398 8.65997C15.5998 8.91997 15.8098 9.19999 15.9898 9.48999" stroke="#3A3A3A" stroke-width="1.5" stroke-linecap="round" stroke-linejoin="round"/>
<path d="M7.81982 17.18V14.51H10.4898" stroke="#3A3A3A" stroke-width="1.5" stroke-linecap="round" stroke-linejoin="round"/>
<path d="M16.1797 6.82001V9.48999H13.5098" stroke="#3A3A3A" stroke-width="1.5" stroke-linecap="round" stroke-linejoin="round"/>
</svg>
