<svg width="24" height="24" viewBox="0 0 24 24" fill="none" xmlns="http://www.w3.org/2000/svg">
<path d="M10.33 7.50999C10.83 7.35999 11.38 7.25999 12 7.25999C14.76 7.25999 17 9.49999 17 12.26C17 15.02 14.76 17.26 12 17.26C9.24 17.26 7 15.02 7 12.26C7 11.23 7.31 10.28 7.84 9.48" stroke="#3A3A3A" stroke-width="1.5" stroke-linecap="round" stroke-linejoin="round"/>
<path d="M9.62012 7.64999L11.2801 5.73999" stroke="#3A3A3A" stroke-width="1.5" stroke-linecap="round" stroke-linejoin="round"/>
<path d="M9.62012 7.64999L11.5601 9.06999" stroke="#3A3A3A" stroke-width="1.5" stroke-linecap="round" stroke-linejoin="round"/>
<path d="M9 22H15C20 22 22 20 22 15V9C22 4 20 2 15 2H9C4 2 2 4 2 9V15C2 20 4 22 9 22Z" stroke="#3A3A3A" stroke-width="1.5" stroke-linecap="round" stroke-linejoin="round"/>
</svg>
