<svg width="24" height="24" viewBox="0 0 24 24" fill="none" xmlns="http://www.w3.org/2000/svg">
<path d="M9 22H15C20 22 22 20 22 15V9C22 4 20 2 15 2H9C4 2 2 4 2 9V15C2 20 4 22 9 22Z" stroke="#3A3A3A" stroke-width="1.5" stroke-linecap="round" stroke-linejoin="round"/>
<path d="M13.67 7.50999C13.17 7.35999 12.62 7.25999 12 7.25999C9.24 7.25999 7 9.49999 7 12.26C7 15.02 9.24 17.26 12 17.26C14.76 17.26 17 15.02 17 12.26C17 11.23 16.69 10.28 16.16 9.48" stroke="#3A3A3A" stroke-width="1.5" stroke-linecap="round" stroke-linejoin="round"/>
<path d="M14.38 7.64999L12.72 5.73999" stroke="#3A3A3A" stroke-width="1.5" stroke-linecap="round" stroke-linejoin="round"/>
<path d="M14.3799 7.64999L12.4399 9.06999" stroke="#3A3A3A" stroke-width="1.5" stroke-linecap="round" stroke-linejoin="round"/>
</svg>
