<svg width="24" height="24" viewBox="0 0 24 24" fill="none" xmlns="http://www.w3.org/2000/svg">
<path d="M16 8.98999V20.35C16 21.8 14.96 22.41 13.69 21.71L9.76 19.52C9.34 19.29 8.66 19.29 8.24 19.52L4.31 21.71C3.04 22.41 2 21.8 2 20.35V8.98999C2 7.27999 3.4 5.88 5.11 5.88H12.89C14.6 5.88 16 7.27999 16 8.98999Z" stroke="#3A3A3A" stroke-width="1.5" stroke-linecap="round" stroke-linejoin="round"/>
<path d="M7.58984 13.41L10.4098 10.59" stroke="#3A3A3A" stroke-width="1.5" stroke-linecap="round" stroke-linejoin="round"/>
<path d="M10.4098 13.41L7.58984 10.59" stroke="#3A3A3A" stroke-width="1.5" stroke-linecap="round" stroke-linejoin="round"/>
<path d="M22 5.10999V16.47C22 17.92 20.96 18.53 19.69 17.83L16 15.77V8.98999C16 7.27999 14.6 5.88 12.89 5.88H8V5.10999C8 3.39999 9.4 2 11.11 2H18.89C20.6 2 22 3.39999 22 5.10999Z" stroke="#3A3A3A" stroke-width="1.5" stroke-linecap="round" stroke-linejoin="round"/>
</svg>
