<svg width="24" height="24" viewBox="0 0 24 24" fill="none" xmlns="http://www.w3.org/2000/svg">
<path d="M9 22H15C20 22 22 20 22 15V9C22 4 20 2 15 2H9C4 2 2 4 2 9V15C2 20 4 22 9 22Z" stroke="#3A3A3A" stroke-width="1.5" stroke-linecap="round" stroke-linejoin="round"/>
<path d="M8.41998 10.9C9.48037 10.9 10.34 10.0404 10.34 8.98C10.34 7.91961 9.48037 7.06 8.41998 7.06C7.3596 7.06 6.5 7.91961 6.5 8.98C6.5 10.0404 7.3596 10.9 8.41998 10.9Z" stroke="#3A3A3A" stroke-width="1.5" stroke-linecap="round" stroke-linejoin="round"/>
<path d="M8.41998 16.94C9.48037 16.94 10.34 16.0804 10.34 15.02C10.34 13.9596 9.48037 13.1 8.41998 13.1C7.3596 13.1 6.5 13.9596 6.5 15.02C6.5 16.0804 7.3596 16.94 8.41998 16.94Z" stroke="#3A3A3A" stroke-width="1.5" stroke-linecap="round" stroke-linejoin="round"/>
<path d="M17.5002 8.70001L10.1602 14.19" stroke="#3A3A3A" stroke-width="1.5" stroke-linecap="round" stroke-linejoin="round"/>
<path d="M17.5002 15.28L10.1602 9.78998" stroke="#3A3A3A" stroke-width="1.5" stroke-linecap="round" stroke-linejoin="round"/>
</svg>
