<svg width="22" height="22" viewBox="0 0 22 22" fill="none" xmlns="http://www.w3.org/2000/svg">
<path fill-rule="evenodd" clip-rule="evenodd" d="M9.55 1.79736C9.06229 1.79736 8.61407 1.86843 8.31522 1.9814L8.31365 1.98199L3.3347 3.8516C3.33454 3.85166 3.33486 3.85154 3.3347 3.8516C2.93622 4.00204 2.53209 4.33401 2.22491 4.77941C1.91767 5.22491 1.75 5.7217 1.75 6.14986V13.5599C1.75 13.9971 1.89926 14.5615 2.17359 15.1112C2.44804 15.6613 2.80849 16.1181 3.15796 16.3783L3.15911 16.3792L7.43592 19.5768C7.43637 19.5771 7.43682 19.5775 7.43727 19.5778C7.99631 19.9906 8.76182 20.2174 9.55875 20.2174C10.3561 20.2174 11.1181 19.9905 11.6711 19.579C11.6714 19.5788 11.6717 19.5786 11.672 19.5783L14.4455 17.4999H10.74C9.56862 17.4999 8.54146 17.3704 7.86172 16.7022C7.17847 16.0305 7.04499 15.0113 7.04 13.8631L7.03999 13.8598V8.42986C7.03999 7.37252 7.14681 6.43622 7.67254 5.77018C8.23229 5.06105 9.10125 4.84912 10.0755 4.7912C10.0903 4.79031 10.1051 4.78987 10.12 4.78987C10.2021 4.78987 10.2876 4.78776 10.3885 4.78526L10.3952 4.7851C10.496 4.78261 10.6096 4.77986 10.73 4.77986H16.8702C16.5713 4.35335 16.1686 4.00844 15.7549 3.85146C15.7547 3.85137 15.7552 3.85155 15.7549 3.85146L10.7848 1.9814C10.4859 1.86843 10.0377 1.79736 9.55 1.79736ZM11.3147 0.578132C10.7937 0.381247 10.1521 0.297363 9.55 0.297363C8.94805 0.297363 8.30664 0.381209 7.78565 0.577997C7.78593 0.577889 7.78536 0.578105 7.78565 0.577997L2.80636 2.44773L2.80532 2.44812C2.06395 2.72776 1.4328 3.28589 0.990095 3.92781C0.547334 4.56981 0.25 5.35801 0.25 6.14986V13.5599C0.25 14.2927 0.485741 15.0883 0.831413 15.781C1.17686 16.4733 1.67121 17.1412 2.26149 17.581C2.2613 17.5808 2.26168 17.5811 2.26149 17.581L6.54091 20.7805L6.54409 20.7829C7.40493 21.4194 8.49883 21.7174 9.55875 21.7174C10.6185 21.7174 11.7111 21.4195 12.5679 20.7814L12.5698 20.78L16.8398 17.58C16.8565 17.5675 16.8727 17.5543 16.8883 17.5404C16.9229 17.5096 16.9588 17.4796 17.0052 17.441C17.0488 17.4046 17.1029 17.3596 17.1583 17.3104C17.391 17.1035 17.4717 16.7744 17.361 16.4833C17.2504 16.1923 16.9714 15.9999 16.66 15.9999H10.74C9.56139 15.9999 9.11855 15.8343 8.91328 15.6325C8.71162 15.4343 8.54515 15.0088 8.53999 13.8582V8.42986C8.53999 7.37719 8.67317 6.9235 8.84995 6.69955C8.99156 6.52014 9.284 6.34348 10.1435 6.28983C10.2369 6.28948 10.3307 6.28716 10.4181 6.28499L10.4323 6.28464C10.534 6.28212 10.6304 6.27986 10.73 6.27986H18.03C18.2603 6.27986 18.4779 6.17402 18.6201 5.99279C18.7623 5.81156 18.8133 5.57505 18.7584 5.35132C18.4577 4.1244 17.4966 2.90736 16.2858 2.44852L11.3147 0.578132C11.3145 0.578069 11.3149 0.578195 11.3147 0.578132Z" fill="#3A3A3A"/>
<path fill-rule="evenodd" clip-rule="evenodd" d="M7.05005 10.2199C7.05005 9.80567 7.38584 9.46988 7.80005 9.46988H21C21.4143 9.46988 21.75 9.80567 21.75 10.2199C21.75 10.6341 21.4143 10.9699 21 10.9699H7.80005C7.38584 10.9699 7.05005 10.6341 7.05005 10.2199Z" fill="#3A3A3A"/>
<path fill-rule="evenodd" clip-rule="evenodd" d="M10.1557 6.26981C9.29754 6.32824 9.00299 6.5059 8.86001 6.68705C8.68296 6.91136 8.55005 7.36321 8.55005 8.40988V13.8399C8.55005 14.9974 8.71563 15.4246 8.9161 15.6228C9.11966 15.824 9.56078 15.9899 10.7401 15.9899H18.06C19.2221 15.9899 19.6686 15.834 19.8765 15.6396C20.0694 15.4592 20.2398 15.068 20.25 13.9665V8.41989C20.25 7.25685 20.0843 6.83 19.884 6.63198C19.6798 6.43009 19.2385 6.26505 18.0584 6.25989H10.7401C10.6405 6.25989 10.544 6.26214 10.4423 6.26465L10.4281 6.265C10.3414 6.26714 10.2484 6.26944 10.1557 6.26981ZM10.4053 4.7651C10.5061 4.76262 10.6196 4.75989 10.7401 4.75989H18.0632C19.232 4.76487 20.2604 4.89478 20.9386 5.5653C21.6208 6.23978 21.75 7.26293 21.75 8.41989V13.9766C21.74 15.0925 21.5955 16.0857 20.9011 16.7352C20.2214 17.3708 19.208 17.4899 18.06 17.4899H10.7401C9.56932 17.4899 8.54044 17.3607 7.8615 16.6895C7.17947 16.0152 7.05005 14.9924 7.05005 13.8399V8.40988C7.05005 7.35655 7.15714 6.4234 7.68259 5.7577C8.24084 5.05044 9.10736 4.83463 10.0815 4.77144C10.0977 4.77039 10.1139 4.76987 10.1301 4.76987C10.2121 4.76987 10.2977 4.76776 10.3986 4.76527L10.4053 4.7651Z" fill="#3A3A3A"/>
<path fill-rule="evenodd" clip-rule="evenodd" d="M9.57007 14.2599C9.57007 13.8457 9.90585 13.5099 10.3201 13.5099H11.6501C12.0643 13.5099 12.4001 13.8457 12.4001 14.2599C12.4001 14.6741 12.0643 15.0099 11.6501 15.0099H10.3201C9.90585 15.0099 9.57007 14.6741 9.57007 14.2599Z" fill="#3A3A3A"/>
<path fill-rule="evenodd" clip-rule="evenodd" d="M13 14.2599C13 13.8457 13.3358 13.5099 13.75 13.5099H17.02C17.4342 13.5099 17.77 13.8457 17.77 14.2599C17.77 14.6741 17.4342 15.0099 17.02 15.0099H13.75C13.3358 15.0099 13 14.6741 13 14.2599Z" fill="#3A3A3A"/>
</svg>
