<svg width="24" height="24" viewBox="0 0 24 24" fill="none" xmlns="http://www.w3.org/2000/svg">
<path d="M13.4298 15H4.39985C2.57985 15 1.41985 13.05 2.29985 11.45L4.62985 7.21L6.80985 3.24C7.71985 1.59 10.0998 1.59 11.0098 3.24L13.1998 7.21L14.2498 9.12001L15.5298 11.45C16.4098 13.05 15.2498 15 13.4298 15Z" stroke="#3A3A3A" stroke-width="1.5" stroke-linecap="round" stroke-linejoin="round"/>
<path d="M22 15.5C22 19.09 19.09 22 15.5 22C11.91 22 9 19.09 9 15.5C9 15.33 9.01 15.17 9.02 15H13.43C15.25 15 16.41 13.05 15.53 11.45L14.25 9.12C14.65 9.04 15.07 9 15.5 9C19.09 9 22 11.91 22 15.5Z" stroke="#3A3A3A" stroke-width="1.5" stroke-linecap="round" stroke-linejoin="round"/>
</svg>
