<svg width="24" height="24" viewBox="0 0 24 24" fill="none" xmlns="http://www.w3.org/2000/svg">
<path d="M16.9702 12.25V16.75C16.9702 20.5 15.4702 22 11.7202 22H7.22021C3.47021 22 1.97021 20.5 1.97021 16.75V12.25C1.97021 8.5 3.47021 7 7.22021 7H11.7202C15.4702 7 16.9702 8.5 16.9702 12.25Z" stroke="#3A3A3A" stroke-width="1.5" stroke-linecap="round" stroke-linejoin="round"/>
<path d="M21.9702 5.85V9.15C21.9702 11.9 20.8702 13 18.1202 13H16.9702V12.25C16.9702 8.5 15.4702 7 11.7202 7H10.9702V5.85C10.9702 3.1 12.0702 2 14.8202 2H18.1202C20.8702 2 21.9702 3.1 21.9702 5.85Z" stroke="#3A3A3A" stroke-width="1.5" stroke-linecap="round" stroke-linejoin="round"/>
</svg>
