<svg width="24" height="24" viewBox="0 0 24 24" fill="none" xmlns="http://www.w3.org/2000/svg">
<path d="M14.4996 2.2998C13.4996 2.2998 12.5996 3.0998 12.5996 4.1998V8.7998C12.5996 9.7998 13.3996 10.6998 14.4996 10.6998C15.4996 10.6998 16.3996 9.8998 16.3996 8.7998V4.0998C16.3996 3.0998 15.5996 2.2998 14.4996 2.2998Z" stroke="#3A3A3A" stroke-width="1.5" stroke-miterlimit="10" stroke-linecap="round" stroke-linejoin="round"/>
<path d="M18.5996 10.5999H20.1996C21.0996 10.5999 21.7996 9.8999 21.7996 8.9999C21.7996 8.0999 21.0996 7.3999 20.1996 7.3999C19.2996 7.3999 18.5996 8.0999 18.5996 8.9999V10.5999Z" stroke="#3A3A3A" stroke-width="1.5" stroke-miterlimit="10" stroke-linecap="round" stroke-linejoin="round"/>
<path d="M2 9.19999C2 10.2 2.8 11.1 3.9 11.1H8.5C9.5 11.1 10.4 10.3 10.4 9.19999C10.4 8.19999 9.6 7.29999 8.5 7.29999H3.9C2.8 7.39999 2 8.19999 2 9.19999Z" stroke="#3A3A3A" stroke-width="1.5" stroke-miterlimit="10" stroke-linecap="round" stroke-linejoin="round"/>
<path d="M10.3992 5.1V3.6C10.3992 2.7 9.69922 2 8.79922 2C7.89922 2 7.19922 2.7 7.19922 3.6C7.19922 4.5 7.89922 5.2 8.79922 5.2H10.3992V5.1Z" stroke="#3A3A3A" stroke-width="1.5" stroke-miterlimit="10" stroke-linecap="round" stroke-linejoin="round"/>
<path d="M9.4 21.8C10.4 21.8 11.3 21 11.3 19.9V15.3C11.3 14.3 10.5 13.4 9.4 13.4C8.4 13.4 7.5 14.2 7.5 15.3V19.9C7.6 20.9 8.4 21.8 9.4 21.8Z" stroke="#3A3A3A" stroke-width="1.5" stroke-miterlimit="10" stroke-linecap="round" stroke-linejoin="round"/>
<path d="M5.39922 13.3999H3.79922C2.89922 13.3999 2.19922 14.0999 2.19922 14.9999C2.19922 15.8999 2.89922 16.5999 3.79922 16.5999C4.69922 16.5999 5.39922 15.8999 5.39922 14.9999V13.3999Z" stroke="#3A3A3A" stroke-width="1.5" stroke-miterlimit="10" stroke-linecap="round" stroke-linejoin="round"/>
<path d="M21.9996 14.7999C21.9996 13.7999 21.1996 12.8999 20.0996 12.8999H15.4996C14.4996 12.8999 13.5996 13.6999 13.5996 14.7999C13.5996 15.7999 14.3996 16.6999 15.4996 16.6999H20.0996C21.0996 16.6999 21.9996 15.7999 21.9996 14.7999Z" stroke="#3A3A3A" stroke-width="1.5" stroke-miterlimit="10" stroke-linecap="round" stroke-linejoin="round"/>
<path d="M13.5996 18.7998V20.3998C13.5996 21.2998 14.2996 21.9998 15.1996 21.9998C16.0996 21.9998 16.7996 21.2998 16.7996 20.3998C16.7996 19.4998 16.0996 18.7998 15.1996 18.7998H13.5996Z" stroke="#3A3A3A" stroke-width="1.5" stroke-miterlimit="10" stroke-linecap="round" stroke-linejoin="round"/>
</svg>
