<svg width="24" height="24" viewBox="0 0 24 24" fill="none" xmlns="http://www.w3.org/2000/svg">
<path d="M18 7V17C18 17.62 17.98 18.17 17.91 18.66C17.62 21.29 16.38 22 13 22H11C7.62 22 6.38 21.29 6.09 18.66C6.02 18.17 6 17.62 6 17V7C6 6.38 6.02 5.83 6.09 5.34C6.38 2.71 7.62 2 11 2H13C16.38 2 17.62 2.71 17.91 5.34C17.98 5.83 18 6.38 18 7Z" stroke="#3A3A3A" stroke-width="1.5" stroke-linecap="round" stroke-linejoin="round"/>
<path d="M6 17C6 17.62 6.02 18.17 6.09 18.66C5.95 18.67 5.82 18.67 5.67 18.67H5.33C2.67 18.67 2 18 2 15.33V8.67C2 6 2.67 5.33 5.33 5.33H5.67C5.82 5.33 5.95 5.33 6.09 5.34C6.02 5.83 6 6.38 6 7V17Z" stroke="#3A3A3A" stroke-width="1.5" stroke-linecap="round" stroke-linejoin="round"/>
<path d="M22.0002 8.67V15.33C22.0002 18 21.3302 18.67 18.6702 18.67H18.3302C18.1802 18.67 18.0502 18.67 17.9102 18.66C17.9802 18.17 18.0002 17.62 18.0002 17V7C18.0002 6.38 17.9802 5.83 17.9102 5.34C18.0502 5.33 18.1802 5.33 18.3302 5.33H18.6702C21.3302 5.33 22.0002 6 22.0002 8.67Z" stroke="#3A3A3A" stroke-width="1.5" stroke-linecap="round" stroke-linejoin="round"/>
</svg>
