<svg width="24" height="24" viewBox="0 0 24 24" fill="none" xmlns="http://www.w3.org/2000/svg">
<path d="M11.3993 21.8101H17.5993C19.0293 21.8101 20.3993 20.65 20.6393 19.24L21.9693 11.28C22.1293 10.3 21.6293 8.99002 20.8593 8.37002L13.9293 2.82998C12.8593 1.96998 11.1293 1.96997 10.0693 2.81997L3.1393 8.37002C2.3593 8.99002 1.85929 10.3 2.02929 11.28L2.30929 12.96" stroke="#3A3A3A" stroke-width="1.5" stroke-linecap="round" stroke-linejoin="round"/>
<path d="M2 19C3.76 19.04 4.96 20.24 5 22" stroke="#3A3A3A" stroke-width="1.5" stroke-linecap="round" stroke-linejoin="round"/>
<path d="M8 22C7.99 21.24 7.86 20.53 7.63 19.88C7.04 18.21 5.78 16.96 4.12 16.37C3.47 16.14 2.76 16.01 2 16" stroke="#3A3A3A" stroke-width="1.5" stroke-linecap="round" stroke-linejoin="round"/>
<path d="M1.9955 22H2.0045" stroke="#3A3A3A" stroke-width="2" stroke-linecap="round" stroke-linejoin="round"/>
</svg>
