<svg width="24" height="24" viewBox="0 0 24 24" fill="none" xmlns="http://www.w3.org/2000/svg">
<path fill-rule="evenodd" clip-rule="evenodd" d="M17.2995 15.3002C16.9995 15.5002 16.7995 15.5002 16.5995 15.6002C16.3995 15.6002 16.2995 15.7002 16.1995 15.8002C15.9995 15.8002 15.9995 16.0002 15.9995 16.1002C15.9995 16.2002 15.9995 16.3002 15.8995 16.4002C15.7995 16.5002 15.5995 16.5002 15.3995 16.5002C15.0995 16.5002 14.6995 16.5002 14.2995 16.7002C14.0995 16.8002 13.8995 16.9002 13.6995 17.0002C13.2995 17.3002 12.8995 17.5002 12.0995 17.5002C11.2995 17.5002 10.8995 17.2002 10.4995 17.0002C10.2995 16.9002 10.0995 16.7002 9.89946 16.7002C9.49946 16.6002 9.09946 16.5002 8.79946 16.5002C8.59946 16.5002 8.39946 16.5002 8.29946 16.4002C7.99946 16.3002 7.99946 16.2002 7.99946 16.1002C7.99946 16.0002 7.99946 15.8002 7.79946 15.8002C7.69946 15.7002 7.49946 15.7002 7.39946 15.6002C7.19946 15.5002 6.99946 15.5002 6.69946 15.3002C6.39946 15.1002 6.59946 15.0002 6.69946 14.9002C8.59946 14.0002 8.89946 12.5002 8.89946 12.4002C8.89946 12.3002 8.89946 12.2002 8.79946 12.1002C8.69946 12.0002 8.39946 11.8002 8.09946 11.7002C7.99946 11.6002 7.89946 11.6002 7.79946 11.5002C7.49946 11.3002 7.39946 11.1002 7.49946 10.9002C7.59946 10.7002 7.69946 10.7002 7.89946 10.7002C7.99946 10.7002 7.99946 10.7002 8.09946 10.7002C8.29946 10.7002 8.49946 10.8002 8.59946 10.9002C8.69946 10.9002 8.79946 11.0002 8.89946 11.0002C8.89946 11.0002 8.89946 11.0002 8.99946 11.0002C9.09946 11.0002 9.09946 11.0002 9.09946 10.8002V10.7002C9.09946 10.4002 8.99946 9.7002 9.09946 9.2002C9.19946 8.4002 9.39946 7.9002 9.79946 7.6002C9.99946 7.4002 10.6995 6.7002 12.0995 6.7002C13.4995 6.7002 14.1995 7.5002 14.3995 7.6002C14.6995 8.0002 14.9995 8.4002 15.0995 9.2002C15.1995 9.8002 15.0995 10.4002 15.0995 10.8002C15.0995 10.9002 15.0995 11.0002 15.1995 11.0002C15.1995 11.0002 15.1995 11.0002 15.2995 11.0002C15.3995 11.0002 15.4995 10.9002 15.5995 10.9002C15.7995 10.8002 15.8995 10.8002 16.0995 10.7002C16.0995 10.7002 16.1995 10.7002 16.2995 10.7002C16.4995 10.7002 16.5995 10.8002 16.6995 10.9002C16.7995 11.1002 16.6995 11.3002 16.3995 11.5002C16.2995 11.5002 16.1995 11.6002 16.0995 11.7002C15.8995 11.9002 15.4995 12.1002 15.3995 12.1002C15.2995 12.2002 15.2995 12.3002 15.2995 12.4002C15.2995 12.5002 15.5995 13.9002 17.4995 14.9002C17.4995 15.0002 17.6995 15.1002 17.2995 15.3002Z" stroke="#3A3A3A" stroke-width="1.5" stroke-miterlimit="10" stroke-linejoin="round"/>
<path d="M12 22C17.5228 22 22 17.5228 22 12C22 6.47715 17.5228 2 12 2C6.47715 2 2 6.47715 2 12C2 17.5228 6.47715 22 12 22Z" stroke="#3A3A3A" stroke-width="1.5" stroke-miterlimit="10" stroke-linejoin="round"/>
</svg>
