<svg width="24" height="24" viewBox="0 0 24 24" fill="none" xmlns="http://www.w3.org/2000/svg">
<path d="M16.42 7.95024C18.86 10.3902 18.86 14.3502 16.42 16.7902C13.98 19.2302 10.02 19.2302 7.58 16.7902C5.14 14.3502 5.14 10.3902 7.58 7.95024C10.02 5.51024 13.98 5.51024 16.42 7.95024Z" stroke="#3A3A3A" stroke-width="1.5" stroke-linecap="round" stroke-linejoin="round"/>
<path d="M8.25097 21.64C6.25097 20.84 4.50097 19.39 3.34097 17.38C2.20097 15.41 1.82097 13.22 2.09097 11.13" stroke="#3A3A3A" stroke-width="1.5" stroke-linecap="round" stroke-linejoin="round"/>
<path d="M5.85156 4.47998C7.55156 3.14998 9.68156 2.35999 12.0016 2.35999C14.2716 2.35999 16.3616 3.12997 18.0416 4.40997" stroke="#3A3A3A" stroke-width="1.5" stroke-linecap="round" stroke-linejoin="round"/>
<path d="M15.75 21.64C17.75 20.84 19.5 19.39 20.66 17.38C21.8 15.41 22.18 13.22 21.91 11.13" stroke="#3A3A3A" stroke-width="1.5" stroke-linecap="round" stroke-linejoin="round"/>
</svg>
