<svg width="24" height="24" viewBox="0 0 24 24" fill="none" xmlns="http://www.w3.org/2000/svg">
<path d="M18 18.86H17.24C16.44 18.86 15.68 19.17 15.12 19.73L13.41 21.42C12.63 22.19 11.36 22.19 10.58 21.42L8.87 19.73C8.31 19.17 7.54 18.86 6.75 18.86H6C4.34 18.86 3 17.53 3 15.89V4.97C3 3.33 4.34 2 6 2H18C19.66 2 21 3.33 21 4.97V15.88C21 17.52 19.66 18.86 18 18.86Z" stroke="#3A3A3A" stroke-width="1.5" stroke-miterlimit="10" stroke-linecap="round" stroke-linejoin="round"/>
<path d="M12.0701 8.9498C12.0301 8.9498 11.97 8.9498 11.92 8.9498C10.87 8.9098 10.04 8.0598 10.04 6.9998C10.04 5.9198 10.9101 5.0498 11.9901 5.0498C13.0701 5.0498 13.9401 5.9298 13.9401 6.9998C13.9501 8.0598 13.1201 8.9198 12.0701 8.9498Z" stroke="#3A3A3A" stroke-width="1.5" stroke-linecap="round" stroke-linejoin="round"/>
<path d="M9.25043 11.9598C7.92043 12.8498 7.92043 14.2998 9.25043 15.1898C10.7604 16.1998 13.2404 16.1998 14.7504 15.1898C16.0804 14.2998 16.0804 12.8498 14.7504 11.9598C13.2404 10.9598 10.7704 10.9598 9.25043 11.9598Z" stroke="#3A3A3A" stroke-width="1.5" stroke-linecap="round" stroke-linejoin="round"/>
</svg>
