<svg width="21" height="21" viewBox="0 0 21 21" fill="none" xmlns="http://www.w3.org/2000/svg">
<path fill-rule="evenodd" clip-rule="evenodd" d="M14.0651 1.86603C14.0653 1.86624 14.0649 1.86583 14.0651 1.86603L18.6065 6.38745C20.7567 8.54924 20.7588 12.043 18.6051 14.1967L14.2151 18.5867L14.2137 18.5881C12.0519 20.7383 8.5581 20.7404 6.40443 18.5867L1.87443 14.0567C0.775448 12.9577 0.18616 11.4431 0.255496 9.88306L0.255619 9.88041L0.4957 4.87872C0.615034 2.50397 2.51323 0.605173 4.89986 0.497176C4.90025 0.497159 4.90065 0.497141 4.90104 0.497123L9.89563 0.257386C9.89618 0.257357 9.89672 0.257329 9.89727 0.257301C11.4515 0.176582 12.9673 0.768575 14.0651 1.86603ZM13.0044 2.92669C12.2027 2.12493 11.0988 1.69658 9.97388 1.75534L9.97071 1.7555L4.97072 1.9955L4.96847 1.99561C3.35592 2.06817 2.07487 3.34873 1.99385 4.95323C1.99384 4.95349 1.99386 4.95297 1.99385 4.95323L1.75402 9.94966C1.754 9.95008 1.75398 9.9505 1.75396 9.95092C1.70367 11.0904 2.13436 12.1953 2.93509 12.996L7.46509 17.526C9.03119 19.0921 11.5769 19.0944 13.1552 17.5253C13.1554 17.5251 13.1549 17.5255 13.1552 17.5253L17.5444 13.136C19.1103 11.5701 19.1128 9.02481 17.5442 7.44649C17.5438 7.44608 17.5434 7.44568 17.543 7.44527L13.0056 2.92786L13.0044 2.92669Z" fill="#3A3A3A"/>
<path fill-rule="evenodd" clip-rule="evenodd" d="M7.73486 5.97636C6.76836 5.97636 5.98486 6.75987 5.98486 7.72636C5.98486 8.69286 6.76836 9.47636 7.73486 9.47636C8.70136 9.47636 9.48486 8.69286 9.48486 7.72636C9.48486 6.75987 8.70136 5.97636 7.73486 5.97636ZM4.48486 7.72636C4.48486 5.93144 5.93994 4.47636 7.73486 4.47636C9.52979 4.47636 10.9849 5.93144 10.9849 7.72636C10.9849 9.52129 9.52979 10.9764 7.73486 10.9764C5.93994 10.9764 4.48486 9.52129 4.48486 7.72636Z" fill="#3A3A3A"/>
<path fill-rule="evenodd" clip-rule="evenodd" d="M15.7652 10.696C16.0581 10.9889 16.0581 11.4638 15.7652 11.7567L11.7652 15.7567C11.4723 16.0496 10.9974 16.0496 10.7045 15.7567C10.4116 15.4638 10.4116 14.9889 10.7045 14.696L14.7045 10.696C14.9974 10.4031 15.4723 10.4031 15.7652 10.696Z" fill="#3A3A3A"/>
</svg>
