<svg width="20" height="20" viewBox="0 0 20 20" fill="none" xmlns="http://www.w3.org/2000/svg">
<path fill-rule="evenodd" clip-rule="evenodd" d="M13.8302 1.63947C13.8304 1.63968 13.83 1.63927 13.8302 1.63947L18.3716 6.16089C20.5219 8.32267 20.5239 11.8165 18.3702 13.9701L13.9802 18.3601L13.9788 18.3616C11.817 20.5118 8.32324 20.5138 6.16956 18.3601L1.63956 13.8301C0.540585 12.7312 -0.0487032 11.2166 0.0206331 9.6565L0.020756 9.65384L0.260837 4.65216C0.380171 2.27741 2.27836 0.37861 4.665 0.270614C4.66539 0.270596 4.66578 0.270578 4.66618 0.270561L9.66077 0.0308235C9.66131 0.030795 9.66186 0.0307665 9.66241 0.0307381C11.2166 -0.0499805 12.7324 0.542012 13.8302 1.63947ZM12.7696 2.70013C11.9678 1.89837 10.8639 1.47002 9.73902 1.52878L9.73585 1.52894L4.73585 1.76894L4.73361 1.76904C3.12106 1.84161 1.84001 3.12217 1.75899 4.72666C1.75897 4.72692 1.759 4.7264 1.75899 4.72666L1.51915 9.7231C1.51914 9.72352 1.51912 9.72394 1.5191 9.72436C1.46881 10.8638 1.8995 11.9687 2.70022 12.7695L7.23022 17.2995C8.79632 18.8656 11.342 18.8678 12.9203 17.2987C12.9205 17.2985 12.9201 17.299 12.9203 17.2987L17.3096 12.9095C18.8755 11.3436 18.8779 8.79824 17.3094 7.21993C17.309 7.21952 17.3085 7.21912 17.3081 7.21871L12.7707 2.7013L12.7696 2.70013Z" fill="#3A3A3A"/>
<path fill-rule="evenodd" clip-rule="evenodd" d="M7.5 5.75005C6.5335 5.75005 5.75 6.53355 5.75 7.50005C5.75 8.46654 6.5335 9.25005 7.5 9.25005C8.4665 9.25005 9.25 8.46654 9.25 7.50005C9.25 6.53355 8.4665 5.75005 7.5 5.75005ZM4.25 7.50005C4.25 5.70512 5.70507 4.25005 7.5 4.25005C9.29493 4.25005 10.75 5.70512 10.75 7.50005C10.75 9.29497 9.29493 10.75 7.5 10.75C5.70507 10.75 4.25 9.29497 4.25 7.50005Z" fill="#3A3A3A"/>
</svg>
