<svg width="22" height="18" viewBox="0 0 22 18" fill="none" xmlns="http://www.w3.org/2000/svg">
<path fill-rule="evenodd" clip-rule="evenodd" d="M9.2421 2.08026C9.2421 1.66605 9.57789 1.33026 9.9921 1.33026H16.3721C18.2159 1.33026 19.6687 1.54117 20.5999 2.47243C21.5312 3.40369 21.7421 4.85645 21.7421 6.70026V7.62026C21.7421 8.03447 21.4063 8.37026 20.9921 8.37026C20.1305 8.37026 19.4321 9.07025 19.4321 9.94026C19.4321 10.7982 20.1284 11.5003 20.9921 11.5003C21.4063 11.5003 21.7421 11.836 21.7421 12.2503C21.7421 14.0941 21.5312 15.5468 20.5999 16.4781C19.6687 17.4094 18.2159 17.6203 16.3721 17.6203H9.9021C9.48789 17.6203 9.1521 17.2845 9.1521 16.8703C9.1521 16.456 9.48789 16.1203 9.9021 16.1203H16.3721C18.2283 16.1203 19.0855 15.8712 19.5393 15.4174C19.9359 15.0208 20.1762 14.3158 20.2304 12.9047C18.9054 12.5653 17.9321 11.3614 17.9321 9.94026C17.9321 8.50804 18.91 7.29844 20.2421 6.96277V6.70026C20.2421 4.84407 19.993 3.98683 19.5393 3.53309C19.0855 3.07935 18.2283 2.83026 16.3721 2.83026H10.7421V8.87026C10.7421 9.28447 10.4063 9.62026 9.9921 9.62026C9.57789 9.62026 9.2421 9.28447 9.2421 8.87026V2.08026Z" fill="#3A3A3A"/>
<path fill-rule="evenodd" clip-rule="evenodd" d="M6.68935 0.306035C7.07192 0.14953 7.50899 0.332056 7.66664 0.714156L10.6866 8.03416C10.7241 8.12488 10.7433 8.22206 10.7433 8.3202V10.8702C10.7433 11.2844 10.4075 11.6202 9.99332 11.6202C9.57911 11.6202 9.24332 11.2844 9.24332 10.8702V8.46883L6.5652 1.97749L4.61899 2.77366C4.6187 2.77378 4.61842 2.7739 4.61814 2.77401C2.85288 3.50127 2.13149 4.07519 1.87616 4.69115C1.629 5.28738 1.71761 6.16494 2.37396 7.81407C3.76254 7.6089 5.16487 8.35816 5.71649 9.71375C6.28466 11.0681 5.81144 12.601 4.67683 13.4217C5.11994 14.4661 5.51371 15.1398 5.91352 15.5549C6.29752 15.9536 6.69123 16.1202 7.22332 16.1202H9.24332V13.8702C9.24332 13.456 9.57911 13.1202 9.99332 13.1202C10.4075 13.1202 10.7433 13.456 10.7433 13.8702V16.8702C10.7433 17.2844 10.4075 17.6202 9.99332 17.6202H7.22332C6.27542 17.6202 5.49413 17.2818 4.83313 16.5955C4.20902 15.9475 3.70821 15.006 3.22031 13.827L3.21692 13.8188L3.21697 13.8187L3.03697 13.3687C2.96296 13.1837 2.96563 12.9768 3.04439 12.7938C3.12315 12.6107 3.27153 12.4665 3.45677 12.393C4.27516 12.0684 4.67924 11.1148 4.33221 10.2915L4.32809 10.2817L4.32816 10.2817C3.99617 9.46188 3.04846 9.05962 2.20774 9.40417C2.02219 9.48022 1.81391 9.47879 1.62941 9.40021C1.44492 9.32162 1.29958 9.17243 1.22585 8.98594L1.05747 8.56004C0.341608 6.80926 -0.0229945 5.35545 0.490494 4.11674C1.00512 2.8753 2.29354 2.10931 4.04766 1.38673L4.04935 1.38603L4.04935 1.38603L6.68935 0.306035Z" fill="#3A3A3A"/>
<path fill-rule="evenodd" clip-rule="evenodd" d="M6.24194 16.8703C6.24194 16.4561 6.57773 16.1203 6.99194 16.1203H7.16194C7.57616 16.1203 7.91194 16.4561 7.91194 16.8703C7.91194 17.2845 7.57616 17.6203 7.16194 17.6203H6.99194C6.57773 17.6203 6.24194 17.2845 6.24194 16.8703Z" fill="#3A3A3A"/>
</svg>
