<svg width="20" height="22" viewBox="0 0 20 22" fill="none" xmlns="http://www.w3.org/2000/svg">
<path fill-rule="evenodd" clip-rule="evenodd" d="M1.88309 1.49637C2.82923 0.485039 4.31678 0.25 6.20828 0.25H13.7683C15.6598 0.25 17.1473 0.485039 18.0935 1.49637C19.023 2.48991 19.2383 4.03644 19.2383 6.04V17.31C19.2383 18.0349 19.1406 18.6769 18.9288 19.1986C18.7161 19.7228 18.3644 20.1764 17.838 20.4036C17.3061 20.6332 16.7365 20.5712 16.2169 20.3471C15.7046 20.1262 15.1985 19.7332 14.7109 19.2128L14.7096 19.2113C14.4406 18.9226 14.1345 18.8193 13.8666 18.8339C13.5983 18.8485 13.3048 18.9847 13.0684 19.2998C13.0684 19.2999 13.0685 19.2997 13.0684 19.2998L12.0588 20.6493L12.0563 20.6527C11.531 21.3466 10.7916 21.7525 9.99328 21.7525C9.19497 21.7525 8.4556 21.3466 7.93029 20.6527L7.92774 20.6493L6.91828 19.3C6.91818 19.2999 6.91838 19.3001 6.91828 19.3C6.68193 18.9851 6.38819 18.8485 6.12 18.8339C5.85202 18.8193 5.54598 18.9226 5.27698 19.2113L5.2757 19.2127C4.7903 19.731 4.28521 20.1228 3.77296 20.3431C3.25338 20.5665 2.68408 20.6277 2.15213 20.3991C1.62553 20.1727 1.27158 19.7206 1.05607 19.1959C0.841597 18.6736 0.741011 18.0304 0.738286 17.3028L0.738281 17.3V6.04C0.738281 4.03644 0.953601 2.48991 1.88309 1.49637ZM2.97847 2.52113C2.49296 3.0401 2.23828 4.01356 2.23828 6.04V17.2986C2.24068 17.9053 2.3263 18.3404 2.44362 18.626C2.55997 18.9094 2.68352 18.9948 2.74442 19.0209C2.79997 19.0448 2.92817 19.0735 3.18046 18.9651C3.44009 18.8534 3.78124 18.614 4.18085 18.1873L4.72827 18.7L4.17957 18.1887C4.73057 17.5974 5.45953 17.2957 6.20156 17.3361C6.94325 17.3765 7.63468 17.7552 8.11828 18.4L9.12626 19.7473C9.12666 19.7478 9.12706 19.7484 9.12746 19.7489C9.41185 20.1238 9.73195 20.2525 9.99328 20.2525C10.2546 20.2525 10.5747 20.1237 10.8591 19.7489C10.8595 19.7483 10.8599 19.7478 10.8603 19.7473L11.8677 18.4007C12.3513 17.7559 13.0433 17.3765 13.785 17.3361C14.5266 17.2957 15.2552 17.5971 15.8061 18.1877C16.2083 18.617 16.5508 18.8576 16.8109 18.9697C17.0638 19.0788 17.1904 19.0493 17.2436 19.0264C17.3021 19.0011 17.4242 18.9172 17.539 18.6345C17.6547 18.3494 17.7383 17.9151 17.7383 17.31V6.04C17.7383 4.01356 17.4836 3.0401 16.9981 2.52113C16.5292 2.01996 15.6568 1.75 13.7683 1.75H6.20828C4.31978 1.75 3.44734 2.01996 2.97847 2.52113Z" fill="#3A3A3A"/>
<path fill-rule="evenodd" clip-rule="evenodd" d="M6.5 9C6.5 8.58579 6.83579 8.25 7.25 8.25H12.75C13.1642 8.25 13.5 8.58579 13.5 9C13.5 9.41421 13.1642 9.75 12.75 9.75H7.25C6.83579 9.75 6.5 9.41421 6.5 9Z" fill="#3A3A3A"/>
</svg>
