<svg width="24" height="24" viewBox="0 0 24 24" fill="none" xmlns="http://www.w3.org/2000/svg">
<path d="M15 22H9C4 22 2 20 2 15V9C2 4 4 2 9 2H15C20 2 22 4 22 9V15C22 20 20 22 15 22Z" stroke="#3A3A3A" stroke-width="1.5" stroke-linecap="round" stroke-linejoin="round"/>
<path d="M9.55086 17.72H7.10086C6.43086 17.72 5.88086 17.17 5.88086 16.5V7.51004C5.88086 6.84004 6.43086 6.29004 7.10086 6.29004H9.55086C10.2209 6.29004 10.7709 6.84004 10.7709 7.51004V16.49C10.7709 17.17 10.2209 17.72 9.55086 17.72Z" stroke="#3A3A3A" stroke-width="1.5" stroke-miterlimit="10"/>
<path d="M17.1407 13.63H14.2007C13.6607 13.63 13.2207 13.19 13.2207 12.65V7.27004C13.2207 6.73004 13.6607 6.29004 14.2007 6.29004H17.1407C17.6807 6.29004 18.1207 6.73004 18.1207 7.27004V12.66C18.1307 13.19 17.6807 13.63 17.1407 13.63Z" stroke="#3A3A3A" stroke-width="1.5" stroke-miterlimit="10"/>
</svg>
