<svg width="24" height="24" viewBox="0 0 24 24" fill="none" xmlns="http://www.w3.org/2000/svg">
<path d="M18.9996 9.9V16.8C18.9996 17.6 18.5996 18.3 17.8996 18.6L11.3996 21.7C10.8996 21.9 10.1996 21.9 9.69961 21.7L3.19961 18.6C2.49961 18.3 2.09961 17.6 2.09961 16.8V9.3C2.09961 8.5 2.49961 7.8 3.19961 7.5L9.69961 4.4C10.1996 4.2 10.8996 4.2 11.3996 4.4L13.9996 5.7C13.9996 5.8 13.9996 5.9 13.9996 6C13.9996 8.2 15.7996 10 17.9996 10C18.3996 10 18.6996 10 18.9996 9.9Z" stroke="#3A3A3A" stroke-width="1.5" stroke-miterlimit="10" stroke-linejoin="round"/>
<path d="M7 10.5V13.5C7 14.6 7.9 15.5 9 15.5C10.1 15.5 11 14.6 11 13.5V10.5" stroke="#3A3A3A" stroke-width="1.5" stroke-miterlimit="10" stroke-linecap="round"/>
<path d="M14 10.5V15.4" stroke="#3A3A3A" stroke-width="1.5" stroke-miterlimit="10" stroke-linecap="round"/>
<path d="M22 6C22 7.9 20.7 9.4 19 9.9C18.7 10 18.4 10 18 10C15.8 10 14 8.2 14 6C14 5.9 14 5.8 14 5.7C14.2 3.7 15.9 2 18 2C20.2 2 22 3.8 22 6Z" stroke="#3A3A3A" stroke-width="1.5" stroke-miterlimit="10"/>
<path d="M19.1004 5.8998C19.3004 5.6998 19.5004 5.3998 19.5004 5.0998C19.5004 4.2998 18.9004 3.7998 18.0004 3.7998C17.1004 3.7998 16.5004 4.2998 16.5004 5.0998C16.5004 5.3998 16.6004 5.6998 16.9004 5.8998C16.6004 6.0998 16.4004 6.4998 16.4004 6.8998C16.4004 7.6998 17.0004 8.1998 18.0004 8.1998C19.0004 8.1998 19.6004 7.6998 19.6004 6.8998C19.6004 6.4998 19.4004 6.0998 19.1004 5.8998ZM18.0004 5.4998C17.7004 5.4998 17.6004 5.3998 17.6004 5.0998C17.6004 4.7998 17.8004 4.6998 18.0004 4.6998C18.2004 4.6998 18.4004 4.7998 18.4004 5.0998C18.4004 5.3998 18.3004 5.4998 18.0004 5.4998ZM18.0004 6.2998C18.3004 6.2998 18.6004 6.3998 18.6004 6.7998C18.6004 7.0998 18.4004 7.2998 18.0004 7.2998C17.6004 7.2998 17.4004 7.0998 17.4004 6.7998C17.4004 6.3998 17.9004 6.2998 18.0004 6.2998Z" fill="#3A3A3A"/>
</svg>
