<svg width="22" height="20" viewBox="0 0 22 20" fill="none" xmlns="http://www.w3.org/2000/svg">
<path fill-rule="evenodd" clip-rule="evenodd" d="M5.25 7C5.25 6.58579 5.58579 6.25 6 6.25H12C12.4142 6.25 12.75 6.58579 12.75 7C12.75 7.41421 12.4142 7.75 12 7.75H6C5.58579 7.75 5.25 7.41421 5.25 7Z" fill="#3A3A3A"/>
<path fill-rule="evenodd" clip-rule="evenodd" d="M17.92 8.70001C17.5609 8.70001 17.2452 8.83923 17.0173 9.0732L17.0039 9.08667C16.7378 9.34638 16.5892 9.71616 16.6266 10.1089L16.6275 10.1177L16.6274 10.1177C16.6803 10.7527 17.2909 11.3 18.04 11.3H19.9828C20.1444 11.2896 20.25 11.1632 20.25 11.03V8.96997C20.25 8.83685 20.1444 8.71044 19.9828 8.70001H17.92ZM15.9493 8.01996C16.4609 7.49815 17.1623 7.20001 17.92 7.20001H20C20.0089 7.20001 20.0179 7.20017 20.0268 7.20049C20.9798 7.23453 21.75 8.0057 21.75 8.96997V11.03C21.75 11.9943 20.9798 12.7655 20.0268 12.7995C20.0179 12.7998 20.0089 12.8 20 12.8H18.04C16.6304 12.8 15.2623 11.7693 15.133 10.2467C15.0522 9.38451 15.3805 8.57905 15.9493 8.01996Z" fill="#3A3A3A"/>
<path fill-rule="evenodd" clip-rule="evenodd" d="M6 2.25C5.75575 2.25 5.52398 2.26744 5.30405 2.30128L5.28339 2.30416C4.17606 2.44312 3.30559 2.91721 2.70955 3.61651C2.11197 4.31761 1.75 5.29287 1.75 6.5V13.5C1.75 14.8296 2.18991 15.8793 2.90533 16.5947C3.62075 17.3101 4.67044 17.75 6 17.75H15C16.3296 17.75 17.3793 17.3101 18.0947 16.5947C18.8101 15.8793 19.25 14.8296 19.25 13.5V12.8H18.04C16.6304 12.8 15.2623 11.7693 15.133 10.2467C15.0522 9.3845 15.3805 8.57904 15.9493 8.01995C16.4609 7.49815 17.1623 7.20001 17.92 7.20001H19.25V6.5C19.25 5.2847 18.8817 4.30336 18.2747 3.59999C17.6691 2.89822 16.7851 2.42541 15.6634 2.29497C15.6511 2.29354 15.6389 2.29181 15.6267 2.28978C15.4468 2.2598 15.2446 2.25 15 2.25H6ZM5.08633 0.817133C5.38313 0.772038 5.68789 0.75 6 0.75H15C15.2697 0.75 15.5608 0.759753 15.8545 0.807109C17.305 0.979744 18.5395 1.6109 19.4103 2.62C20.2833 3.63163 20.75 4.9753 20.75 6.5V7.95001C20.75 8.36423 20.4142 8.70001 20 8.70001H17.92C17.5609 8.70001 17.2451 8.83923 17.0173 9.0732L17.0039 9.08667C16.7378 9.34638 16.5892 9.71616 16.6266 10.1089L16.6275 10.1177L16.6274 10.1177C16.6803 10.7527 17.2909 11.3 18.04 11.3H20C20.4142 11.3 20.75 11.6358 20.75 12.05V13.5C20.75 15.1704 20.1899 16.6207 19.1553 17.6553C18.1207 18.6899 16.6704 19.25 15 19.25H6C4.32956 19.25 2.87925 18.6899 1.84467 17.6553C0.810085 16.6207 0.25 15.1704 0.25 13.5V6.5C0.25 4.98713 0.708031 3.65239 1.56796 2.64349C2.42737 1.63519 3.64812 0.999902 5.08633 0.817133Z" fill="#3A3A3A"/>
</svg>
