<svg width="22" height="22" viewBox="0 0 22 22" fill="none" xmlns="http://www.w3.org/2000/svg">
<path fill-rule="evenodd" clip-rule="evenodd" d="M5.98164 5.25021C5.98776 5.25021 5.99388 5.25021 6 5.25021H16.8C16.8299 5.25021 16.8597 5.252 16.8894 5.25556C19.7995 5.60477 21.75 7.95493 21.75 11.0002V16.0002C21.75 17.6707 21.1899 19.121 20.1553 20.1555C19.1207 21.1901 17.6704 21.7502 16 21.7502H11C10.5858 21.7502 10.25 21.4144 10.25 21.0002C10.25 20.586 10.5858 20.2502 11 20.2502H16C17.3296 20.2502 18.3793 19.8103 19.0947 19.0949C19.8101 18.3795 20.25 17.3298 20.25 16.0002V11.0002C20.25 8.6616 18.8203 7.01826 16.7534 6.75021H6C5.70688 6.75021 5.61297 6.7531 5.43717 6.8117C5.38806 6.82807 5.33739 6.83931 5.28596 6.84525C4.15378 6.97588 3.28472 7.44624 2.69563 8.13691C2.10398 8.83057 1.75 9.79953 1.75 11.0002V12.0002C1.75 12.4144 1.41421 12.7502 1 12.7502C0.585786 12.7502 0.25 12.4144 0.25 12.0002V11.0002C0.25 9.5009 0.696021 8.16984 1.55437 7.16349C2.4008 6.17112 3.60493 5.54578 5.0402 5.36407C5.41671 5.2501 5.69984 5.25016 5.98164 5.25021Z" fill="#3A3A3A"/>
<path fill-rule="evenodd" clip-rule="evenodd" d="M9.53416 2.52671L6.89317 5.25023H15.8509C15.7177 4.90078 15.5261 4.58697 15.2696 4.33055L13.4696 2.53056C12.3638 1.42474 10.6414 1.42345 9.53416 2.52671ZM5.26562 4.77391L8.46958 1.46983C10.1625 -0.223059 12.8374 -0.222997 14.5303 1.4699L16.3303 3.26988C17.0803 4.01987 17.4299 4.99315 17.5442 5.9072C17.5709 6.12066 17.5046 6.33531 17.3622 6.49658C17.2199 6.65785 17.0151 6.75023 16.8 6.75023H5.99997C5.70686 6.75023 5.61294 6.75312 5.43714 6.81172C5.16764 6.90155 4.87052 6.83141 4.66964 6.63053C4.46877 6.42966 4.39863 6.13253 4.48846 5.86303C4.64562 5.39155 4.96165 5.07675 5.22561 4.8138C5.2391 4.80037 5.25244 4.78708 5.26562 4.77391Z" fill="#3A3A3A"/>
<path fill-rule="evenodd" clip-rule="evenodd" d="M15.25 13.5002C15.25 11.986 16.4858 10.7502 18 10.7502H21C21.4142 10.7502 21.75 11.086 21.75 11.5002C21.75 11.9144 21.4142 12.2502 21 12.2502H18C17.3142 12.2502 16.75 12.8144 16.75 13.5002C16.75 14.186 17.3142 14.7502 18 14.7502H21C21.4142 14.7502 21.75 15.086 21.75 15.5002C21.75 15.9144 21.4142 16.2502 21 16.2502H18C16.4858 16.2502 15.25 15.0144 15.25 13.5002Z" fill="#3A3A3A"/>
<path fill-rule="evenodd" clip-rule="evenodd" d="M0.851562 17.2002C0.851562 15.016 2.61735 13.2502 4.80157 13.2502C6.98579 13.2502 8.75156 15.016 8.75156 17.2002C8.75156 19.3844 6.98579 21.1502 4.80157 21.1502C2.61735 21.1502 0.851562 19.3844 0.851562 17.2002ZM4.80157 14.7502C3.44578 14.7502 2.35156 15.8444 2.35156 17.2002C2.35156 18.556 3.44578 19.6502 4.80157 19.6502C6.15735 19.6502 7.25156 18.556 7.25156 17.2002C7.25156 15.8444 6.15735 14.7502 4.80157 14.7502Z" fill="#3A3A3A"/>
<path fill-rule="evenodd" clip-rule="evenodd" d="M2.53033 19.4699C2.82322 19.7628 2.82322 20.2377 2.53033 20.5305L1.53033 21.5305C1.23744 21.8234 0.762563 21.8234 0.46967 21.5305C0.176777 21.2377 0.176777 20.7628 0.46967 20.4699L1.46967 19.4699C1.76256 19.177 2.23744 19.177 2.53033 19.4699Z" fill="#3A3A3A"/>
</svg>
