<svg width="22" height="21" viewBox="0 0 22 21" fill="none" xmlns="http://www.w3.org/2000/svg">
<path fill-rule="evenodd" clip-rule="evenodd" d="M2.60156 14.1104C3.01578 14.1104 3.35156 14.4461 3.35156 14.8604C3.35156 16.021 4.4539 17.0504 6.18158 17.0504C7.89596 17.0504 9.00159 16.0136 9.00159 14.8604C9.00159 14.4461 9.33737 14.1104 9.75159 14.1104C10.1658 14.1104 10.5016 14.4461 10.5016 14.8604V16.8904C10.5016 19.119 8.46465 20.7504 6.18158 20.7504C3.9014 20.7504 1.85156 19.1215 1.85156 16.8904V14.8604C1.85156 14.4461 2.18735 14.1104 2.60156 14.1104ZM3.60511 17.856C4.03545 18.6474 4.98028 19.2504 6.18158 19.2504C7.38358 19.2504 8.32568 18.6459 8.7524 17.8515C8.01279 18.3034 7.10857 18.5504 6.18158 18.5504C5.2522 18.5504 4.34616 18.3059 3.60511 17.856Z" fill="#3A3A3A"/>
<path fill-rule="evenodd" clip-rule="evenodd" d="M6.15979 9.75977C5.3414 9.75977 4.62994 10.0402 4.12431 10.4836L4.1237 10.4842C3.62368 10.9217 3.33984 11.4946 3.33984 12.1097C3.33984 12.4642 3.43771 12.7906 3.61085 13.0804C4.0383 13.7727 4.97611 14.2997 6.1698 14.2997C7.3683 14.2997 8.30252 13.7793 8.72786 13.0819C8.90158 12.7916 8.99982 12.4647 8.99982 12.1097C8.99982 11.4927 8.71501 10.917 8.20968 10.4959L8.20022 10.488L8.20029 10.4879C7.68852 10.047 6.97289 9.75977 6.15979 9.75977ZM3.13533 9.35584C3.92971 8.65924 4.99818 8.25977 6.15979 8.25977C7.3244 8.25977 8.38694 8.67082 9.17471 9.34754C9.98664 10.0263 10.4998 11.0089 10.4998 12.1097C10.4998 12.754 10.3185 13.3463 10.0129 13.8556L10.0106 13.8595L10.0106 13.8595C9.25538 15.1011 7.7702 15.7997 6.1698 15.7997C4.56544 15.7997 3.08433 15.0885 2.33082 13.8624L2.32663 13.8556L2.32667 13.8556C2.02108 13.3463 1.83984 12.7539 1.83984 12.1097C1.83984 11.0049 2.35597 10.0378 3.13594 9.35531L3.62982 9.91974L3.13533 9.35584Z" fill="#3A3A3A"/>
<path fill-rule="evenodd" clip-rule="evenodd" d="M6.18158 9.75C4.51321 9.75 3.35156 10.8998 3.35156 12.11V14.86C3.35156 16.0109 4.46426 17.05 6.18158 17.05C7.89779 17.05 9.00159 16.0218 9.00159 14.86V12.11C9.00159 11.493 8.71628 10.9116 8.21991 10.4763C7.70829 10.0365 6.99354 9.75 6.18158 9.75ZM1.85156 12.11C1.85156 9.88014 3.88995 8.25 6.18158 8.25C7.34848 8.25 8.41291 8.66268 9.20114 9.34177L9.2055 9.34552L9.20549 9.34554C9.98777 10.03 10.5016 11.0079 10.5016 12.11V14.86C10.5016 17.1382 8.40537 18.55 6.18158 18.55C3.9589 18.55 1.85156 17.1291 1.85156 14.86V12.11Z" fill="#3A3A3A"/>
<path fill-rule="evenodd" clip-rule="evenodd" d="M17.92 8.70001C17.5609 8.70001 17.2452 8.83923 17.0173 9.0732L17.0039 9.08667C16.7378 9.34638 16.5892 9.71616 16.6266 10.1089L16.6275 10.1177L16.6274 10.1177C16.6803 10.7527 17.2909 11.3 18.04 11.3H19.9828C20.1444 11.2896 20.25 11.1632 20.25 11.03V8.96997C20.25 8.83685 20.1444 8.71044 19.9828 8.70001H17.92ZM15.9493 8.01996C16.4609 7.49815 17.1623 7.20001 17.92 7.20001H20C20.0089 7.20001 20.0179 7.20017 20.0268 7.20049C20.9798 7.23453 21.75 8.0057 21.75 8.96997V11.03C21.75 11.9943 20.9798 12.7655 20.0268 12.7995C20.0179 12.7998 20.0089 12.8 20 12.8H18.04C16.6304 12.8 15.2623 11.7693 15.133 10.2467C15.0522 9.38451 15.3805 8.57905 15.9493 8.01996Z" fill="#3A3A3A"/>
<path fill-rule="evenodd" clip-rule="evenodd" d="M6 2.25C5.75575 2.25 5.52398 2.26744 5.30405 2.30128L5.28339 2.30416C4.17606 2.44312 3.30559 2.91721 2.70955 3.61651C2.11197 4.31761 1.75 5.29287 1.75 6.5V8.5C1.75 8.91421 1.41421 9.25 1 9.25C0.585786 9.25 0.25 8.91421 0.25 8.5V6.5C0.25 4.98713 0.708031 3.65239 1.56796 2.64349C2.42737 1.63519 3.64812 0.999902 5.08633 0.817133C5.38313 0.772038 5.68789 0.75 6 0.75H15C15.2697 0.75 15.5608 0.759753 15.8545 0.807109C17.305 0.979744 18.5395 1.6109 19.4103 2.62C20.2833 3.63163 20.75 4.9753 20.75 6.5V7.95001C20.75 8.36423 20.4142 8.70001 20 8.70001H17.92C17.5609 8.70001 17.2451 8.83923 17.0173 9.0732L17.0039 9.08667C16.7378 9.34638 16.5892 9.71616 16.6266 10.1089L16.6275 10.1177L16.6274 10.1177C16.6803 10.7527 17.2909 11.3 18.04 11.3H20C20.4142 11.3 20.75 11.6358 20.75 12.05V13.5C20.75 15.1704 20.1899 16.6207 19.1553 17.6553C18.1207 18.6899 16.6704 19.25 15 19.25H12.5C12.0858 19.25 11.75 18.9142 11.75 18.5C11.75 18.0858 12.0858 17.75 12.5 17.75H15C16.3296 17.75 17.3793 17.3101 18.0947 16.5947C18.8101 15.8793 19.25 14.8296 19.25 13.5V12.8H18.04C16.6304 12.8 15.2623 11.7693 15.133 10.2467C15.0522 9.3845 15.3805 8.57904 15.9493 8.01995C16.4609 7.49815 17.1623 7.20001 17.92 7.20001H19.25V6.5C19.25 5.2847 18.8817 4.30336 18.2747 3.59999C17.6691 2.89822 16.7851 2.42541 15.6634 2.29497C15.6511 2.29354 15.6389 2.29181 15.6267 2.28978C15.4468 2.2598 15.2446 2.25 15 2.25H6Z" fill="#3A3A3A"/>
</svg>
