<svg width="22" height="22" viewBox="0 0 22 22" fill="none" xmlns="http://www.w3.org/2000/svg">
<path fill-rule="evenodd" clip-rule="evenodd" d="M7.51172 14.4386C7.51172 14.0244 7.84751 13.6886 8.26172 13.6886H13.2617C13.6759 13.6886 14.0117 14.0244 14.0117 14.4386C14.0117 14.8528 13.6759 15.1886 13.2617 15.1886H8.26172C7.84751 15.1886 7.51172 14.8528 7.51172 14.4386Z" fill="#3A3A3A"/>
<path fill-rule="evenodd" clip-rule="evenodd" d="M10.7617 11.2482C11.1759 11.2482 11.5117 11.584 11.5117 11.9982V16.9982C11.5117 17.4124 11.1759 17.7482 10.7617 17.7482C10.3475 17.7482 10.0117 17.4124 10.0117 16.9982V11.9982C10.0117 11.584 10.3475 11.2482 10.7617 11.2482Z" fill="#3A3A3A"/>
<path fill-rule="evenodd" clip-rule="evenodd" d="M8.4571 1.9282C7.81625 2.21724 7.21497 2.92354 6.5784 4.3959C6.56895 4.41776 6.55846 4.43916 6.54698 4.46001C6.54607 4.46252 6.54496 4.46565 6.54361 4.46953L6.5315 4.50544C6.52433 4.52695 6.51619 4.54812 6.5071 4.56889L6.4419 4.71792L6.40189 4.81794L5.23497 7.60497C5.44682 7.58075 5.66208 7.56827 5.87998 7.56827H8.2365L10.6504 1.96633C9.64376 1.67186 8.96875 1.69742 8.4571 1.9282ZM7.84037 0.560845C9.02466 0.0266918 10.3802 0.225674 11.928 0.817778C12.1185 0.890686 12.2712 1.0381 12.3507 1.22602C12.4302 1.41395 12.4297 1.62615 12.3493 1.81371L12.3193 1.88371L9.41876 8.61507C9.30024 8.8901 9.02947 9.06827 8.72998 9.06827H5.87998C5.30353 9.06827 4.75285 9.18686 4.2526 9.39884C3.97179 9.51782 3.64691 9.45492 3.4308 9.23974C3.21469 9.02456 3.15039 8.69995 3.26817 8.41863L5.01585 4.24416L5.05363 4.14973C5.05659 4.14232 5.05967 4.13496 5.06287 4.12766L5.11884 3.99972C5.1359 3.94877 5.16762 3.85958 5.21587 3.76766C5.88624 2.22672 6.677 1.08557 7.84037 0.560845Z" fill="#3A3A3A"/>
<path fill-rule="evenodd" clip-rule="evenodd" d="M10.9706 1.22284C11.1243 0.864308 11.5271 0.683412 11.8972 0.806762C12.0207 0.847952 12.1915 0.921669 12.2969 0.967193C12.3336 0.983034 12.3624 0.995461 12.3785 1.00192L12.3909 1.00688L14.5991 1.93623C15.8609 2.45959 16.8599 3.04693 17.4991 3.83167C17.6121 3.96759 17.7191 4.1115 17.8161 4.28668C17.9177 4.44788 18.0138 4.63329 18.078 4.84644C18.1213 4.95059 18.1556 5.05406 18.1812 5.1514C18.5221 6.23914 18.2827 7.46631 17.7456 8.79868C17.5996 9.16088 17.2001 9.35043 16.8272 9.23442C16.4623 9.1209 16.0594 9.06827 15.64 9.06827H8.72998C8.47761 9.06827 8.24216 8.94135 8.10345 8.73053C7.96473 8.5197 7.94134 8.25324 8.04121 8.02148L10.9412 1.29148L10.9706 1.22284ZM12.0565 2.49368L9.86983 7.56827H15.64C15.9483 7.56827 16.262 7.59019 16.5739 7.6399C16.8733 6.72521 16.9024 6.07446 16.746 5.58778C16.7409 5.57207 16.7364 5.55619 16.7324 5.54018C16.7226 5.50094 16.7065 5.45209 16.6846 5.40288C16.6686 5.36685 16.6555 5.32962 16.6453 5.29152C16.6317 5.24038 16.6027 5.17274 16.5391 5.07384C16.5286 5.05756 16.5188 5.04089 16.5096 5.02385C16.4712 4.95245 16.4241 4.88478 16.3438 4.78841L16.3379 4.78126C15.9373 4.28821 15.2181 3.81671 14.0227 3.32108L14.0191 3.31957L12.0565 2.49368Z" fill="#3A3A3A"/>
<path fill-rule="evenodd" clip-rule="evenodd" d="M4.26442 9.39903C2.7908 10.0361 1.76172 11.5012 1.76172 13.1985V15.1485C1.76172 15.3479 1.77841 15.5544 1.80542 15.7615C1.80748 15.7773 1.80904 15.7932 1.81009 15.8091C1.90708 17.2778 2.34015 18.3038 3.0233 18.9869C3.70644 19.67 4.73243 20.1031 6.20114 20.2001C6.21705 20.2012 6.23292 20.2027 6.24872 20.2048C6.45578 20.2318 6.66229 20.2485 6.86172 20.2485H14.6617C16.4018 20.2485 17.6075 19.8345 18.3963 19.1247C19.1782 18.4211 19.6646 17.3235 19.7528 15.709C19.7629 15.5067 19.7717 15.326 19.7717 15.1485V13.1985C19.7717 11.3308 18.5297 9.75463 16.8455 9.23667C16.4772 9.12823 16.0702 9.06848 15.6517 9.06848H5.89172C5.31908 9.06848 4.77821 9.18554 4.26442 9.39903ZM3.68326 8.01617C4.3682 7.73078 5.10593 7.56848 5.89172 7.56848H15.6517C16.2119 7.56848 16.7636 7.64834 17.2742 7.79922L17.2815 7.80138L17.2815 7.80141C19.5755 8.5046 21.2717 10.6475 21.2717 13.1985V15.1485C21.2717 15.3673 21.2609 15.5831 21.2512 15.7779L21.2508 15.7859L21.2506 15.7893C21.1485 17.664 20.565 19.191 19.3997 20.2397C18.2409 21.2825 16.6216 21.7485 14.6617 21.7485H6.86172C6.58995 21.7485 6.32483 21.7266 6.07859 21.6953C4.37794 21.579 2.9723 21.0572 1.96264 20.0476C0.952975 19.0379 0.431196 17.6323 0.314943 15.9316C0.283587 15.6854 0.261719 15.4203 0.261719 15.1485V13.1985C0.261719 10.8774 1.67069 8.8836 3.67485 8.01974L3.68324 8.01612L3.68326 8.01617Z" fill="#3A3A3A"/>
<path fill-rule="evenodd" clip-rule="evenodd" d="M6.29109 4.05411C6.46622 4.26873 6.50879 4.5624 6.40182 4.81792L4.65182 8.99792C4.57681 9.17707 4.43523 9.32014 4.25687 9.39702C2.78103 10.0332 1.75 11.4994 1.75 13.1983C1.75 13.6125 1.41421 13.9483 1 13.9483C0.585786 13.9483 0.25 13.6125 0.25 13.1983V10.2683C0.25 7.0641 2.52924 4.39055 5.56502 3.79243C5.8368 3.73888 6.11596 3.83949 6.29109 4.05411ZM1.8472 9.27132C2.28938 8.81683 2.80734 8.43652 3.38028 8.15088L4.35814 5.81519C3.0781 6.53261 2.14089 7.78642 1.8472 9.27132Z" fill="#3A3A3A"/>
<path fill-rule="evenodd" clip-rule="evenodd" d="M16.8617 4.56408C17.0927 4.33603 17.4441 4.28246 17.7326 4.43133C19.8366 5.51728 21.2686 7.74121 21.2686 10.2678V13.1978C21.2686 13.612 20.9328 13.9478 20.5186 13.9478C20.1044 13.9478 19.7686 13.612 19.7686 13.1978C19.7686 11.3356 18.5322 9.7529 16.8431 9.24617C16.6415 9.18568 16.4745 9.04323 16.3831 8.85363C16.2916 8.66402 16.2841 8.44471 16.3622 8.24925C16.8587 7.00811 16.9387 6.18019 16.7591 5.56942C16.7543 5.55326 16.7501 5.53694 16.7465 5.5205C16.7373 5.4792 16.7257 5.449 16.7178 5.43321C16.5726 5.14288 16.6307 4.79212 16.8617 4.56408ZM19.6696 9.26566C19.473 8.28251 18.9933 7.39828 18.3204 6.70966C18.2742 7.15168 18.1687 7.61166 18.0144 8.09079C18.6362 8.37958 19.1964 8.77982 19.6696 9.26566Z" fill="#3A3A3A"/>
</svg>
