<svg width="22" height="22" viewBox="0 0 22 22" fill="none" xmlns="http://www.w3.org/2000/svg">
<path fill-rule="evenodd" clip-rule="evenodd" d="M6 6.75C5.75575 6.75 5.52397 6.76744 5.30404 6.80128L5.28339 6.80416C4.17606 6.94312 3.30559 7.41721 2.70955 8.11651C2.11197 8.81761 1.75 9.79286 1.75 11V16C1.75 17.3296 2.18991 18.3793 2.90533 19.0947C3.62075 19.8101 4.67044 20.25 6 20.25H16C17.3296 20.25 18.3793 19.8101 19.0947 19.0947C19.8101 18.3793 20.25 17.3296 20.25 16V11C20.25 9.7847 19.8817 8.80336 19.2747 8.09999C18.6691 7.39822 17.7851 6.92541 16.6634 6.79497C16.6511 6.79354 16.6389 6.79181 16.6267 6.78978C16.4468 6.7598 16.2446 6.75 16 6.75H6ZM5.08633 5.31713C5.38313 5.27204 5.68789 5.25 6 5.25H16C16.2697 5.25 16.5608 5.25975 16.8545 5.30711C18.305 5.47974 19.5395 6.1109 20.4103 7.12C21.2833 8.13163 21.75 9.4753 21.75 11V16C21.75 17.6704 21.1899 19.1207 20.1553 20.1553C19.1207 21.1899 17.6704 21.75 16 21.75H6C4.32956 21.75 2.87925 21.1899 1.84467 20.1553C0.810085 19.1207 0.25 17.6704 0.25 16V11C0.25 9.48713 0.70803 8.15239 1.56795 7.14349C2.42737 6.13519 3.64812 5.4999 5.08633 5.31713Z" fill="#3A3A3A"/>
<path fill-rule="evenodd" clip-rule="evenodd" d="M9.55109 2.55098L6.86035 5.25001H15.8232C15.6906 4.91449 15.4853 4.60015 15.2053 4.32451L15.198 4.31738L13.4507 2.54997C12.3734 1.48301 10.628 1.48335 9.55109 2.55098ZM5.24108 4.74968L8.49302 1.48773C10.1555 -0.162581 12.8474 -0.162573 14.5098 1.48773L14.5148 1.49268L16.2613 3.25925C17.0351 4.02278 17.4517 4.99997 17.5005 6.0139C17.5115 6.24042 17.4193 6.45972 17.2498 6.61043C17.0804 6.76114 16.8518 6.82708 16.6281 6.7898C16.4482 6.75982 16.246 6.75001 16.0014 6.75001H6.00141C5.75716 6.75001 5.52538 6.76746 5.30545 6.80129C5.02831 6.84393 4.75052 6.7284 4.58534 6.50181C4.42017 6.27522 4.39519 5.97541 4.52059 5.7246C4.70465 5.35648 4.95863 5.0322 5.24108 4.74968C5.24095 4.74981 5.24121 4.74955 5.24108 4.74968Z" fill="#3A3A3A"/>
<path fill-rule="evenodd" clip-rule="evenodd" d="M15.25 13.5C15.25 11.9858 16.4858 10.75 18 10.75H21C21.4142 10.75 21.75 11.0858 21.75 11.5C21.75 11.9142 21.4142 12.25 21 12.25H18C17.3142 12.25 16.75 12.8142 16.75 13.5C16.75 14.1858 17.3142 14.75 18 14.75H21C21.4142 14.75 21.75 15.0858 21.75 15.5C21.75 15.9142 21.4142 16.25 21 16.25H18C16.4858 16.25 15.25 15.0142 15.25 13.5Z" fill="#3A3A3A"/>
</svg>
