<svg width="22" height="20" viewBox="0 0 22 20" fill="none" xmlns="http://www.w3.org/2000/svg">
<path fill-rule="evenodd" clip-rule="evenodd" d="M5.25 9.14984C5.25 8.73563 5.58579 8.39984 6 8.39984H12C12.4142 8.39984 12.75 8.73563 12.75 9.14984C12.75 9.56405 12.4142 9.89984 12 9.89984H6C5.58579 9.89984 5.25 9.56405 5.25 9.14984Z" fill="#3A3A3A"/>
<path fill-rule="evenodd" clip-rule="evenodd" d="M4.69 1.58984C3.06422 1.58984 1.75 2.90406 1.75 4.52985V9.14984C1.75 9.56405 1.41421 9.89984 1 9.89984C0.585786 9.89984 0.25 9.56405 0.25 9.14984V4.52985C0.25 2.07563 2.23579 0.0898438 4.69 0.0898438H10.31C11.4814 0.0898438 12.5852 0.454617 13.4083 1.16055C14.242 1.87563 14.75 2.91113 14.75 4.14984C14.75 4.56405 14.4142 4.89984 14 4.89984C13.5858 4.89984 13.25 4.56405 13.25 4.14984C13.25 3.34856 12.933 2.72905 12.4317 2.29913C11.9198 1.86007 11.1785 1.58984 10.31 1.58984H4.69Z" fill="#3A3A3A"/>
<path fill-rule="evenodd" clip-rule="evenodd" d="M5 4.89984C3.20421 4.89984 1.75 6.35405 1.75 8.14984V15.1498C1.75 16.9456 3.20421 18.3998 5 18.3998H15C16.7958 18.3998 18.25 16.9456 18.25 15.1498V14.4498H18.07C16.8343 14.4498 15.5693 13.6897 15.2157 12.3745L15.2147 12.3707L15.2147 12.3707C14.9451 11.3463 15.2656 10.3322 15.9515 9.66759C16.4629 9.14719 17.1633 8.84979 17.92 8.84979H18.25V8.14984C18.25 6.36405 16.7858 4.89984 15 4.89984H5ZM0.25 8.14984C0.25 5.52563 2.37579 3.39984 5 3.39984H15C17.6142 3.39984 19.75 5.53563 19.75 8.14984V9.59979C19.75 10.014 19.4142 10.3498 19 10.3498H17.92C17.561 10.3498 17.2452 10.489 17.0173 10.723C17.0114 10.7291 17.0055 10.735 16.9994 10.7409C16.692 11.036 16.5365 11.4965 16.6648 11.9869C16.812 12.5309 17.3865 12.9498 18.07 12.9498H19C19.4142 12.9498 19.75 13.2856 19.75 13.6998V15.1498C19.75 17.7741 17.6242 19.8998 15 19.8998H5C2.37579 19.8998 0.25 17.7741 0.25 15.1498V8.14984Z" fill="#3A3A3A"/>
<path fill-rule="evenodd" clip-rule="evenodd" d="M17.92 10.3498C17.561 10.3498 17.2452 10.489 17.0173 10.723L17.0039 10.7365C16.7378 10.9962 16.5892 11.366 16.6266 11.7587L16.6275 11.7675L16.6274 11.7675C16.6803 12.4025 17.2909 12.9498 18.04 12.9498H19.97C20.1305 12.9498 20.25 12.8208 20.25 12.6798V10.6198C20.25 10.4788 20.1305 10.3498 19.97 10.3498H17.92ZM15.9493 9.6698C16.4609 9.14803 17.1623 8.84979 17.92 8.84979H19.97C20.9494 8.84979 21.75 9.64084 21.75 10.6198V12.6798C21.75 13.6588 20.9494 14.4498 19.97 14.4498H18.04C16.6304 14.4498 15.2623 13.4191 15.133 11.8965C15.0522 11.0344 15.3805 10.2289 15.9493 9.6698Z" fill="#3A3A3A"/>
</svg>
