<svg width="24" height="24" viewBox="0 0 24 24" fill="none" xmlns="http://www.w3.org/2000/svg">
<path fill-rule="evenodd" clip-rule="evenodd" d="M6 9.69999V12.5C6 14 7.3 15.3 8.8 15.3H12.5C13 15.3 13.4 14.9 13.4 14.4V11.6C13.4 10.1 12.2 8.79999 10.6 8.79999H6.9C6.4 8.79999 6 9.19999 6 9.69999Z" stroke="#3A3A3A" stroke-width="1.5" stroke-miterlimit="10"/>
<path fill-rule="evenodd" clip-rule="evenodd" d="M17.9992 9.20001V14.8L15.1992 12.9V11.1L17.9992 9.20001Z" stroke="#3A3A3A" stroke-width="1.5" stroke-miterlimit="10" stroke-linecap="round" stroke-linejoin="round"/>
<path d="M12 22C17.5228 22 22 17.5228 22 12C22 6.47715 17.5228 2 12 2C6.47715 2 2 6.47715 2 12C2 17.5228 6.47715 22 12 22Z" stroke="#3A3A3A" stroke-width="1.5" stroke-miterlimit="10"/>
</svg>
